<?xml version="1.0" encoding="utf-8"?>
<!-- Generator: Adobe Illustrator 24.0.1, SVG Export Plug-In . SVG Version: 6.00 Build 0)  -->
<svg version="1.1" id="Layer_1" xmlns:vectornator="http://vectornator.io"
	 xmlns="http://www.w3.org/2000/svg" xmlns:xlink="http://www.w3.org/1999/xlink" x="0px" y="0px" viewBox="0 0 400 600"
	 style="enable-background:new 0 0 400 600;" xml:space="preserve">
<style type="text/css">
	.st0{fill-rule:evenodd;clip-rule:evenodd;fill:#A60202;stroke:#A60202;stroke-width:8.91;}
	.st1{fill-rule:evenodd;clip-rule:evenodd;fill:#500091;stroke:#000000;stroke-width:5.38;}
	.st2{fill:none;stroke:#000000;stroke-width:3.77;stroke-linecap:round;stroke-linejoin:round;}
	.st3{fill:none;stroke:#000000;stroke-width:5.45;stroke-linecap:round;stroke-linejoin:round;}
	.st4{fill-rule:evenodd;clip-rule:evenodd;stroke:#000000;stroke-width:5.45;stroke-linecap:round;stroke-linejoin:round;}
	.st5{fill-rule:evenodd;clip-rule:evenodd;stroke:#000000;stroke-width:5.38;}
	.st6{fill-rule:evenodd;clip-rule:evenodd;fill:#500091;stroke:#000000;stroke-width:1.28;}
	.st7{fill-rule:evenodd;clip-rule:evenodd;fill:#500091;stroke:#000000;stroke-width:6.74;}
	
		.st8{fill-rule:evenodd;clip-rule:evenodd;fill:#FFFFFF;stroke:#000000;stroke-width:0.83;stroke-linecap:round;stroke-linejoin:round;}
	
		.st9{fill-rule:evenodd;clip-rule:evenodd;fill:#060606;stroke:#000000;stroke-width:0.83;stroke-linecap:round;stroke-linejoin:round;}
	.st10{fill:none;stroke:#000000;stroke-width:0.83;stroke-linecap:round;stroke-linejoin:round;}
	
		.st11{fill-rule:evenodd;clip-rule:evenodd;fill:#500091;stroke:#000000;stroke-width:0.83;stroke-linecap:round;stroke-linejoin:round;}
	
		.st12{fill-rule:evenodd;clip-rule:evenodd;fill:#FFFFFF;stroke:#FFFFFF;stroke-width:0.1;stroke-linecap:round;stroke-linejoin:round;}
	
		.st13{fill-rule:evenodd;clip-rule:evenodd;fill:#FFFFFF;stroke:#000000;stroke-width:0.1;stroke-linecap:round;stroke-linejoin:round;}
	
		.st14{fill-rule:evenodd;clip-rule:evenodd;fill:#FFFFFF;stroke:#000000;stroke-width:0.82;stroke-linecap:round;stroke-linejoin:round;}
	
		.st15{fill-rule:evenodd;clip-rule:evenodd;fill:#472573;stroke:#000000;stroke-width:0.16;stroke-linecap:round;stroke-linejoin:round;}
	
		.st16{fill-rule:evenodd;clip-rule:evenodd;fill:#FFFFFF;stroke:#000000;stroke-width:0.75;stroke-linecap:round;stroke-linejoin:round;}
	.st17{fill:none;stroke:#000000;stroke-width:0.55;stroke-linecap:round;stroke-linejoin:round;}
</style>
<g id="Layer_1_1_" vectornator:layerName="Layer 1">
	<path class="st0" d="M433.8,424.5c-0.1,0.4-0.2,0.7-0.4,1.1"/>
	<path class="st0" d="M436,274.5c0.2,0,0.5,0,0.7,0"/>
	<path class="st0" d="M430.6,356.1c-2,1.2-3,4.1-2.9,6.5c0.1,1.1,2.4-0.1,3.2-0.7c0.4-0.3,1.2-2.2,2.2-2.2c0.3,0-0.5,0.4-0.7,0.7
		c-0.4,0.5-0.7,1-1.1,1.4c-0.7,1-4.5,5.1-2.2,3.6"/>
	<path class="st1" d="M110.3,360.4c-3.4-3.7-18.3,0-24.3-1.4c-3.2-0.8-6.5-1.4-9.7-2.2c-2.6-0.6-4.9-2.8-7.2-4c-1.4-0.7-4-1.5-5-2.5
		c-1.2-1.2-2.6-2-4-2.9c-0.9-0.6-1.6-2.2-2.5-2.9c-4.6-3.4-8.4-5.8-11.9-10.4c-2-2.7-5.5-3.3-6.5-7.2c-0.5-2,0.3-4,0.7-5.8
		c1.2-4.7,1.7-10.6,0.7-15.5c-1.3-6.4-4.9-12.1-6.5-18.3c-2.2-8.8-4.2-17.6-5.8-26.6c-1.7-10.2,2.3-23.4,4.7-33.1
		c1.4-5.6,5.4-10.5,6.8-16.2c0.8-3.2,1.9-6.5,2.5-9.7c0.6-3,0.1-6.3,0.7-9.4c0.9-4.4,0-10.1-0.7-14.4c-0.6-3.8-0.3-7.7-1.1-11.5
		c-0.5-2.3,0.1-4.9-0.4-7.2c-3-15.1-0.6-30.3,5-44.2c1.1-2.7,1.4-5.7,2.9-8.3c2.5-4.1,5.4-8.1,7.9-12.2c1.8-3.1,3.2-7.2,5.8-9.7
		c1.8-1.8,3.2-4.3,5-6.1c1.3-1.3,3.2-2.2,4.3-3.6c2.9-3.6,5.4-8.6,9-11.5c1.7-1.4,4-2.2,5.8-3.2c3.4-2,6.3-4.4,9.7-6.5
		c1.9-1.1,4.3-1.6,6.1-2.5c11.6-5.8,23.3-12.3,36-15.5c6.5-1.6,13.2-3.4,19.8-4.7c4-0.8,8.6-0.1,12.6-1.1c3.1-0.8,6.2-1.7,9.4-2.5
		c4.5-1.1,9.7,0.2,14.4-0.4c7.3-0.8,15.6-4,23-2.5c4.5,0.9,10,2.3,14,4.3c0.9,0.4,1.5,1.4,2.5,1.8c1.9,0.7,4.2,1,6.1,1.4
		c4.7,1.2,9.2,3.4,14,4.3c6.2,1.2,12.4,5.2,18.3,7.2c5.3,1.8,10.3,4.4,15.5,6.5c2.2,0.9,4.5,2.7,6.8,3.2c6.9,1.7,13.3,5.7,19.4,9.4
		c1,0.6,2.3,0.7,3.2,1.4c2.8,2.1,5.1,5.1,7.9,7.2c3.2,2.4,6.5,4,9.4,6.8c3.1,3.1,5.3,7.3,7.9,10.8c3.5,4.7,8.9,8.1,10.4,14.4
		c1.2,4.7,1.4,9.7,2.5,14.4c1,3.8-1,8.4,0,12.2c1.1,4.4,1.3,12.4,0.4,16.9c-1.8,9-0.4,20,1.1,28.8c0.4,2.1,0.2,4.3,0.7,6.5
		c1.2,4.8,2.4,10.5,4.7,15.1c1.5,3.1,3.5,7,4.3,10.4c0.8,3.3,0.6,6.8,1.4,10.1c2.9,11.5,3.7,25.3,0.7,37.1
		c-1.2,4.8-1.7,10.7-4.3,15.1c-2.9,4.8-6.4,9.6-9.7,14c-2.7,3.6-6.1,14.2-7.2,18.7c-1.6,6.5-2.7,13.3-4,19.8
		c-0.5,2.7-1.9,4.9-2.5,7.6c-1,4.1-1.1,10.1-4.3,13.3c-2.2,2.2-7,2.5-9.7,3.2c-2,0.5-4.1,1.3-6.1,1.8c-2.8,0.7-6.3-0.5-9-1.1
		c-2-0.4-4.2,0.4-6.1,0c-3.8-0.8-7.9-0.7-11.9-0.7c-3.2,0-6.5,0-9.7,0c-1.1,0-2.2,0-3.2,0c-0.2,0-0.7,0.2-0.7,0
		c0-0.5,1.9-0.4,2.2-0.4c2.4,0,7.9-1.1,10.1,0c3.4,1.7,7.5,1.5,10.8,4c4,3,5,10.4,6.1,14.7c3.1,12.4,8.7,24.2,11.9,36.7
		c1.9,7.7,4.2,15.8,2.5,24.1c-1,4.8-0.6,8.9-2.5,13.7c-2,4.9-5.9,8-9,11.9c-1.2,1.5-2,3-3.2,4.3c-1.8,1.8-4.3,5.3-6.8,6.1
		c-2.7,0.9-5.5,2.7-8.3,3.6c-1.3,0.4-2.7,0.3-4,1.1c-1.3,0.8-2.3,2.1-3.6,2.9c-2,1.2-5,0.3-7.2,1.4c-3.6,1.8-6.5,3.7-10.8,4.3
		c-1.9,0.3-4.2-0.5-6.1,0c-4.4,1.1-8.5,1.4-12.9,2.2c-1.4,0.2-2.8,1.2-4.3,1.4c-3.5,0.6-7.3-0.2-10.8,0.4
		c-13.9,2.3-28.8,1.1-43.2,1.1c-2,0-3.9,0.3-5.8,0.7c-3.8,0.9-8.5-0.4-12.2-0.4c-1.6,0-3.4,0.8-5,0.4c-4.2-1-8.1-1.8-12.2-2.9
		c-5.7-1.4-12-0.4-17.6-1.8c-2.6-0.7-5.2-2-7.9-2.5c-6.3-1.3-12.7-2.3-18.7-4.7c-1.9-0.8-3.4-3.1-5.4-3.6c-2.8-0.7-5.8-0.9-8.6-1.4
		c-6.1-1.2-12.1-7.3-15.5-11.9c-0.8-1.1-2.7-1.2-3.6-2.2c-2.7-2.7-5-6-6.5-9.7c-3.3-8.3-5.4-18.5-3.2-27.3c1-3.9,0.2-9.1,1.1-13.3
		c0.7-3.4-0.3-7.1,0.4-10.4c0.7-3.6,1.6-7.2,2.5-10.8c1.5-6.1,0.8-11.2,4.3-16.5c1.1-1.7-1.4,0.3,0.4-1.4c2.8-2.8,8.4-1.2,11.9-0.4
		c3.7,0.9,10.8,0.5,14.4-0.4C105.6,359.3,110.9,361.1,110.3,360.4z"/>
	<path class="st1" d="M323,349.3c3.1,6.1,7.4,11.1,11.5,16.5c2.2,2.9,3.4,6.5,5,9.7c3.2,6.4,8.7,12.5,10.4,19.4
		c0.8,3.3,1.1,6.7,1.8,10.1c2,10.2-7.1,13.6-14.7,15.5c-2.3,0.6-6.9,1-8.6-0.7c-0.9-0.9-1.2-3.1-1.8-4.3c-3.2-6.4-4.8-12.9-6.5-19.8
		c-0.8-3.4-2.8-7-4.3-10.1c-0.5-1-1.6-1.7-1.8-2.9c-0.5-2.5-1.8-5-2.9-7.2c-0.9-1.8-0.7-4.2-1.1-6.1c-1.4-7-2.9-14.8-6.1-21.2"/>
	<path class="st1" d="M59,347.8c-2,1-2.4,4.5-4,6.1c-5.4,5.4-8.4,11.1-11.9,18c-1.8,3.6-4.6,6.7-6.1,10.4
		c-2.4,5.9-3.9,11.6-5.4,17.6c-0.9,3.5-3.7,15-0.7,18c2.3,2.3,7.8,2.8,10.8,3.6c6,1.5,11.5,4.5,17.6,5.8c1.6,0.3,7.1,4.1,8.6,1.8
		c1.6-2.3-0.1-10.9,0.7-14c0.9-3.6-0.2-7.6,0.7-11.2c1.2-4.7,1.2-9.7,2.2-14.4c1.5-7.7,3.9-15.1,5.4-22.7c0.2-0.8,1.8-8.2,1.8-8.3
		c0-0.1-1.8,0-2.2-0.4c-1.9-1.9-5.2-2.5-7.6-4.3c-5.4-4.1-12-6.8-15.8-12.6"/>
	<path class="st2" d="M214.7,338.8c13.2-6.6,29-7.6,43.2-11.9c4.4-1.3,9.2-2.1,13.7-2.9c1.9-0.3,3.9-0.3,5.8-1.1
		c0.2-0.1,0.7-0.4,0.7-0.4s-1.8,1.6-2.9,2.2c-1.8,0.9-3.5,2-5.4,2.9c-4.5,1.9-15.4,6.7-17.6,11.2"/>
	<path class="st3" d="M171.2,334.5c-1.7,0-3.1-1.1-4.7-1.4c-2.9-0.6-6.1-0.2-9-0.7c-2.8-0.5-5.4-1.8-8.3-2.2
		c-5.5-0.8-11.1-0.5-16.5-1.4c-3.7-0.6-7.6-2.3-11.2-3.2c-0.4-0.1-3.6-0.3-3.6,0c0,0.2,0.5-0.1,0.7,0c1,0.3,1.9,0.7,2.9,1.1
		c4,1.6,8.4,1.8,12.6,2.9c8.1,2,14.3,7.5,21.6,11.2"/>
	<path class="st4" d="M353.8,410.1c2.3,3.9,5.9,6.9,5.9,11.9c0,4.8-0.6,7.8-4,11.2c-1.7,1.7-2.7,4.7-5.4,5.4
		c-2.5,0.6-5.1,0.5-7.6,1.1c-3,0.7-7.6,1.5-10.8,0.7c-0.9-0.2-1.4-1-2.2-1.4c-6.1-3.1-5.8-7.5-5.8-13.7c0-1.4-0.4-3.9,0.4-5
		c0.7-1,4.8-0.2,5.8,0c5.3,1.3,10.7,0.2,15.8-1.1c2.4-0.6,5.1-3.3,6.1-5.4C352.4,413.1,353.6,409.8,353.8,410.1z"/>
	<path class="st4" d="M29.9,419c-3,0.2-5,14-4.1,16.6c3.5,10.3,9.7,16.8,20.6,18.6c6.5,1.1,13.4-2.6,18.7-5.8
		c1.3-0.8,2.6-3.4,3.6-4.6c2.7-3.1,2.4-10,0.3-13.5c-0.3-0.6-0.3-1.6-1.1-1.2c-1.3,0.5,0.8,1.4-1,1.5"/>
	<path class="st4" d="M128.8,476.3c0,2.6,0.1,5.1,0.7,7.6c1.8,7.3-3,17.5,5,22.3c3.3,2,6.5,2.2,10.1,2.9c1.9,0.4,5.1,0.9,7.2,0.4
		c4.5-1.1,13.4-6,14.4-11.2c0.4-1.9,0.6-3.9,1.1-5.8c0.6-2.2,0.4-5.6,0.4-7.9c0-0.7,0-4.6,0-2.9"/>
	<path class="st4" d="M240.2,479.4c0,14-3.4,33.5,16.2,33.5c2.1,0,4.2,0.1,6.1-0.4c10.7-2.7,12.2-16.6,14.4-25.5c0.7-2.6,0-6.3,0-9
		c0-0.9,0-5.1,0-3.6"/>
	<path class="st4" d="M192,315.8c-0.3,0.3-0.8,0.4-1.2,0.3c-0.7-0.2,0.1-1.5-0.3-2c-1.9-2.5-3.9-5.6-6.1-7.7
		c-3.1-3.1-8.8-3.1-12.8-4c-5-1.3-9.7-4.5-14.5-6.4c-1.8-0.7-4.5-0.4-6.4-0.7c-2.5-0.4-5-1.5-7.4-2c-3.1-0.6-6.6,0.1-9.8-0.3
		c-6-0.9-11.8-3-17.8-4c-5.9-1-12-1.2-17.8-2.4c-3.8-0.8-7.3-3-10.8-4.4c-4.6-1.8-9.8-4.2-13.8-7.4c-2.6-2.1-4.8-5.4-6.4-8.1
		c-2.7-4.5-6.3-8.9-7.4-14.1c-1.5-7.6,3-13.4,5.7-19.8c3.2-7.4,6.2-14.8,8.4-22.5c0.7-2.3,2.3-4.4,2.7-6.7c2.2-13.2-0.3-27,1.3-40.4
		c1.1-8.5,5-18,8.7-25.6c1.1-2.3,3.4-4.2,5-6.1c3.7-4,7-8.3,10.8-12.1c3.7-3.7,7-8.2,11.1-11.4c2.2-1.8,4.7-2.6,7.1-4
		c6.6-3.9,12.8-7.9,20.2-9.8c3.9-1,8.5,0.3,12.4-0.7c3.3-0.8,6.7-1,10.1-1.7c2.3-0.5,4.8,0.2,7.1-0.3c4.7-1.2,9.7-0.9,14.5-1.7
		c12.7-2.1,25.2-1.9,38-0.3c4.7,0.6,9.1,2.8,13.8,3.7c11.9,2.4,23.3,4.9,33.6,11.8c4.7,3.1,9.3,7.2,13.1,11.1
		c1.7,1.7,2.6,4.3,4.4,6.1c1.3,1.3,3.4,2.1,4.7,3.4c2.4,2.4,5.5,5.7,7.4,8.7c3.7,6.2,6.8,13.7,9.1,20.5c0.8,2.3,0.3,5.3,0.7,7.7
		c1.2,7.4,1.6,15,2.7,22.5c0.6,4.5,0,9.6,0,14.1c0,2.9,0.6,6.6,0,9.4c-0.6,2.8-0.8,6.5-0.3,9.4c1.5,8.8,3.7,17.1,7.7,25.2
		c2.8,5.6,9.1,13,6.4,19.8c-2.3,5.7-7.5,11.7-12.8,14.8c-3.7,2.2-8.2,3.1-12.1,5c-12.3,6.2-25.3,8.2-38.7,10.1
		c-2.9,0.4-5.6,1.9-8.4,2.4c-8.8,1.5-17.2,3-25.9,4.7c-3.3,0.7-6.8,0.7-10.1,1.7c-3.1,0.9-5.7,2.7-8.7,3.7
		c-4.5,1.5-10.6,2.5-14.1,6.1C194,312.6,193.4,314.6,192,315.8z"/>
	<path class="st5" d="M140.8,379.7h96.6H253V404H140.8V379.7z"/>
	<path class="st6" d="M147.1,383.8c1.2,0.6-0.8,3.3-1.1,4.5c-0.7,2.7-1.6,5.3-2.3,8c-0.3,1.1-0.6,2.2-0.9,3.3c0,0.1-0.2,0.2-0.1,0.3
		c0,0,0.4,0,0.5,0c0.6,0,5.6,0.5,5.7,0.5c0.2-0.2,0.2-1.7,0.2-2c0.1-0.5,1.6-4.3,1.8-4.4c0,0,3.2,0,3.5,0.1c0.7,0.2,2.9-0.1,3.1,0.6
		c0.2,0.9-2.2,4.6-1.5,5.4c0,0,3.3,0,3.6,0c0.4,0,1.9,0.3,2.2,0.2c0.3-0.2,0.3-2,0.4-2.4c0.7-2.7,1.8-5.2,2.4-7.9
		c0.4-1.7,0.5-3.7,1.3-5.3c0.1-0.2,0.3-0.5,0-0.6c-0.7-0.2-5.6-0.4-6-0.1c-0.9,0.6-1,5.9-1.7,6.4c-0.7,0.5-4.1,0-5.1,0
		c-0.2,0-1.5,0.3-1.5-0.2c0-0.8,2.4-5.5,2.1-5.9c-0.2-0.3-1.3,0-1.6,0C151.6,384.1,146.2,383.4,147.1,383.8z"/>
	<path class="st6" d="M168.8,384.1c0.6,0.5-0.3,2.8-0.5,3.6c-0.8,3.1-1.8,6.3-1,9.5c1,4,11.4,4.7,14,2.1c3.2-3.2,3.5-7.6,4.5-11.7
		c0.2-0.9,0.6-1.8,0.8-2.8c0-0.1,0.4-0.5,0.3-0.6c0-0.1-0.2,0-0.3,0c-1.7,0-3.4-0.2-5.1-0.2c-0.1,0-0.1,0-0.2,0
		c-0.2,0.2,0,1.1,0,1.3c-0.1,0.6-0.3,1.2-0.4,1.7c-0.3,1.3-1.1,2.4-1.4,3.6c-0.7,3-1.8,4.6-4.7,5.4c-1.7,0.4-2.1-1.7-2.1-2.8
		c0-2,0.8-4.1,1.3-6c0.2-0.7,1-2.3,0.8-3.1c-0.1-0.2-1.4,0.2-1.6,0.2C173.1,384.3,168,383.5,168.8,384.1z"/>
	<path class="st6" d="M195,384.2c0.2,0-0.2,0.9-0.3,0.9c-0.5,1.2-1.5,2-2.1,3.2c-1.7,3.4-3.8,6.8-6.5,9.5c-0.3,0.3-1.7,2.5-1.6,2.7
		c0.3,0.3,2.2-0.1,2.5-0.2c0.9-0.2,2.4,0.6,3.2,0.1c1.1-0.7,1.1-2.4,2-3.3c0.3-0.3,2.1-0.2,2.5-0.2c0.9,0,3.2,0,3.9,0.6
		c0.5,0.5-0.3,2.5,0.3,2.8c0.1,0.1,5.4,0.7,5.5,0.6c0.4-0.2-0.1-1.8-0.1-2.2c0-2.3-0.9-4.6-1.5-6.8c-0.4-1.7-0.3-3.7-0.3-5.4
		c0-0.4,0.2-1.8-0.1-2.1c-0.1-0.1-4.5-0.3-5.2-0.4c-0.5-0.1-1.1,0-1.7,0C195.5,384.1,194.8,384.2,195,384.2z"/>
	<path class="st6" d="M197.8,388.2c-0.3,0.5-3.3,5.1-3.2,5.3c0.1,0.2,2-0.1,2.2-0.1c0.3,0,2,0.3,2,0c0-1.2-0.5-2.4-0.5-3.6
		C198.3,389.3,198,387.8,197.8,388.2z"/>
	<path class="st6" d="M211,384.3c0.6,1.1-1,2.8-1.2,4c-0.5,2.3-0.8,5.2-1.8,7.3c-0.7,1.5-1.3,3.1-1.7,4.7c-0.1,0.6,5.8,0.4,6.2-0.1
		c0.3-0.3,1.4-5.6,1.7-6.5c0-0.1,0.6-1.8,0.6-1.8c0.6-0.2,1.9,3,2.2,3.4c1.4,1.4,2.1,3.3,3.6,4.7c0.4,0.4,1.2,0.3,1.7,0.4
		c0.6,0.2,1.7,0.6,2.4,0.4c0.3-0.1,0.9-3.3,1-3.8c0.7-3,1.5-6.1,2.1-9.1c0.1-0.7,0.9-2.6,0.7-3.3c0-0.1-0.5-0.1-0.6-0.1
		c-0.5,0-4.8,0-4.8,0.1c-0.3,0.3-0.3,1.7-0.4,2.1c-0.3,1.7-1,3.4-1.7,4.9c-0.1,0.2-0.4,1.3-0.6,1.3c-0.4,0-1-2.2-1-2.4
		c-0.4-1.4-1.8-3-2.6-4.1c-0.5-0.6-0.5-1.7-1-2.2C215.5,384.1,210.8,384,211,384.3z"/>
	<path class="st6" d="M244.1,390.1c0-0.1-0.4-0.4-0.2-0.4c0.6,0,5.6,0.5,5.6-0.2c0-0.3-0.2-0.5-0.3-0.8c-0.1-0.4-0.2-1-0.5-1.3
		c-1-1-2.5-2.5-3.9-2.8c-4.6-1.2-9.8,0.4-12.8,4.2c-0.5,0.6-1.3,1.2-1.5,2.1c-0.5,1.8-0.1,4.5,0.6,6.2c2.4,5.9,11.2,3.6,15,0.8
		c1.4-1,4.1-3.4,3.6-5.4c-0.1-0.4-1.8-0.3-2.1-0.3c-1.2,0-6.4-0.6-7-0.2c-0.3,0.2-1.2,3-0.9,3.3c0.3,0.3,4.4-0.3,3.2,0.6
		c-0.2,0.2-0.5,0.4-0.7,0.6c-0.3,0.2-0.4,0.4-0.7,0.6c-0.7,0.4-1.4,0-2.1-0.2c-2.5-0.5-3.7-2.2-3-5c0.7-2.8,3.2-2.9,5.5-3.4
		c0.9-0.2,1.4,0.7,2,1.3C243.8,389.9,244.1,390.5,244.1,390.1z"/>
</g>
<g id="head" vectornator:layerName="head">
	<path class="st7" d="M230.9,209.8c1.7,0.7,11.3-3.5,14.1-4.2c4.5-1.1,11.2-3.5,15.3-5.6c2.8-1.4,5.6-3.7,8.7-4.5
		c6.7-1.7,13.1-4.8,19.5-8c4.7-2.4,9.1-5.7,14.2-7c0.9-0.2,3.2-2.1,4.2-0.7c1.8,2.7-0.3,15.3-1,18.4c-0.8,3-0.9,6.4-2.1,9.4
		c-2.6,6.6-7.2,11.8-10.8,17.7c-3.2,5.3-7.2,11.2-12.2,14.9c-2.2,1.7-3.6,4.2-5.9,5.9c-4.8,3.6-11.6,4.9-17.4,3.5
		c-3-0.8-6.8-2.7-9-4.9c-1-1-1.3-2.6-2.4-3.5c-5.7-4.3-9.1-9.8-12.2-16c-2.4-4.8-3.2-7.4-4.5-12.5C228.9,211.5,229,209,230.9,209.8z
		"/>
	<path class="st7" d="M84.9,180.4c0.3,2.6,3.8,2.4,6.1,3c5.2,1.3,10.1,3.6,15.3,4.9c2.4,0.6,4.5,2,6.9,2.4c9.4,1.6,18.9,4.4,27.8,8
		c2.9,1.2,5.7,3.6,8.3,5.2c3.2,1.9,7,1.8,9.7,4.5c0.9,0.9,0.9,2.7,1,3.8c0.9,5.6,0.3,9.8-1,15.3c-1,4.2-1.6,9.2-4.9,12.5
		c-10.6,10.6-30.2,11.3-42.1,2.4c-4.4-3.3-8.2-8.9-11.5-13.2c-1.1-1.5-1.3-3.8-2.4-5.2c-1.9-2.5-4.1-5.1-5.6-8
		c-3.5-7-7.3-15.8-7.3-24c0-3.2-1-6.5-1-9.7c0-0.2-0.1-2.9,0.3-2.8C85,179.7,84.9,180.1,84.9,180.4z"/>
</g>
<g id="shoes" vectornator:layerName="shoes">
	<path class="st8" d="M170.8,489.9c0-0.1,0.9,1.3,1.1,1.7c0.6,1.2,1.2,3,1.2,4.3c0,1.6,0.1,3.8,0.5,5.4c0.6,2.5-0.3,5.6-0.3,8.2
		c0,4,1.6,7.7,2.5,11.5c0.6,2.2-0.1,4.8,0.4,7c0.8,3,1.9,6.1,1.1,9.4c-0.6,2.3,1.4,5.7,0,7.8c-0.7,1.1-2.2,2.2-3.2,3.2
		c-1.2,1.2-4.2,2-5.9,2.4c-3.4,0.8-7,1.5-10.5,2.4c-3.8,0.9-7.9,0.4-11.7,1.3c-3.7,0.9-7.2,2.3-10.9,3.2c-1.4,0.3-3.2,1.5-4.3,2.3
		c-1.5,1.2-5.5,2.5-7.5,2.9c-1,0.3-1.6,1.1-2.5,1.3c-4.2,1.1-8.8,0.8-13,1.9c-1.7,0.4-3.7-0.1-5.5,0.3c-4.9,1-10.8,1.2-15.8,0.4
		c-1.5-0.2-3,0.3-4.6,0c-1.3-0.3-2.8,0.2-4.2-0.1c-3.9-1-7.8-2.1-11.7-3.1c-3.7-0.9-7-0.9-9.6-4.2c-0.6-0.7-0.6-1.8-0.9-2.5
		c-2.7-5.3,1.1-10.7,2.4-15.8c0.5-1.9,1.8-5.1,3.8-6c4-2,7.6-4.9,12.1-6c3.4-0.8,6.8-1,10.2-1.9c0.8-0.2,2,0,2.7-0.5
		c2.1-1.6,3.9-3.5,6-5.2c0.8-0.7,1.1-1.7,2-2.4c1.1-0.8,2.4-1.6,3.3-2.5c0.7-0.7,1.3-1.7,2.1-2.3c2.6-2,5.1-3.9,7.8-5.9
		c1.5-1.1,3.2-1.7,4.6-3.1c0.6-0.6,1.6-0.5,2.1-1.1c0.9-0.9,1.8-2.2,2.8-2.9c1.2-0.9,2.9-1.4,4-2.5c3.5-3.5,3.2-6.4,4.3-10.7
		c0.9-3.5-0.9-6.7,2-9.6c0.8-0.8,1.3-1.6,2.5-1.9c4.1-1,16.5-1.9,20,0.9c0.4,0.3,0.8,0.7,1.1,0.8c1.2,0.7,1.7,1.5,2.5,2.1
		c0.4,0.2,0.4,0.8,0.8,1.2c0.2,0.2,1.1,4,1.3,5.4c0.1,1.7-0.1,3.5-0.2,3.7c-0.8,3-1.1,4.3-2.8,6.3c-2.2,2.7,4.6,3.2,5.6,4.2
		c0.9,0.9,3.9,0.4,6.3-1c1.4-0.8,2.4-2.7,3-2.6C170.5,497.9,171.2,492.2,170.8,489.9z"/>
	<path class="st9" d="M175.2,617.7c0-1.3,0-0.9,0.3-2.8c0.2-1.6,0.6-3.1,0.8-4.7c0.1-0.5,0.7-7.6,1.1-7.8c1.1-0.4,0.6,2.2,0.7,2.5
		c0.5,2.2,1.5,3.8,1.5,6.2"/>
	<path class="st10" d="M56.6,547c0.8,0.5,2,0.8,2.9,1.1c2,0.6,3.6,2.5,5.6,3.1c1.3,0.4,2.7,0.3,4,0.7c6.8,2.5,14.9,3.8,22.1,2.9
		c1.5-0.2,8.6,0.3,9.3-0.7"/>
	<path class="st10" d="M100.3,554c1.2,0.1,2.1,0.1,3.2,0.5c4.2,1.5,4.7,5.6,10.3,4.9c3.8-0.5,7-1.8,10.1-3.5c1-0.5,2.4-0.5,3.3-1.2
		c0.7-0.6,3.7-2.7,4.7-2.6"/>
	<path class="st10" d="M129.8,552.7c3.4,0,3.7-4.6,4.2-7.1c0.6-3.1,3.7-5,6.5-5.5c4.2-0.8,5.5,2.6,8,5.1c1.7,1.7,4.5,2.2,6.2,3.8
		c1.4,1.4,1,2.8,0.3,4.3"/>
	<path class="st10" d="M155.6,549.9c1.9-1,3.4-0.8,5.4-1.2c2-0.4,3.8-1.2,5.8-1.5c1.1-0.2,2.5-0.1,3.4-0.8c1.9-1.4,4.9-5,5.8-7.2
		c0.3-0.9,0.4-1.8,0.8-2.6"/>
	<path class="st10" d="M145.6,542.2c1.3,0.7,6.6-2,8.3-2.3c6.7-1.1,12.5-5.2,18.1-8.6c1.4-0.8,3-1.5,4.2-2.6"/>
	<path class="st10" d="M150.2,545.9c2.6,0.9,6.4-1,8.6-2.2c2.4-1.2,5.6-2,8.2-2.5c1.6-0.3,3.1-1.3,4.6-1.8c2-0.7,5.5-1.3,5.5-4"/>
	<path class="st10" d="M106.6,556c4.1-4.1,8.8-6.1,14.5-7.1c4-0.7,8.4,1.5,12.3-0.5"/>
	<path class="st10" d="M60.8,536.7c0.8,1.7,6.3,3.8,8.1,4.3c6.5,1.8,12.8,3.4,19.6,3.4c2.8,0,5.7,0,8.5-0.5c3.1-0.6,6.2-2.1,9.5-1.6
		c4.4,0.6,8.7,2.9,13.3,2.2c2-0.3,5.4-2.1,6.8-3.6c1.7-1.7,2.3-4.4,4.5-5.8c7.2-4.3,14.4,2,20.5,5"/>
	<path class="st10" d="M55.8,548.8c1.1,0.6,3.1,2,4.3,2"/>
	<path class="st10" d="M62.4,551.5c1.5,0.6,2.9,1.2,4.5,1.6"/>
	<path class="st10" d="M69.4,554.3c1.8,0.2,3.5,1.3,5.2,1.3"/>
	<path class="st10" d="M80.6,556.3c-0.7,0-1.4,0-2.2,0c-0.4,0,0.7,0,1.1,0c0.2,0,0.5,0,0.7,0c0.3,0,0.6,0,0.9,0
		c0.2,0,0.7,0.2,0.5,0.2C81.3,556.5,81,556.3,80.6,556.3z"/>
	<path class="st10" d="M85.8,557.2h0.7h1.8h0.9l0,0"/>
	<path class="st10" d="M93,557.2c1.9,0,1.8,0.1,3.6-0.7"/>
	<path class="st10" d="M55.1,553.8c0.8,1.6,7,2.4,8.5,2.9c3,1,5.9,2,9.2,2.5c3.8,0.6,7.9-0.3,11.7,0.4c3.1,0.5,6.3,0.6,9.4,1.1
		c3.8,0.5,5.2,4.7,9.2,4.7"/>
	<path class="st10" d="M103,565c0.1-0.4-0.9,1.3-0.4,1.3c0.8,0,0.2-3.1,0.4-3.1C103.5,563.2,102.6,566,103,565z"/>
	<path class="st10" d="M111.4,563.3c-0.8-2,0.1,1.7-0.3,2c-0.1,0.1,0-3.3,0-3.2c0.1,0.3-0.2,3.3-0.5,2.9c-0.3-0.3,0.4-0.8,0.4-1.3
		c0-0.1-0.1-1.1,0.2-1.1c0.1,0-0.2,2.5-0.2,2.2c0-0.8,0.5-1.6,0.5-2.5c0-0.2,0-0.5,0-0.5v2.9c0,0-0.3-1.6,0.2-2.2
		c0.5-0.5,0.6,2.5,0.2,2C111.6,564.1,111.6,563.7,111.4,563.3z"/>
	<path class="st10" d="M132,557.3c0.1-0.3,0.4-0.9,0.6-0.6c0.4,0.5,0.2,2.2-0.2,1.8c-0.3-0.3,0.1-0.7,0.2-0.9
		c0.1-0.8,0.2-2.3,0.2-2.3s0,2-0.4,2.9c-0.1,0.3-0.5,1-0.5,0.7C131.7,558.3,131.8,557.8,132,557.3z"/>
	<path class="st10" d="M155.2,552c0-0.4-0.1-0.9,0.2-1.3c0.2-0.4,0.3,0.8,0.2,1.3c-0.1,0.4-1.1,0.9-0.7,0.9c1,0,0.7-2.9,0.7-2.9
		s0.7,3.6-0.2,3.1C155.1,552.9,155.2,552.4,155.2,552z"/>
	<path class="st10" d="M166.4,550.3c-0.1-0.1-0.2,0.4-0.2,0.4s-0.5-2,0.2-2C166.4,548.8,167,550.6,166.4,550.3z"/>
	<path class="st10" d="M59.6,537.4l0.2,0.4l0.2,0.4l0.8,0.8l0,0"/>
	<path class="st10" d="M62.5,539.7c0.7,0.4,1.7,0.6,2.4,0.8"/>
	<path class="st10" d="M66.8,541.5c0.8,0.6,1.7,0.3,2.5,0.7"/>
	<path class="st10" d="M71.5,543.5c0.8,0.1,1.7,0.2,2.5,0.2"/>
	<path class="st10" d="M76.7,544.7c0.9,0,0.3,0,1.8,0.1"/>
	<path class="st10" d="M80.7,545.5c1,0,0.4,0,1.7-0.1"/>
	<path class="st10" d="M85.1,546h0.8l0.4-0.1l0.7-0.1l0,0"/>
	<path class="st10" d="M88.8,546h0.4h0.5l0.8-0.1l0,0"/>
	<path class="st10" d="M92.4,546.1L93,546l0.7-0.2l0.8-0.4l0,0"/>
	<path class="st10" d="M96.2,545.4c0.8-0.3,0.2-0.1,1.6-0.5"/>
	<path class="st10" d="M99.4,544.7c0.8-0.4,0.3-0.2,1.3-0.6"/>
	<path class="st10" d="M102.6,543.9l0.7-0.2l0.5-0.1l1.1-0.1l0,0"/>
	<path class="st10" d="M106.7,544.1h0.5h0.4l0.7,0.1l0,0"/>
	<path class="st10" d="M111.5,545.1c0.3,0.2,0.2,0.1,0.6,0.1"/>
	<path class="st10" d="M114,545.4c0.9,0.1,1.6,0.1,2.5,0.1"/>
	<path class="st10" d="M117.9,545.4l-0.2,0.1h0.4l0.4,0.1h0.7h0.4l0.5-0.1l0,0"/>
	<path class="st10" d="M121.7,545.2h0.5l0.2-0.1l0.8-0.4l0,0"/>
	<path class="st10" d="M124.6,544c0.7-0.3,1.5-0.9,2-1.4"/>
	<path class="st10" d="M127.4,542.4l0.1-0.2l0.6-0.8l0.4-0.5l0.2-0.2l0,0"/>
	<path class="st10" d="M129.5,539.3c0.4-0.7,1-1.3,1.4-1.9"/>
	<path class="st10" d="M131.9,536.3l0.4-0.4l0.2-0.2l0.5-0.1l0,0"/>
	<path class="st10" d="M135.9,535.3l0.4-0.1l0.4-0.1h1l0,0"/>
	<path class="st10" d="M140.7,535.8c0.9,0,0.3-0.1,1.7,0.5"/>
	<path class="st10" d="M143.8,537.1c0.6,0,1.2,0.5,1.7,0.8"/>
	<path class="st10" d="M148.1,539.4c0.2,0.1,0.3,0.2,0.5,0.2"/>
	<path class="st10" d="M146.7,538.6c0.1,0,0.2,0.1,0.4,0.1"/>
	<path class="st10" d="M59.1,538.8l0.4,0.4l0.2,0.1l0.8,0.6l0,0"/>
	<path class="st10" d="M61.6,540.6c0.7,0.5,0.2,0.2,1.4,0.7"/>
	<path class="st10" d="M65.1,542.1c0.6,0.4,0.2,0.2,1.2,0.5"/>
	<path class="st10" d="M69.2,543.7c0.8,0.2,0.3,0.1,1.3,0.5"/>
	<path class="st10" d="M72.2,544.9l1,0.1h0.4l0.8,0.1l0,0"/>
	<path class="st10" d="M75.9,545.8h0.4l1.1,0.2l0.4,0.1l0,0"/>
	<path class="st10" d="M80.3,546.7c0.2,0.5,0,0.2,1,0.2"/>
	<path class="st10" d="M83.2,547.3l0.4,0.1h0.4H85l0,0"/>
	<path class="st10" d="M86.8,547.8c0.6-0.1,0.3-0.1,0.8-0.2"/>
	<path class="st10" d="M90,547.3c0.5-0.2,0.2-0.1,0.8-0.2"/>
	<path class="st10" d="M92,547.2h0.4l0.5-0.2l0.2-0.1l0,0"/>
	<path class="st10" d="M94.9,546.9c0.2,0,0.3-0.1,0.5-0.1"/>
	<path class="st10" d="M96.7,546.6c1.2-0.8,2.7-0.6,4-1.2"/>
	<path class="st10" d="M101.8,545.5c0.7-0.2,0.3-0.1,1.1-0.1"/>
	<path class="st10" d="M104.9,545.5c0.2,0,0.3,0,0.5,0"/>
	<path class="st10" d="M106.9,545.7h0.4h0.6h0.4h0.4l0,0"/>
	<path class="st10" d="M110.9,545.9l0.2,0.1h0.4h0.5l0,0"/>
	<path class="st10" d="M113.5,546.4l0.2,0.1l0.7,0.1h0.5l0,0"/>
	<path class="st10" d="M116.2,546.9h0.5l0.4-0.1h0.4l0,0"/>
	<path class="st10" d="M118.8,546.7c0.6,0,0.2,0,1.2-0.1"/>
	<path class="st10" d="M121.2,546.7h0.4h0.4h0.4l0,0"/>
	<path class="st10" d="M123.5,546.4c0.6-0.4,0.2-0.2,1.1-0.5"/>
	<path class="st10" d="M125.4,545.5l0.1-0.2l0.4-0.2l0.4-0.1l0,0"/>
	<path class="st10" d="M127.5,543.6v-0.4l0.7-0.8l0.2-0.2l0.4-0.5l0,0"/>
	<path class="st10" d="M130.1,540.6l-0.1-0.2l0.2-0.1l0.6-0.4l0,0"/>
	<path class="st10" d="M131.7,539.2v-0.5l0.1-0.2l0.1-0.2l0.2-0.2l0,0"/>
	<path class="st10" d="M132.9,537.6c0.4-0.4,0.1-0.2,0.7-0.5"/>
	<path class="st10" d="M135.1,536.9c0.2-0.3,0-0.2,0.4-0.4"/>
	<path class="st10" d="M137,536.7c0.5,0.2,0.2,0.1,0.7,0.1"/>
	<path class="st10" d="M139.4,536.8c0.2,0.2,3.8,1.4,4.4,1.6"/>
	<path class="st10" d="M145.3,538.7l0.2,0.1l0.2,0.2l0.2,0.2l0,0"/>
	<path class="st10" d="M146.9,540.3c0.2,0.6,0,0.3,0.8,0.7"/>
	<path class="st10" d="M86.9,527.2c2.2,2.2,5.2,3.1,8,4.2c6.5,2.6,15.3,5.2,21.6,0.5c1.3-1,3.4-1.7,4.3-3c1.1-1.4,2.8-4.5,4.6-4.8
		c3.4-0.7,8.8,4.2,12.5,4.8c6.1,1,12.8,0,18.4-2.3c2.9-1.2,5.4-3.4,8.2-4.6c3.4-1.4,5.8-3.6,8.7-5.8c0.4-0.3,1.4-1,1.7-1.4"/>
	<path class="st10" d="M110.6,533.4c1.6-0.8,2-4.9,1.7-6.6c-0.1-0.4-0.5-1.6-0.3-2c0.5-0.9,2.6-1.9,3.4-2.7
		c3.9-3.9,8.9-6.5,12.8-10.3c2-2,4.5-4.4,6.3-6.7c2.3-3.1,4.1-7.2,7.2-9.5c5.4-4.1,9,1.7,13,4.2c1.9,1.1,5,1.7,7.2,1.3
		c3.7-0.7,6.4-4,8.6-6.9c0.6-0.8,1-3.4,1.7-3.7"/>
	<path class="st10" d="M112,532.4l0.6-0.4l0.3-0.3l0.4-0.9l0,0"/>
	<path class="st10" d="M113.3,529l0.1-0.6l-0.3-1.3v-0.4l0,0"/>
	<path class="st10" d="M114.6,524.5c-0.3,0.1-1.1,0.5-0.9,0.4c0.4-0.2,0.9-0.4,1.3-0.6C115.2,524.2,114.8,524.4,114.6,524.5z"/>
	<path class="st10" d="M117.1,522.7c0.8-0.8,1.6-1.5,2.6-2"/>
	<path class="st10" d="M121.9,518.9c-0.2,0.2-1,0.9-0.7,0.6c0.4-0.3,0.8-0.7,1.1-1C122.5,518.4,122.1,518.7,121.9,518.9z"/>
	<path class="st10" d="M124.9,516.2l0.6-0.4l0.1-0.3l1.1-1.1l0,0"/>
	<path class="st10" d="M128.5,513.1c1-0.6,1.4-1.6,2.3-2.3"/>
	<path class="st10" d="M132.4,509.5l0.4-0.3l0.3-0.3l0.1-0.3l0.4-0.6l0,0"/>
	<path class="st10" d="M135.1,506.5l0.3-0.1l0.4-1.1l0.3-0.4l0,0"/>
	<path class="st10" d="M137,503.6l0.1-0.3h0.4l0.3-0.4l0.1-0.3l0.1-0.3l0,0"/>
	<path class="st10" d="M139.4,500.3c0.7-0.7,1.6-2.1,2-3"/>
	<path class="st10" d="M142.4,496c1.1-0.3,0.7-0.3,1.4-0.3"/>
	<path class="st10" d="M146.2,495.4h0.6l0.4,0.1l0.7,0.1l0,0"/>
	<path class="st10" d="M149.3,497.3c0.5,0.5,1,1,1.4,1.6"/>
	<path class="st10" d="M152.9,500.2c0.5,0.7,0.1,0.3,1.1,1"/>
	<path class="st10" d="M156.9,502.2l1.3,0.3l0.3,0.1l1,0.1l0,0"/>
	<path class="st10" d="M161.6,502.2l0.6-0.1l0.4-0.1l1.4-0.3l0,0"/>
	<path class="st10" d="M166.4,500.4c0.8-0.8,0.3-0.3,1.6-1.4"/>
	<path class="st10" d="M169.4,498.3l0.3-0.3l0.3-0.3l0.9-1l0,0"/>
	<path class="st10" d="M171.5,495.4c0-0.8-0.1-0.3,0.6-1.4"/>
	<path class="st10" d="M113.2,532.1l0.4-0.4l0.4-0.4l0.4-0.6l0,0"/>
	<path class="st10" d="M114.5,528.5c0-0.5,0-1,0-1.4"/>
	<path class="st10" d="M114.9,526.5l0.1-0.4l0.3-0.3l1-1.1l0,0"/>
	<path class="st10" d="M117.6,523.8c0.8-0.6,0.3-0.2,1.7-1"/>
	<path class="st10" d="M121.5,521.2c1-1,1.5-1.4,2.6-2.6"/>
	<path class="st10" d="M125.9,517.7c1.1-0.6,1.8-1.4,2.6-2.4"/>
	<path class="st10" d="M130.7,512.8c1-0.6,1.9-1.7,2.9-2.2"/>
	<path class="st10" d="M135.3,508.9c0.6-0.8,1.1-1.7,1.6-2.6"/>
	<path class="st10" d="M138.3,504.6l0.4-0.4l0.1-0.3l0.7-0.9l0,0"/>
	<path class="st10" d="M141.3,500.6c0.5-0.5,0.2-0.2,0.7-1.1"/>
	<path class="st10" d="M143.3,497.9l0.3-0.1l0.9-0.4l0.3-0.3l0.3-0.1l0,0"/>
	<path class="st10" d="M146.3,496.7c0.2,0.4,0.1,0.2,0.6,0.6"/>
	<path class="st10" d="M147.9,498.7c0.3,0.6,0.1,0.2,1,1"/>
	<path class="st10" d="M150.5,500.4c0,0.8-0.1,0.4,1.1,0.9"/>
	<path class="st10" d="M153.3,502l0.1,0.4l1,0.4h0.6h0.4l0,0"/>
	<path class="st10" d="M158.6,503.9c1.4,0,2.9-0.4,4.2-1"/>
	<path class="st10" d="M165.4,503.2c0.9-0.6,1.8-1.2,2.6-1.9"/>
	<path class="st10" d="M170.4,500.2c0.7-1.1,0.2-0.5,1.4-1.7"/>
	<path class="st10" d="M172.1,497.9c0.1-0.3,0.2-0.7,0.3-1"/>
	<path class="st10" d="M85.1,527.5c0.8,0.6,1.6,1.2,2.4,1.7"/>
	<path class="st10" d="M88.6,530.1c0.8,1.3,1.4,1.1,3.1,1.9"/>
	<path class="st10" d="M94.8,532.8c1.2,0.3,2.3,0.8,3.5,1.2"/>
	<path class="st10" d="M103.1,534.9c1,0,1.8,0.5,2.7,0.5"/>
	<path class="st10" d="M109.9,535.9c1.2-0.4,2.3-0.6,3.6-0.9"/>
	<path class="st10" d="M115.9,534.2c0.8-0.4,1.5-0.9,2.2-1.4"/>
	<path class="st10" d="M120.4,531.6c0.8-1,1.1-1.4,2.1-2.5"/>
	<path class="st10" d="M123.8,528l0.4-0.4l0.2-0.4l0.4-0.5l0,0"/>
	<path class="st10" d="M125.8,525.9c0.1-0.1,0.2-0.2,0.2-0.2"/>
	<path class="st10" d="M126.9,525.4c1.8,0.2,2.1,0.3,4,1.1"/>
	<path class="st10" d="M131.6,527.6c1.1,0.5,2.4,0.9,3.2,1.7"/>
	<path class="st10" d="M137.9,530.1c1.1,0.5,2.1,0.6,3.2,0.7"/>
	<path class="st10" d="M144.8,530.6c0.9,0.3,2.1-0.4,2.9-0.6"/>
	<path class="st10" d="M150.8,529.4c0.7-0.2,1.3-0.5,2-0.9"/>
	<path class="st10" d="M156.1,527.6c1-0.2,0.5,0,1.6-0.9"/>
	<path class="st10" d="M161,525.5c0.6-0.2,1-0.7,1.5-1.1"/>
	<path class="st10" d="M165.1,523c0.8-0.4,1.7-0.8,2.5-1.2"/>
	<path class="st10" d="M169,520.9h0.4l1-0.7l0.5-0.4l0,0"/>
	<path class="st10" d="M173.3,518c0.4-0.6,0.2-0.3,0.9-1.1"/>
	<path class="st10" d="M83,528.2c0.7,0.6,1.3,1.2,2,1.7"/>
	<path class="st10" d="M86.6,530.7c0.8,0.5,1.5,1,2.4,1.4"/>
	<path class="st10" d="M92.2,533.6l0.6,0.2l0.4,0.1l0.2,0.2l1,0.4l0,0"/>
	<path class="st10" d="M98.4,535.4c0.8,0.4,1.6,0.6,2.5,0.6"/>
	<path class="st10" d="M103.9,536.8h0.4h0.4h1.1h0.4l0,0"/>
	<path class="st10" d="M109.5,537.3h0.5h1h0.4l0.5-0.1l0,0"/>
	<path class="st10" d="M114.1,537.2c0.9-0.9,2.2-1.1,3.4-1.5"/>
	<path class="st10" d="M119.5,534.3c0.3-1,1.8-1.8,2.7-2.4"/>
	<path class="st10" d="M123.5,531l0.2-0.2l1.1-1l0.4-0.5l0,0"/>
	<path class="st10" d="M126.1,528.1c0.3-0.6,0-0.2,1.1-0.5"/>
	<path class="st10" d="M130,528c0.7,0.6,1.4,0.9,2.2,1.4"/>
	<path class="st10" d="M135.1,530.2c0.4,0.9,1.7,0.7,2.6,0.9"/>
	<path class="st10" d="M140.4,531.8c1.1,0,2.1,0.2,3.2,0.2"/>
	<path class="st10" d="M146.5,532.1c1.1,0.5,3.7-0.9,5-1.4"/>
	<path class="st10" d="M153.1,530.1c0.8,0.4,2.6-0.7,3.6-1"/>
	<path class="st10" d="M158.8,528.2c0.8-0.4,1.5-0.7,2.2-1.1"/>
	<path class="st10" d="M163.5,525.4c1,0,1.7-0.7,2.6-1.1"/>
	<path class="st10" d="M168.2,522.9c0.9-0.2,0.3,0,1.6-0.7"/>
	<path class="st10" d="M171.6,521.3l0.2-0.1l0.1-0.2l0.5-0.4l0.4-0.2l0.2-0.2l0,0"/>
	<path class="st10" d="M173.8,519.3c0.1-0.1,0.2-0.2,0.2-0.2"/>
	<path class="st10" d="M143.4,528.6c-3.5,0-10.5-4-9.7-8.2c0.6-3,4.1-5.4,6.2-7.5c3.2-3.2,7.1-7.3,12.2-6.3c0.6,0.1,1.2,0.6,1.9,0.7
		c0.7,0.1,1.7,0.4,2.4,0.9c1.5,1.1,2.8,2.5,4.1,3.8c2.7,2.7,3.6,7.3,1.9,10.8"/>
	<path class="st10" d="M134.3,522.8c1.6-2.4,4-4.2,6.2-6c0.9-0.7,1.3-1.8,2.1-2.6c1.1-1.1,2.7-1.8,3.9-3c1.5-1.5,3.1-3.1,5-4.1"/>
	<path class="st10" d="M135.9,524.6c0.9-1.4,2.5-2.3,3.7-3.4c1.9-1.5,3.5-3.4,5.5-5c1.1-0.9,1.9-2.1,2.9-3.1
		c1.2-1.2,2.8-2.1,4.1-3.4c0.5-0.5,0.9-1.2,1.6-1.6"/>
	<path class="st10" d="M138.2,526.4c2.3-0.6,3.6-3.5,5.2-5c4.3-3.9,8.6-9,13.8-11.6"/>
	<path class="st10" d="M141.9,527.9c2.4-3.6,6.7-7.2,9.7-10.2c1.7-1.7,4.7-5.6,6.8-6.3"/>
	<path class="st10" d="M143.9,528.4c2.1-1,3-2.7,4.6-4.1c4.2-3.5,7.9-7.8,12.4-10.8"/>
	<path class="st10" d="M148.2,528c2.1-1.4,3.3-3,5-4.7c0.9-0.9,2.3-1.4,3.1-2.5c1.7-2.1,3.4-4,5.8-5.2"/>
	<path class="st10" d="M153.9,526.6c2-1,2.9-3,4.6-4.2c0.8-0.6,1.7-1.1,2.4-1.7c0.5-0.5,0.7-1,1.4-1.4"/>
	<path class="st10" d="M133.9,519.3c2,2,4.3,3,6.3,4.8c0.6,0.6,1.2,1.5,2,2c1,0.6,3.8,1.5,4.3,2.6"/>
	<path class="st10" d="M136.2,517.1c3.3,2.8,7.4,4.8,10.7,7.7c0.5,0.4,5.4,3.9,5.1,2.9"/>
	<path class="st10" d="M138.4,514c5.9,3.7,11.1,8.5,16.9,12.3"/>
	<path class="st10" d="M141.8,512.1c4.1,2.7,8.3,5.2,12.3,7.9c1.4,1,2.9,2.2,4.3,3.1c0.3,0.2,2.1,1.4,1.9,0.9"/>
	<path class="st10" d="M144.1,509.1c4.5,2.3,8.1,5.2,12,8.2c1.4,1,2.5,2.2,4,3.1c0.3,0.2,2.1,1.5,1.9,1"/>
	<path class="st10" d="M147.7,507.7c-0.4-0.8,3.6,1.8,4.1,2.2c1.3,1.1,2.8,1.8,4.1,2.9c1.2,0.9,2,2.2,3.2,3c0.7,0.4,3.2,1.9,3.2,1.9
		"/>
	<path class="st10" d="M151,506.4c1.1,1.1,2.6,1.6,3.9,2.6c2.4,1.9,4.7,4.7,7.5,6.1"/>
	<path class="st8" d="M130.3,480.1c3.6,0,7.1,0.1,10.7,0.1c1,0,3.1,0,3.6,1.1c0.3,0.8,0.1,1.6,0.2,2.4c0.3,2,0.2,4.2,0.2,6.3
		c0,0.9-0.1,1.8-0.1,2.8c0,0.2,0,1.2,0.1,1"/>
	<path class="st8" d="M129.8,480.2c0,4.1,0.7,8.5,0,12.5c-0.2,1.3-0.8,4.4-0.6,5.6c0.2,1.1,5.2,2.1,6.1,2.2c0.4,0.1,1.9,0.4,1.9,0"
		/>
	<path class="st8" d="M137,500.5c0.6-0.3,0.9-1.5,1.5-1.8"/>
	<path class="st8" d="M130.8,481.7c0.1,0.4,0.1,0.8,0.1,1.3"/>
	<path class="st8" d="M131.2,484.5c0,0.5,0,1.1,0,1.6"/>
	<path class="st8" d="M131.4,487.9c0,0.4,0,0.9,0,1.3"/>
	<path class="st8" d="M131.2,490.9c-0.2,0.4-0.1,1.2-0.1,1.7"/>
	<path class="st8" d="M130.7,494.2c-0.2,0.2-0.3,1.2-0.3,1.6"/>
	<path class="st8" d="M130.3,497l-0.1,0.1v0.2l-0.1,0.1l-0.1,0.2l-0.1,0.2l0,0"/>
	<path class="st8" d="M130.9,498.6h0.3l0.4,0.1l0.3,0.1l0.3,0.1l0,0"/>
	<path class="st8" d="M133.3,498.9c0.3,0.3,0.8,0.3,1.2,0.4"/>
	<path class="st8" d="M136,499.7l0.3,0.1h0.3h0.2l0,0"/>
	<path class="st8" d="M131.9,481.5c0.5-0.1,0.9,0.1,1.4,0.1"/>
	<path class="st8" d="M134.6,481.5c0.6,0,0.3,0,1,0.1"/>
	<path class="st8" d="M137.6,481.7c0.5,0,1,0,1.5,0"/>
	<path class="st8" d="M140.2,481.6c0.4,0,1.1,0.1,1.5-0.1"/>
	<path class="st8" d="M142.9,481.7c0.2,0.1,0.1,0.1,0.3,0"/>
	<path class="st8" d="M143.5,482.7c0,0.6,0.2,1.2,0,1.8"/>
	<path class="st8" d="M143.9,486.4c0,0.7-0.1,1.2-0.3,1.9"/>
	<path class="st8" d="M143.8,489.4c0,0.5,0,1.1,0,1.6"/>
	<path class="st8" d="M143.7,492.2v0.2v0.3v0.2v0.2v0.2l0,0"/>
	<path class="st10" d="M122,498.1c0,1,2.6,2,3.5,2.4c3.7,1.9,6.5,2.1,10.6,2.1"/>
	<path class="st10" d="M122.1,499.7c0.7-0.3-0.9,0.8-1,0.9c-0.8,0.8-1.3,2-2.3,2.6c-1.7,1-2.9,2.4-4.5,3.7c-0.9,0.8-2.2,0.9-3.1,1.8
		c-1.8,1.8-3.9,2.4-6,3.8c-3,2-5.8,4.4-8.5,6.8c-2.7,2.4-5.1,6.6-8.3,8.2"/>
	<path class="st10" d="M123.5,500.2c-1.5,1.8-3.8,4.8-5.8,6.3c-0.6,0.4-1.4,0.8-1.9,1.3c-0.9,0.9-1.4,2-2.4,2.8
		c-2,1.6-4.4,2.8-6.5,4.1c-2.2,1.4-4.4,3.4-6.4,5c-1.4,1.1-2.4,2.7-3.7,4c-0.7,0.7-1.7,1.2-2.3,2c-0.7,1.1-1.7,2.9-2.9,3.5"/>
	<path class="st10" d="M124.7,501.2c-3.5,3.5-6.4,8.3-10.4,11.4c-1.9,1.5-3.8,3.4-5.8,4.9c-1.2,0.9-2.8,1.6-3.8,2.7
		c-0.8,0.9-1.3,1.9-2.2,2.7c-1.5,1.5-7.2,5.6-7.2,7.6"/>
	<path class="st10" d="M126.2,501.9c-1.7,3-4.5,6-6.8,8.7c-1,1.2-2.5,2-3.6,3.2c-0.8,0.9-1.2,2.1-2.2,2.9c-1.1,1-2.6,1.8-3.6,2.9
		c-0.8,1-1.4,2-2.4,2.8c-1.1,0.9-2.3,1.4-3.2,2.6c-0.6,0.8-1,1.8-1.8,2.4c-1.5,1.2-3,2.1-3.8,3.8"/>
	<path class="st10" d="M128.5,502.5c-1.5,1.5-2.4,3.5-3.7,5.1c-2.8,3.6-6.2,6.8-9.1,10.3c-1.4,1.6-2.2,3.7-4,5
		c-2.4,1.8-4.3,4.7-6.3,6.9c-0.5,0.6-2.7,3.6-2,3.2"/>
	<path class="st10" d="M130.8,503c-2.1,3.1-4.5,6.1-6.5,9.2c-1.5,2.3-4,4.1-5.3,6.7"/>
	<path class="st10" d="M110.8,527c-0.6,2.4-3.1,4.5-4.2,6.8"/>
	<path class="st10" d="M88.5,525.7c0,1.1,2.8,1.9,3.7,2.3c1.4,0.6,2.5,1.5,4,1.9c3.3,1,6.8,1.2,10.3,1.5c0.7,0.1,4.3,0.8,4.6,0.3"/>
	<path class="st10" d="M95.3,529.9v0.3l-0.3,0.3v0.3v0.3v0.3v-0.4l0,0"/>
	<path class="st10" d="M98.8,530.8l-0.1,0.3l-0.3,0.6l-0.1,0.3l-0.1,0.3l0,0"/>
	<path class="st10" d="M103.1,532.6c-0.1,0.3-0.3,0.5-0.4,0.8"/>
	<path class="st10" d="M91.6,528.9l-0.3,0.3l-0.3,0.3h-0.3l0,0"/>
	<path class="st10" d="M90.2,524c-0.6,0,1.4,1.1,1.7,1.3c1.5,1,2.6,1.8,4.5,2.2c4.2,0.8,8.2,1.6,12.4,2.2c0.9,0.1,1.8,0.3,2.7-0.1"
		/>
	<path class="st10" d="M92.4,522.2c-1.1-0.4,1.2,1.2,1.7,1.4c1.4,0.7,2.9,1,4.4,1.7c4.1,2.1,9.1,3.1,13.7,3.1"/>
	<path class="st10" d="M93.5,520.2c-0.2-0.4,0.8,0.9,1.4,1.2c0.9,0.4,1.9,0.8,2.8,1.2c3.3,1.4,6.9,2,10.3,3.2
		c0.6,0.2,2.6,1.1,2.9,0.4"/>
	<path class="st10" d="M95.6,518.5c1.5,2,9.1,4.9,11.8,5.3c0.6,0.1,4,0.9,4,0.5"/>
	<path class="st10" d="M97.9,517.4c-0.4-0.7,0.9,0.6,1.3,0.8c1.1,0.6,2.3,0.9,3.5,1.4c3.2,1.5,7,3.5,10.5,3.5"/>
	<path class="st10" d="M100.1,514.8c0,1.1,2.8,1.6,3.7,2c3.6,1.7,7.8,5.3,11.9,5.3"/>
	<path class="st10" d="M102,512.9c4.3,1.7,8.2,5.2,12.8,6.2c1.1,0.2,3,1.8,4.1,1.3"/>
	<path class="st10" d="M104.4,510.8c-0.1,0.4,2.8,2.1,3.4,2.6c3,2.1,6.5,3.3,10,4.2c1,0.2,2,0.2,2.9,0.4"/>
	<path class="st10" d="M107.3,508.9c-0.7,0.4,2.4,1.8,2.8,2.1c2,1.5,4.2,2.3,6.4,3.3c0.9,0.4,1.5,1,2.4,1.3c0.5,0.2,3.3,1.4,3.5,0.7
		"/>
	<path class="st10" d="M110.3,507c0.5,0.6,1.4,0.8,1.9,1.2c2.4,1.8,4.9,3.1,7.4,4.7c1,0.6,2.2,1,3.4,1.4c0.3,0.1,1.8,0.2,1.4,0"/>
	<path class="st10" d="M112.7,505.7c0.9,1,2.5,1.8,3.6,2.5c3,1.9,5.5,3.4,9,4c0.6,0.1,1.2,0.4,1.8,0.2"/>
	<path class="st10" d="M114.8,504.1c0.8,0.6,1.7,0.8,2.6,1.3c2.4,1.3,4.8,2.4,7.3,3.5c0.5,0.2,4.7,1.9,5,1.4
		c0.1-0.1-0.3-0.2-0.4-0.3"/>
	<path class="st10" d="M117.2,502.4c3.8,1.4,7.2,3.9,11.2,5c0.5,0.2,4.6,0.7,3.8-0.2"/>
	<path class="st10" d="M119.6,500.7c0.3-0.3,2.1,1,2.3,1.2c2,1.2,4.2,2.7,6.4,3.4c1.1,0.4,2.2,0.8,3.3,0.9c0.6,0,2.9,0,1.8-0.7"/>
	<path class="st10" d="M121.3,499.4c0.4,0.3,0.9,0.4,1.4,0.7c2.8,1.8,5.7,3.3,9,4c0.6,0.1,3.1,1.1,3.4,0.1"/>
	<path class="st11" d="M119.6,529.3c0.1-0.1-2.3,1.7-2.9,1.5c-0.2-0.1-0.7-1.9-0.9-2.2c-0.9-1.1-4.8-3-2.8-5c1-1,5.7-3.6,7-2.3
		c0.7,0.7,0.3,2.2,0.5,3.2c0.1,0.6,1.8,2.2,1.8,2.2c-0.2,0.6-1.4,1.4-1.8,2.1C120.4,529,119.4,529.4,119.6,529.3z"/>
	<path class="st11" d="M138.2,503.6c0-2.5,3.4-6.6,5.5-7.5c0.5-0.2,2.1-1.1,2.6-0.8c0.6,0.3,0.9,2.1,1.1,2.6c0.7,2,1.7,3.9,2.4,5.9
		c0.1,0.4,0.7,1,0.7,1.4c0,0.2-0.2,0.3-0.4,0.4c-0.8,0.4-4.1,3.5-4.1,3.5c-0.3,0-1.6-1.2-1.9-1.4c-1-0.6-7-2.8-7.1-3.5
		c-0.1-0.6,4.4-6.3,5.2-7.1"/>
	<path class="st12" d="M114.1,524.8c0.1,0.3,0.3,0.6,0.6,0.8c0.1,0.1,0.9-0.5,0.9-0.6c0-0.2-0.6-0.8-0.7-0.8
		C114.7,524.4,114,524.7,114.1,524.8z"/>
	<path class="st12" d="M115.9,523.7c0.2,0.2,0.3,0.6,0.5,0.8c0,0,0.9-0.4,1-0.5c0-0.1-0.1-0.4-0.2-0.5c-0.1-0.2-0.2-0.4-0.3-0.5
		C116.8,523.1,115.9,523.7,115.9,523.7z"/>
	<path class="st12" d="M117.9,522.8c0,0.3,0.2,0.8,0.5,1c0,0,1-0.2,1-0.4c0-0.1-0.1-0.4-0.2-0.5c0-0.1,0-0.4-0.2-0.5
		C118.9,522.3,118,522.6,117.9,522.8z"/>
	<path class="st12" d="M116.4,527.4c0.3,0.1,0.4,0.7,0.6,0.9c0.1,0,0.2-0.1,0.3-0.2c0.1-0.1,0.4-0.1,0.5-0.3
		c0.1-0.2-0.5-1.5-1.1-0.7C116.6,527.3,116.3,527.4,116.4,527.4z"/>
	<path class="st12" d="M117.8,526.5c0.1,0.1,0.6,1,0.7,0.9c1-0.3,0.9-1,0.1-1.5C118.6,525.9,117.7,526.4,117.8,526.5z"/>
	<path class="st12" d="M119.2,525.5c0.3,0.3,0.3,0.5,0.5,0.8c0.2,0.3,0.9-0.3,0.9-0.3c-0.3-0.4-0.5-1.1-1-0.8
		C119.4,525.3,119,525.4,119.2,525.5z"/>
	<path class="st12" d="M139.6,503.5c0.4,0.3,1.1,0.5,1.4,0.8c0,0,0.1,0.2,0.1,0.1c0,0,1.1-1.2,1.1-1.2c0-0.2-0.6-0.5-0.7-0.6
		c-0.1-0.1-0.6-0.7-0.9-0.7C140.5,502,139.5,503.4,139.6,503.5z"/>
	<path class="st12" d="M141.5,501.2c1.6,0.8,1,1.7,2.3,0.4c0.1-0.1,0.6-0.4,0.5-0.5c0-0.3-1.1-1.2-1.3-1.3
		C142.9,499.7,141.4,501.1,141.5,501.2z"/>
	<path class="st12" d="M144,498.9c-0.2,0.3,0.5,0.6,0.7,0.9c0.6,0.8,0.8,0.5,1.5-0.2c0.1-0.1,0.7-0.4,0.7-0.4c0-0.1-0.4-0.5-0.5-0.6
		C145.4,496.9,144.9,497.7,144,498.9z"/>
	<path class="st12" d="M143,505.2c1,0.6,1.3,1.5,1.9,0.4c0-0.1,0.3-0.4,0.4-0.4c0-0.1-0.3-0.4-0.4-0.5c-0.1-0.1-0.4-0.6-0.7-0.6
		c0,0-0.1,0.1-0.1,0.1C143.9,504.4,142.7,505,143,505.2z"/>
	<path class="st12" d="M144.8,503.6c0.2,0.2,0.9,1.1,1.1,1.1c0,0,0.2-0.3,0.2-0.4c0.8-0.6,0.7-0.8-0.2-1.7
		C145.8,502.3,144.6,503.3,144.8,503.6z"/>
	<path class="st12" d="M146.5,502c0.2,0.2,0.5,0.3,0.7,0.6c0,0,0.2,0.5,0.3,0.4c0.9-0.2,0.9-0.8,0.5-1.4c-0.1-0.1-0.3-0.5-0.4-0.5
		C147.3,501.1,146.4,501.9,146.5,502z"/>
	<path class="st12" d="M145.1,507.1c0.3,0,0.8,0.7,0.8,0.7c0.3-0.3,1-1.4,0.1-1.6C145.9,506.1,145,507.1,145.1,507.1z"/>
	<path class="st12" d="M146.6,505.8c1.2,0.1,0.2,0.8,1.2,0.3c0,0,0.4-0.2,0.4-0.2c0-0.1-0.3-0.4-0.3-0.4c-0.1-0.1-0.4-0.5-0.5-0.4
		C147.1,505.1,146.2,505.7,146.6,505.8z"/>
	<path class="st13" d="M148,504.6c0,0.2,0.8,1,0.8,1c0,0,0.2-0.3,0.2-0.3c0.1-0.1,0.4-0.3,0.5-0.4
		C149.6,504.9,148.3,503.2,148,504.6z"/>
	<path class="st14" d="M114.6,525.1c-2.6,1.4-5.9-0.6-8.8-0.6c-1.9,0-4.1-0.8-6-1.3c-1.6-0.4-5.1-1-6.1-2.3c-1.8-2.5,3-4.2,4.9-3.8
		c3.6,0.7,7.1,3,10.7,3.8C110.7,521.2,116.8,523.9,114.6,525.1z"/>
	<path class="st14" d="M101.6,517.9c-1.8-0.5-4.3-4.7-1.7-6c0.5-0.3,1-0.6,1.6-0.4c1.6,0.3,2.7,2.1,3.8,3.1c1.8,1.8,4,3.4,6.1,5
		c0.8,0.6,1.9,1.4,2.3,2.3c0.1,0.1,0.3,0.3,0.2,0.4c-0.3,0.3-2.3-1-2.7-1.1c-2.5-0.8-5-1.2-7.3-2.3
		C103.3,518.6,102.3,518.1,101.6,517.9z"/>
	<path class="st14" d="M116.4,524.2c-4.1-3.1-6.2-8.5-9.9-12.2c-1.1-1.1-1.7-3.1-0.5-4.3c1.1-1.1,3.2,0.6,3.8,1.4
		c1.7,2.1,3.1,4.6,4.5,6.9c0.9,1.5,2,2.5,2.6,4.2C117.2,521,118.2,525.5,116.4,524.2z"/>
	<path class="st14" d="M102.5,511.6c1.1-0.3,3.4,0.2,4.4,0.7c0.4,0.2,0.7,0.9,1,1.2c0.4,0.4,1.6,1.4,1.3,2.1c-0.1,0.3-4-0.6-4.2-1.1
		"/>
	<path class="st14" d="M105.3,514.9c-0.8-0.8-1.5-1.8-2.4-2.6"/>
	<path class="st14" d="M112.4,513.3c0.9,0,1.8,0.4,2.7,0.7c1.8,0.5,3.6,0.9,5.4,1.5c0.6,0.2,2,0.5,2.3,1.1c0.6,1.2-1.9,1.6-2.3,1.7
		c-1.7,0.6-4.7-1.2-6.2-2"/>
	<path class="st14" d="M118.9,523.3c-1.3-1-1.4-2.8-2-4.2c-1.4-3.5-3.7-6.6-4.8-10.2c-0.2-0.9-1.8-4.4-0.6-4.9
		c1.9-0.8,2.6,1.2,3.2,2.6c1.7,3.4,2.5,6.9,3.5,10.5c0.5,1.7,0.9,3.4,1.2,5.1C119.7,522.6,119.5,523.8,118.9,523.3z"/>
	<path class="st14" d="M108.8,507.9c0-0.5,1.2-0.1,1.7,0c1.7,0.4,2.1,1.4,2.5,3c0,0.1,0.2,0.4,0.1,0.4c-0.8,0.8-1.6-0.5-1.9-1
		c-0.3-0.4-0.7-0.8-0.9-1.2C109.9,508.6,108.8,508.5,108.8,507.9z"/>
	<path class="st14" d="M116.2,508.8c1.5-0.4,8.7,1.5,10.2,2.3c0.8,0.4,2.4,1.1,2.4,2.2c0,0.7-2.4,0.6-2.9,0.7
		c-2.7,0.7-4.7-1.1-7.2-1.8c-0.8-0.2-1.5-0.2-2.2-0.6"/>
	<path class="st14" d="M119.5,508.7c-0.2-0.4-1.3-1-1.7-1.3c-1.2-0.9-4.2-5.4-1.3-6.1c0.9-0.2,1.6,1.4,2.2,1.8
		c2,1.6,3.8,3.6,5.6,5.4c0.3,0.3,3.3,3.2,3.3,2.6"/>
	<path class="st14" d="M119.1,501.5c-0.1,0-0.1,0-0.2,0.1"/>
	<path class="st14" d="M118.6,501.7c-0.4,0.2,0.3-0.1,0.4-0.1c0.5-0.2,1-0.4,1.5-0.5c1.3-0.3,2.8-0.4,4.2-0.4
		c4.4,0,8.8,0.1,13.2,0.1c1.1,0,3.9,0.2,4.3,1.5c0.5,1.9-4.1,1.5-5.1,1.5c-4,0-8.2,0-12.1,1c-1.6,0.4-3.3-0.6-4.7-0.6"/>
	<path class="st14" d="M129.5,510.3c0.7-0.4,1.7-0.9,1.5-1.8c-0.1-0.7-0.8-1.1-1.2-1.6c-1.6-2.6-3.6-5.3-5.8-7.5
		c-0.7-0.7-2.4-2.6-3.7-1.3c-0.8,0.8-0.6,2.5,0.2,3.2c1.5,1.5,3.2,3.1,4.9,4.4c0.8,0.6,1.2,1.6,2,2.3
		C128,508.5,128.8,510.2,129.5,510.3c0.8,0.2,1.7-1.1,1.9-1.7"/>
	<path class="st14" d="M115.9,508.8c0.2,0.5,1.3,4.6,1.5,4.1"/>
	<path class="st15" d="M151.1,542.6c0.1-0.2,0.1,0.4,0.2,0.6c0.2,0.4,0.3,0.8,0.8,0.9c1.4,0.3,3.5-0.7,5-0.9
		c2.7-0.4,5.3-1.9,7.9-2.6c0.8-0.2,2.7-0.5,3.3-1.1c0.5-0.5,0.3-2.5,0-3.2c-0.3-0.9-2.9,0.6-3.4,0.8c-3.5,1.4-6.7,3.1-10.3,3.8
		c-1.1,0.2-2.5,0.5-3.5,1C150.6,542.1,151.1,542.8,151.1,542.6z"/>
	<path class="st15" d="M136.5,484.4c0,2.2,0.2,5.9-1.2,7.8c-1,1.3-1.8,2.9-3,4c-0.1,0.1-0.3,0.3-0.2,0.4c0,0,0.7-0.1,0.8-0.1
		c0.2,0.1,1.2,0.5,1.4,0.4c1.1-0.7,2-3,2.3-4.2c0-0.1,0.2-0.8,0.3-0.8c0.1,0,0.2,0.5,0.2,0.6c0.4,0.7,0.9,5,2.5,4.6
		c2.6-0.6-0.5-3.6-0.9-5c-0.4-1.8-0.7-3.6-0.7-5.5c0-0.4,0.4-2.2,0.3-2.4c0-0.1-0.7,0.2-0.8,0.2C137,484.5,136.5,483.9,136.5,484.4z
		"/>
	<path class="st16" d="M146,509.3c0.5-0.5,5.1-4.1,5.1-4.1c1.5,0,3.3,1.8,4.4,2.6c1.8,1.3,4.1,2.6,6,3.8c2.9,1.7,5.3,4.8,7.7,7.1
		c0.7,0.7,4.1,4.8,4.1,5.6c0,0.6-2.5,1.9-3,2.2c-2.6,2-5.8,3.6-8.6,5.3c-0.4,0.3-3.2,1.6-3.4,1.4c-2.8-2.8-2.6-8.1-4.6-11.4
		c-1.9-3.1-3.7-6.4-5.9-9.3C147.6,511.9,145.7,509.6,146,509.3z"/>
	<path class="st17" d="M155.4,513c0.8,1.2,2.4,1.6,3.4,2.6c1.8,1.8,3.7,3.5,5.7,5.1c0.3,0.2,2.6,2,2.6,2.1c0,0.1-2,0.7-2.3,0.9
		c-0.2,0.1-3.3,1.9-3.3,1.9c-0.1,0-0.1-0.9-0.1-1c-0.2-0.7-0.5-1.2-0.8-1.9c-0.9-2.2-2.1-4.4-3.3-6.4c-0.4-0.7-0.8-1.4-1.2-2.1
		C155.9,513.8,155.2,512.7,155.4,513z"/>
	<path class="st17" d="M158.2,534.1h0.6l0.2-0.1l0.4-0.2l0.2-0.2l0,0"/>
	<path class="st17" d="M160.8,533.4l0.2-0.1l0.9-0.5l0.2-0.2l0,0"/>
	<path class="st17" d="M163.2,531.8c0.4-0.2,0.9-0.4,1.4-0.6"/>
	<path class="st17" d="M165.3,530.7c0.4-0.4,0.9-0.7,1.3-1.1"/>
	<path class="st17" d="M167.9,529.1c0.5-0.2,1-0.5,1.3-1"/>
	<path class="st17" d="M170.1,527.7c0.5-0.3,1-0.5,1.5-0.9"/>
	<path class="st17" d="M172.3,526.4l0.2-0.2l0.2-0.2l0.2-0.2l0.2-0.3l0.2-0.2l0.1-0.2l0,0"/>
	<path class="st17" d="M174.2,524.7l0.1-0.2l0.1-0.2v-0.2v-0.2l-0.1-0.2l0,0"/>
	<path class="st17" d="M158.3,535.1h0.5l0.3-0.2l0.3-0.1l0,0"/>
	<path class="st17" d="M160.9,534.2c0.5-0.2,1-0.3,1.5-0.6"/>
	<path class="st17" d="M163.9,532.8c0.6-0.3,1.1-0.5,1.7-1"/>
	<path class="st17" d="M166.1,531.2c0.5,0,1.2-0.4,1.5-0.7"/>
	<path class="st17" d="M168.6,529.8l0.3-0.2l0.1-0.2l0.3-0.2l0.2-0.2l0,0"/>
	<path class="st17" d="M170.5,528.3l0.2-0.2l0.2-0.2l0.3-0.2l0.2-0.1l0,0"/>
	<path class="st17" d="M172.2,527.4l0.2-0.3l0.2-0.4l0.1-0.2l0,0"/>
	<path class="st17" d="M173.6,525.9l0.2-0.2l0.2-0.2l0.2-0.2l0.1-0.2l0.2-0.2l0,0"/>
	<path class="st17" d="M147.7,509.8c-0.1-0.2,1,1.1,1.3,1.4"/>
	<path class="st17" d="M150.2,513.5c0.6,0.5,0.9,1.3,1.2,2"/>
	<path class="st17" d="M152.3,516.9c0.3,0.1,1.1,1.6,1.2,1.9"/>
	<path class="st17" d="M154.3,520.2c0,0.4,0.4,1,0.5,1.4"/>
	<path class="st17" d="M155.7,522.9c0,0.8,0.9,1.5,1.1,2.2"/>
	<path class="st17" d="M157,526.1c0,0.7,0.4,1.4,0.4,2.1"/>
	<path class="st17" d="M157.8,529.4c0.4,0.4,0.6,1.1,1,1.6"/>
	<path class="st17" d="M159.9,531.5c-0.1,0.3,1.4-0.6,1.6-0.7"/>
	<path class="st17" d="M162.8,529.7c0.6-0.2,1.1-0.4,1.6-0.7"/>
	<path class="st17" d="M166.2,527.7c0.5-0.4,0.9-0.6,1.4-0.9"/>
	<path class="st17" d="M169.2,525.8c0.5-0.2,0.9-0.6,1.2-0.9"/>
	<path class="st17" d="M171.5,524.4l0.3-0.2h0.1l0.4-0.2l0.2-0.2l0,0"/>
	<path class="st17" d="M148.1,509.1c0.4-0.5,1-0.7,1.3-1.3"/>
	<path class="st17" d="M150.4,507.2c0,0,1-0.7,1.3-1"/>
	<path class="st17" d="M152.3,506.9c0.2-0.5,2.4,1.4,2.7,1.6"/>
	<path class="st17" d="M156.7,510.1c0.7,0.2,1.3,0.8,2,1"/>
	<path class="st17" d="M159.9,511.9c0.2,0.4,2,1.3,2.5,1.6"/>
	<path class="st17" d="M163.7,514.5c0.2,0.4,1,1,1.4,1.4"/>
	<path class="st17" d="M166.4,517.3c0.5,0.3,1.1,0.9,1.4,1.4"/>
	<path class="st17" d="M168.9,520.1c0.7,0.3,1,0.8,1.5,1.3"/>
	<path class="st17" d="M171.2,522.3c0.3,0.3,0.6,0.7,0.9,1"/>
	<path class="st17" d="M154.6,513.5c0.4,0.4,0.5,1,0.8,1.4"/>
	<path class="st17" d="M156.2,517.1c0.7,0.4,0.8,1.2,1.3,1.8"/>
	<path class="st17" d="M158.2,520.1c0,0.5,0.5,1.7,0.9,2.1"/>
	<path class="st17" d="M159.6,523.7c0.3,0.6,0.6,1.1,0.8,1.8"/>
	<path class="st17" d="M160.7,526.6v0.1h0.1l0.2,0.1h0.1h0.1h0.1l0,0"/>
	<path class="st17" d="M162.3,525.9c0.5-0.3,1-0.5,1.5-0.8"/>
	<path class="st17" d="M164.9,524.7c0.5-0.5,1.1-0.5,1.7-0.8"/>
	<path class="st17" d="M167.2,523.6l0.2-0.1l0.2-0.1l0.1-0.1l0,0"/>
	<path class="st17" d="M155.3,512.1c0.6,0.4,1.1,0.9,1.7,1.3"/>
	<path class="st17" d="M158.2,514.3c0.5,0.5,1.4,1.1,2,1.4"/>
	<path class="st17" d="M161.3,516.7c0.5,0.5,1.3,0.9,1.8,1.4"/>
	<path class="st17" d="M164.2,519.3c0.5,0.5,1.2,1,1.7,1.5"/>
	<path class="st17" d="M166.8,521.3c0,0.3,0.9,0.8,1.2,1.1"/>
	<path class="st17" d="M154.4,512.8c0.3-0.3,0.1-0.1,0.2-0.7"/>
	<path class="st17" d="M124,497.5c0.2-0.2,0.3-0.3,0.5-0.5"/>
	<path class="st17" d="M125.3,495.4c0.2-0.4,0.4-0.8,0.5-1.3"/>
	<path class="st17" d="M126.3,492.1l0.1-0.5v-0.2l0.2-0.5l0,0"/>
	<path class="st17" d="M127,488.4V488v-0.4v-0.5l0,0"/>
	<path class="st17" d="M127.2,484.7c0-0.6,0-1.1-0.1-1.7"/>
	<path class="st17" d="M127.5,480.5c0.1-0.6,0.2-1,0.5-1.4"/>
	<path class="st17" d="M129.4,478.3c0,0,1.4-0.8,1.9-0.9"/>
	<path class="st17" d="M133.6,476.9c0.7,0,1.4,0,2.1,0"/>
	<path class="st17" d="M137.8,476.6c0.7,0,1.4,0,2.1,0"/>
	<path class="st17" d="M141.7,476.5c0.6,0,1.3,0.1,1.9,0.1"/>
	<path class="st17" d="M145.8,476.9c0.8,0,1.3,0.2,1.9,0.6"/>
	<path class="st17" d="M149.6,478.5c0.6,0.3,1,0.8,1.4,1.3"/>
	<path class="st17" d="M151.8,480.4c0.6,0.6,0.9,1.3,1.4,2"/>
	<path class="st17" d="M153.8,483.8c0,0.7,0.1,1.4,0.1,2.2"/>
	<path class="st17" d="M154.5,487.7c0,0.8-0.1,1.4-0.3,2.1"/>
	<path class="st17" d="M153.8,491.9c-0.3,0.8-1,1.6-1.2,2.4"/>
	<path class="st17" d="M152,495.4c0,0.8-0.6,1-0.9,1.6"/>
</g>
<g id="shoes_copy" vectornator:layerName="shoes copy">
	<path class="st9" d="M175.2,617.7c0-1.3,0-0.9,0.3-2.8c0.2-1.6,0.6-3.1,0.8-4.7c0.1-0.5,0.7-7.6,1.1-7.8c1.1-0.4,0.6,2.2,0.7,2.5
		c0.5,2.2,1.5,3.8,1.5,6.2"/>
	<g>
		<path class="st8" d="M237.3,490.9c0-0.1-0.9,1.3-1.1,1.7c-0.6,1.2-1.2,3-1.2,4.3c0,1.6-0.1,3.8-0.5,5.4c-0.6,2.5,0.3,5.6,0.3,8.2
			c0,4-1.6,7.7-2.5,11.5c-0.6,2.2,0.1,4.8-0.4,7c-0.8,3-1.9,6.1-1.1,9.4c0.6,2.3-1.4,5.7,0,7.8c0.7,1.1,2.2,2.2,3.2,3.2
			c1.2,1.2,4.2,2,5.9,2.4c3.4,0.8,7,1.5,10.5,2.4c3.8,0.9,7.9,0.4,11.7,1.3c3.7,0.9,7.2,2.3,10.9,3.2c1.4,0.3,3.2,1.5,4.3,2.3
			c1.5,1.2,5.5,2.5,7.5,2.9c1,0.3,1.6,1.1,2.5,1.3c4.2,1.1,8.8,0.8,13,1.9c1.7,0.4,3.7-0.1,5.5,0.3c4.9,1,10.8,1.2,15.8,0.4
			c1.5-0.2,3,0.3,4.6,0c1.3-0.3,2.8,0.2,4.2-0.1c3.9-1,7.8-2.1,11.7-3.1c3.7-0.9,7-0.9,9.6-4.2c0.6-0.7,0.6-1.8,0.9-2.5
			c2.7-5.3-1.1-10.7-2.4-15.8c-0.5-1.9-1.8-5.1-3.8-6c-4-2-7.6-4.9-12.1-6c-3.4-0.8-6.8-1-10.2-1.9c-0.8-0.2-2,0-2.7-0.5
			c-2.1-1.6-3.9-3.5-6-5.2c-0.8-0.7-1.1-1.7-2-2.4c-1.1-0.8-2.4-1.6-3.4-2.5c-0.7-0.7-1.3-1.7-2.1-2.3c-2.6-2-5.1-3.9-7.8-5.9
			c-1.5-1.1-3.2-1.7-4.6-3.1c-0.6-0.6-1.6-0.5-2.1-1.1c-0.9-0.9-1.8-2.2-2.8-2.9c-1.2-0.9-2.9-1.4-4-2.5c-3.5-3.5-3.2-6.4-4.3-10.7
			c-0.9-3.5,0.9-6.7-2-9.6c-0.8-0.8-1.3-1.6-2.5-1.9c-4.1-1-16.5-1.9-20,0.9c-0.3,0.3-0.8,0.7-1.1,0.8c-1.2,0.7-1.7,1.5-2.5,2.1
			c-0.4,0.2-0.4,0.8-0.8,1.2c-0.2,0.2-1.1,4-1.3,5.4c-0.1,1.7,0.1,3.5,0.2,3.7c0.8,3,1.1,4.3,2.8,6.3c2.2,2.7-4.6,3.2-5.6,4.2
			c-0.9,0.9-3.9,0.4-6.3-1c-1.4-0.8-2.4-2.7-3-2.6C237.6,499,236.8,493.2,237.3,490.9z"/>
		<path class="st10" d="M351.4,548c-0.8,0.5-2,0.8-2.9,1.1c-2,0.6-3.6,2.5-5.6,3.1c-1.3,0.4-2.7,0.3-4,0.7
			c-6.8,2.5-14.9,3.8-22.1,2.9c-1.5-0.2-8.6,0.3-9.3-0.7"/>
		<path class="st10" d="M307.8,555c-1.2,0.1-2.1,0.1-3.2,0.5c-4.2,1.5-4.7,5.6-10.3,4.9c-3.8-0.5-7-1.8-10.1-3.5
			c-1-0.5-2.4-0.5-3.3-1.2c-0.7-0.6-3.7-2.7-4.7-2.6"/>
		<path class="st10" d="M278.3,553.7c-3.4,0-3.7-4.6-4.2-7.1c-0.6-3.1-3.7-5-6.5-5.5c-4.2-0.8-5.5,2.6-8,5.1
			c-1.7,1.7-4.5,2.2-6.2,3.8c-1.4,1.4-1,2.8-0.3,4.3"/>
		<path class="st10" d="M252.4,550.9c-1.9-1-3.4-0.8-5.4-1.2c-2-0.4-3.8-1.2-5.8-1.5c-1.1-0.2-2.5-0.1-3.4-0.8
			c-1.9-1.4-4.9-5-5.8-7.2c-0.3-0.9-0.4-1.8-0.8-2.6"/>
		<path class="st10" d="M262.4,543.2c-1.3,0.7-6.6-2-8.3-2.3c-6.7-1.1-12.5-5.2-18.2-8.6c-1.4-0.8-3-1.5-4.2-2.6"/>
		<path class="st10" d="M257.8,546.9c-2.6,0.9-6.4-1-8.6-2.2c-2.4-1.2-5.6-2-8.2-2.5c-1.6-0.3-3.1-1.3-4.6-1.8c-2-0.7-5.5-1.3-5.5-4
			"/>
		<path class="st10" d="M301.5,557.1c-4.1-4.1-8.8-6.1-14.5-7.1c-4-0.7-8.4,1.5-12.3-0.5"/>
		<path class="st10" d="M347.2,537.7c-0.8,1.7-6.3,3.8-8.1,4.3c-6.5,1.8-12.8,3.4-19.6,3.4c-2.8,0-5.7,0-8.5-0.5
			c-3.1-0.6-6.2-2.1-9.5-1.6c-4.4,0.6-8.7,2.9-13.3,2.2c-2-0.3-5.4-2.1-6.8-3.6c-1.7-1.7-2.3-4.4-4.5-5.8c-7.2-4.3-14.4,2-20.5,5"/>
		<path class="st10" d="M352.3,549.8c-1.1,0.6-3.1,2-4.3,2"/>
		<path class="st10" d="M345.6,552.5c-1.5,0.6-2.9,1.2-4.5,1.6"/>
		<path class="st10" d="M338.6,555.4c-1.8,0.2-3.5,1.3-5.2,1.3"/>
		<path class="st10" d="M327.5,557.3c0.7,0,1.4,0,2.2,0c0.4,0-0.7,0-1.1,0c-0.2,0-0.5,0-0.7,0c-0.3,0-0.6,0-0.9,0
			c-0.2,0-0.7,0.2-0.5,0.2C326.7,557.5,327.1,557.4,327.5,557.3z"/>
		<path class="st10" d="M322.2,558.2h-0.7h-1.8h-0.9l0,0"/>
		<path class="st10" d="M315,558.2c-1.9,0-1.8,0.1-3.6-0.7"/>
		<path class="st10" d="M353,554.8c-0.8,1.6-7,2.4-8.5,2.9c-3,1-5.9,2-9.2,2.5c-3.8,0.6-7.9-0.3-11.7,0.4c-3.1,0.5-6.3,0.6-9.4,1.1
			c-3.8,0.5-5.2,4.7-9.2,4.7"/>
		<path class="st10" d="M305.1,566c-0.1-0.4,0.9,1.3,0.5,1.3c-0.8,0-0.2-3.1-0.4-3.1C304.6,564.2,305.4,567.1,305.1,566z"/>
		<path class="st10" d="M296.6,564.4c0.8-2-0.1,1.7,0.3,2c0.1,0.1,0-3.3,0-3.2c-0.1,0.3,0.2,3.3,0.5,2.9c0.3-0.3-0.4-0.8-0.4-1.3
			c0-0.1,0.1-1.1-0.2-1.1c-0.1,0,0.2,2.5,0.2,2.2c0-0.8-0.5-1.6-0.5-2.5c0-0.2,0-0.5,0-0.5v2.9c0,0,0.3-1.6-0.2-2.2
			c-0.5-0.5-0.6,2.5-0.2,2C296.4,565.1,296.5,564.7,296.6,564.4z"/>
		<path class="st10" d="M276.1,558.3c-0.1-0.3-0.4-0.9-0.6-0.6c-0.4,0.5-0.2,2.2,0.2,1.8c0.3-0.3-0.1-0.7-0.2-0.9
			c-0.1-0.8-0.2-2.3-0.2-2.3s0,2,0.4,2.9c0.1,0.3,0.5,1,0.5,0.7C276.3,559.4,276.3,558.8,276.1,558.3z"/>
		<path class="st10" d="M252.8,553c0-0.4,0.1-0.9-0.2-1.3c-0.2-0.4-0.3,0.8-0.2,1.3c0.1,0.4,1.1,0.9,0.7,0.9c-1,0-0.7-2.9-0.7-2.9
			s-0.7,3.6,0.2,3.1C252.9,553.9,252.8,553.4,252.8,553z"/>
		<path class="st10" d="M241.7,551.3c0.1-0.1,0.2,0.4,0.2,0.4s0.5-2-0.2-2C241.6,549.8,241.1,551.6,241.7,551.3z"/>
		<path class="st10" d="M348.4,538.4l-0.2,0.4l-0.2,0.4l-0.8,0.8l0,0"/>
		<path class="st10" d="M345.6,540.7c-0.7,0.4-1.7,0.6-2.4,0.8"/>
		<path class="st10" d="M341.2,542.5c-0.8,0.6-1.7,0.3-2.5,0.7"/>
		<path class="st10" d="M336.6,544.5c-0.8,0.1-1.7,0.2-2.5,0.2"/>
		<path class="st10" d="M331.4,545.7c-0.9,0-0.3,0-1.8,0.1"/>
		<path class="st10" d="M327.3,546.6c-1,0-0.4,0-1.7-0.1"/>
		<path class="st10" d="M323,547h-0.8l-0.4-0.1l-0.7-0.1l0,0"/>
		<path class="st10" d="M319.3,547h-0.4h-0.5l-0.8-0.1l0,0"/>
		<path class="st10" d="M315.6,547.2L315,547l-0.7-0.2l-0.8-0.4l0,0"/>
		<path class="st10" d="M311.8,546.4c-0.8-0.3-0.2-0.1-1.6-0.5"/>
		<path class="st10" d="M308.7,545.7c-0.8-0.4-0.3-0.2-1.3-0.6"/>
		<path class="st10" d="M305.4,544.9l-0.7-0.2l-0.5-0.1l-1.1-0.1l0,0"/>
		<path class="st10" d="M301.4,545.1h-0.5h-0.4l-0.7,0.1l0,0"/>
		<path class="st10" d="M296.5,546.1c-0.3,0.2-0.1,0.1-0.6,0.1"/>
		<path class="st10" d="M294,546.4c-0.9,0.1-1.6,0.1-2.5,0.1"/>
		<path class="st10" d="M290.2,546.4l0.2,0.1h-0.4l-0.4,0.1H289h-0.4l-0.5-0.1l0,0"/>
		<path class="st10" d="M286.3,546.2h-0.5l-0.2-0.1l-0.8-0.4l0,0"/>
		<path class="st10" d="M283.5,545c-0.7-0.3-1.5-0.9-2-1.4"/>
		<path class="st10" d="M280.7,543.4l-0.1-0.2l-0.6-0.8l-0.4-0.5l-0.2-0.2l0,0"/>
		<path class="st10" d="M278.5,540.3c-0.4-0.7-1-1.3-1.4-1.9"/>
		<path class="st10" d="M276.1,537.3l-0.4-0.4l-0.2-0.2l-0.5-0.1l0,0"/>
		<path class="st10" d="M272.2,536.4l-0.4-0.1l-0.4-0.1h-1l0,0"/>
		<path class="st10" d="M267.4,536.8c-0.9,0-0.3-0.1-1.7,0.5"/>
		<path class="st10" d="M264.2,538.2c-0.6,0-1.2,0.5-1.7,0.8"/>
		<path class="st10" d="M259.9,540.4c-0.2,0.1-0.3,0.2-0.5,0.2"/>
		<path class="st10" d="M261.3,539.6c-0.1,0-0.2,0.1-0.4,0.1"/>
		<path class="st10" d="M348.9,539.8l-0.4,0.4l-0.2,0.1l-0.8,0.6l0,0"/>
		<path class="st10" d="M346.4,541.6c-0.7,0.5-0.2,0.2-1.4,0.7"/>
		<path class="st10" d="M342.9,543.1c-0.6,0.4-0.2,0.2-1.2,0.5"/>
		<path class="st10" d="M338.8,544.8c-0.8,0.2-0.3,0.1-1.3,0.5"/>
		<path class="st10" d="M335.8,546l-1,0.1h-0.4l-0.8,0.1l0,0"/>
		<path class="st10" d="M332.1,546.8h-0.4l-1.1,0.2l-0.4,0.1l0,0"/>
		<path class="st10" d="M327.8,547.8c-0.2,0.5,0,0.2-1,0.2"/>
		<path class="st10" d="M324.9,548.4l-0.4,0.1h-0.4h-1.1l0,0"/>
		<path class="st10" d="M321.3,548.8c-0.6-0.1-0.3-0.1-0.8-0.2"/>
		<path class="st10" d="M318.1,548.4c-0.5-0.2-0.2-0.1-0.8-0.2"/>
		<path class="st10" d="M316,548.2h-0.4l-0.5-0.2l-0.2-0.1l0,0"/>
		<path class="st10" d="M313.1,547.9c-0.2,0-0.3-0.1-0.5-0.1"/>
		<path class="st10" d="M311.3,547.6c-1.2-0.8-2.7-0.6-4-1.2"/>
		<path class="st10" d="M306.3,546.6c-0.7-0.2-0.3-0.1-1.1-0.1"/>
		<path class="st10" d="M303.2,546.6c-0.2,0-0.3,0-0.5,0"/>
		<path class="st10" d="M301.1,546.7h-0.4h-0.6h-0.4h-0.4l0,0"/>
		<path class="st10" d="M297.1,546.9l-0.2,0.1h-0.4h-0.5l0,0"/>
		<path class="st10" d="M294.5,547.4l-0.2,0.1l-0.7,0.1h-0.5l0,0"/>
		<path class="st10" d="M291.9,547.9h-0.5l-0.4-0.1h-0.4l0,0"/>
		<path class="st10" d="M289.2,547.8c-0.6,0-0.2,0-1.2-0.1"/>
		<path class="st10" d="M286.8,547.8h-0.4h-0.4h-0.4l0,0"/>
		<path class="st10" d="M284.5,547.4c-0.6-0.4-0.2-0.2-1.1-0.5"/>
		<path class="st10" d="M282.6,546.6l-0.1-0.2l-0.4-0.2l-0.4-0.1l0,0"/>
		<path class="st10" d="M280.6,544.6v-0.4l-0.7-0.8l-0.2-0.2l-0.4-0.5l0,0"/>
		<path class="st10" d="M277.9,541.6l0.1-0.2l-0.2-0.1l-0.6-0.4l0,0"/>
		<path class="st10" d="M276.4,540.2v-0.5l-0.1-0.2l-0.1-0.2l-0.2-0.2l0,0"/>
		<path class="st10" d="M275.2,538.6c-0.4-0.4-0.1-0.2-0.7-0.5"/>
		<path class="st10" d="M273,537.9c-0.2-0.3,0-0.2-0.4-0.4"/>
		<path class="st10" d="M271.1,537.7c-0.5,0.2-0.2,0.1-0.7,0.1"/>
		<path class="st10" d="M268.7,537.8c-0.2,0.2-3.9,1.4-4.4,1.6"/>
		<path class="st10" d="M262.8,539.7l-0.2,0.1l-0.2,0.2l-0.2,0.2l0,0"/>
		<path class="st10" d="M261.1,541.3c-0.2,0.6,0,0.3-0.8,0.7"/>
		<path class="st10" d="M321.2,528.2c-2.2,2.2-5.2,3.1-8,4.2c-6.5,2.6-15.3,5.2-21.6,0.5c-1.3-1-3.4-1.7-4.3-3
			c-1.1-1.4-2.8-4.5-4.6-4.8c-3.4-0.7-8.8,4.2-12.5,4.8c-6.1,1-12.8,0-18.4-2.3c-2.9-1.2-5.4-3.4-8.2-4.6c-3.4-1.4-5.8-3.6-8.6-5.8
			c-0.4-0.3-1.4-1-1.7-1.4"/>
		<path class="st10" d="M297.5,534.4c-1.6-0.8-2-4.9-1.7-6.6c0.1-0.4,0.5-1.6,0.3-2c-0.5-0.9-2.6-1.9-3.4-2.7
			c-3.9-3.9-8.9-6.5-12.8-10.3c-2-2-4.5-4.4-6.3-6.7c-2.3-3.1-4.1-7.2-7.2-9.5c-5.4-4.1-9,1.7-13,4.2c-1.9,1.1-5,1.7-7.2,1.3
			c-3.7-0.7-6.4-4-8.6-6.9c-0.6-0.8-1-3.4-1.7-3.7"/>
		<path class="st10" d="M296,533.4l-0.6-0.4l-0.3-0.3l-0.4-0.9l0,0"/>
		<path class="st10" d="M294.7,530l-0.1-0.6l0.3-1.3v-0.4l0,0"/>
		<path class="st10" d="M293.4,525.5c0.3,0.1,1.1,0.5,0.9,0.4c-0.4-0.2-0.9-0.4-1.3-0.6C292.9,525.2,293.3,525.4,293.4,525.5z"/>
		<path class="st10" d="M291,523.7c-0.8-0.8-1.6-1.5-2.6-2"/>
		<path class="st10" d="M286.1,519.9c0.2,0.2,1,0.9,0.7,0.6c-0.4-0.3-0.8-0.7-1.1-1C285.6,519.4,286,519.8,286.1,519.9z"/>
		<path class="st10" d="M283.1,517.2l-0.6-0.4l-0.1-0.3l-1.1-1.1l0,0"/>
		<path class="st10" d="M279.5,514.1c-1-0.6-1.4-1.6-2.3-2.3"/>
		<path class="st10" d="M275.7,510.5l-0.4-0.3l-0.3-0.3l-0.1-0.3l-0.4-0.6l0,0"/>
		<path class="st10" d="M272.9,507.5l-0.3-0.1l-0.4-1.1l-0.3-0.4l0,0"/>
		<path class="st10" d="M271.1,504.6l-0.1-0.3h-0.4l-0.3-0.4l-0.1-0.3l-0.1-0.3l0,0"/>
		<path class="st10" d="M268.6,501.3c-0.7-0.7-1.6-2.1-2-3"/>
		<path class="st10" d="M265.6,497c-1.1-0.3-0.7-0.3-1.4-0.3"/>
		<path class="st10" d="M261.9,496.5h-0.6l-0.4,0.1l-0.7,0.1l0,0"/>
		<path class="st10" d="M258.7,498.3c-0.5,0.5-1,1-1.4,1.6"/>
		<path class="st10" d="M255.2,501.2c-0.5,0.7-0.1,0.3-1.1,1"/>
		<path class="st10" d="M251.1,503.2l-1.3,0.3l-0.3,0.1l-1,0.1l0,0"/>
		<path class="st10" d="M246.4,503.2l-0.6-0.1l-0.4-0.1l-1.4-0.3l0,0"/>
		<path class="st10" d="M241.7,501.5c-0.8-0.8-0.3-0.3-1.6-1.4"/>
		<path class="st10" d="M238.7,499.3l-0.3-0.3l-0.3-0.3l-0.9-1l0,0"/>
		<path class="st10" d="M236.5,496.5c0-0.8,0.1-0.3-0.6-1.4"/>
		<path class="st10" d="M294.9,533.2l-0.4-0.4l-0.4-0.4l-0.4-0.6l0,0"/>
		<path class="st10" d="M293.6,529.6c0-0.5,0-1,0-1.4"/>
		<path class="st10" d="M293.2,527.6l-0.1-0.4l-0.3-0.3l-1-1.1l0,0"/>
		<path class="st10" d="M290.4,524.8c-0.8-0.6-0.3-0.2-1.7-1"/>
		<path class="st10" d="M286.6,522.3c-1-1-1.5-1.4-2.6-2.6"/>
		<path class="st10" d="M282.1,518.7c-1.1-0.6-1.8-1.4-2.6-2.4"/>
		<path class="st10" d="M277.4,513.8c-1-0.6-1.9-1.7-2.9-2.2"/>
		<path class="st10" d="M272.8,509.9c-0.6-0.8-1.1-1.7-1.6-2.6"/>
		<path class="st10" d="M269.8,505.6l-0.4-0.4l-0.1-0.3l-0.7-0.9l0,0"/>
		<path class="st10" d="M266.8,501.6c-0.5-0.5-0.2-0.2-0.7-1.1"/>
		<path class="st10" d="M264.8,498.9l-0.3-0.1l-0.9-0.4l-0.3-0.3l-0.3-0.1l0,0"/>
		<path class="st10" d="M261.8,497.7c-0.2,0.4-0.1,0.2-0.6,0.6"/>
		<path class="st10" d="M260.2,499.7c-0.3,0.6-0.1,0.2-1,1"/>
		<path class="st10" d="M257.6,501.5c0,0.8,0.1,0.4-1.1,0.9"/>
		<path class="st10" d="M254.7,503l-0.1,0.4l-1,0.4H253h-0.4l0,0"/>
		<path class="st10" d="M249.4,504.9c-1.4,0-2.9-0.4-4.2-1"/>
		<path class="st10" d="M242.7,504.2c-0.9-0.6-1.8-1.2-2.6-1.9"/>
		<path class="st10" d="M237.7,501.2c-0.7-1.1-0.2-0.5-1.4-1.7"/>
		<path class="st10" d="M235.9,498.9c-0.1-0.3-0.2-0.7-0.3-1"/>
		<path class="st10" d="M322.9,528.5c-0.8,0.6-1.6,1.2-2.4,1.7"/>
		<path class="st10" d="M319.4,531.1c-0.8,1.3-1.4,1.1-3.1,1.9"/>
		<path class="st10" d="M313.2,533.9c-1.2,0.3-2.3,0.8-3.5,1.2"/>
		<path class="st10" d="M304.9,536c-1,0-1.8,0.5-2.7,0.5"/>
		<path class="st10" d="M298.2,537c-1.2-0.4-2.3-0.6-3.6-0.9"/>
		<path class="st10" d="M292.1,535.2c-0.8-0.4-1.5-0.9-2.2-1.4"/>
		<path class="st10" d="M287.6,532.6c-0.8-1-1.1-1.4-2.1-2.5"/>
		<path class="st10" d="M284.3,529l-0.4-0.4l-0.2-0.4l-0.4-0.5l0,0"/>
		<path class="st10" d="M282.3,526.9c-0.1-0.1-0.2-0.2-0.2-0.2"/>
		<path class="st10" d="M281.2,526.4c-1.8,0.2-2.1,0.3-4,1.1"/>
		<path class="st10" d="M276.5,528.6c-1.1,0.5-2.4,0.9-3.2,1.7"/>
		<path class="st10" d="M270.1,531.1c-1.1,0.5-2.1,0.6-3.2,0.7"/>
		<path class="st10" d="M263.3,531.6c-0.9,0.3-2.1-0.4-2.9-0.6"/>
		<path class="st10" d="M257.2,530.4c-0.7-0.2-1.3-0.5-2-0.9"/>
		<path class="st10" d="M252,528.6c-1-0.2-0.5,0-1.6-0.9"/>
		<path class="st10" d="M247,526.5c-0.6-0.2-1-0.7-1.5-1.1"/>
		<path class="st10" d="M242.9,524c-0.8-0.4-1.7-0.8-2.5-1.2"/>
		<path class="st10" d="M239.1,521.9h-0.4l-1-0.7l-0.5-0.4l0,0"/>
		<path class="st10" d="M234.7,519.1c-0.4-0.6-0.2-0.3-0.9-1.1"/>
		<path class="st10" d="M325,529.3c-0.7,0.6-1.3,1.2-2,1.7"/>
		<path class="st10" d="M321.4,531.7c-0.8,0.5-1.5,1-2.4,1.4"/>
		<path class="st10" d="M315.8,534.6l-0.6,0.2l-0.4,0.1l-0.2,0.2l-1,0.4l0,0"/>
		<path class="st10" d="M309.6,536.5c-0.8,0.4-1.6,0.6-2.5,0.6"/>
		<path class="st10" d="M304.2,537.8h-0.4h-0.4h-1.1h-0.4l0,0"/>
		<path class="st10" d="M298.6,538.3h-0.5h-1h-0.4l-0.5-0.1l0,0"/>
		<path class="st10" d="M294,538.2c-0.9-0.9-2.2-1.1-3.4-1.5"/>
		<path class="st10" d="M288.5,535.3c-0.3-1-1.8-1.8-2.7-2.4"/>
		<path class="st10" d="M284.5,532l-0.2-0.2l-1.1-1l-0.4-0.5l0,0"/>
		<path class="st10" d="M281.9,529.1c-0.3-0.6,0-0.2-1.1-0.5"/>
		<path class="st10" d="M278.1,529c-0.7,0.6-1.4,0.9-2.2,1.4"/>
		<path class="st10" d="M273,531.2c-0.4,0.9-1.7,0.7-2.6,0.9"/>
		<path class="st10" d="M267.6,532.9c-1.1,0-2.1,0.2-3.2,0.2"/>
		<path class="st10" d="M261.6,533.1c-1.1,0.5-3.7-0.9-5-1.4"/>
		<path class="st10" d="M255,531.1c-0.8,0.4-2.6-0.7-3.6-1"/>
		<path class="st10" d="M249.3,529.3c-0.8-0.4-1.5-0.7-2.2-1.1"/>
		<path class="st10" d="M244.5,526.4c-1,0-1.7-0.7-2.6-1.1"/>
		<path class="st10" d="M239.8,523.9c-0.9-0.2-0.3,0-1.6-0.7"/>
		<path class="st10" d="M236.5,522.3l-0.2-0.1l-0.1-0.2l-0.5-0.4l-0.4-0.2l-0.2-0.2l0,0"/>
		<path class="st10" d="M234.2,520.3c-0.1-0.1-0.2-0.2-0.2-0.2"/>
		<path class="st10" d="M264.7,529.6c3.5,0,10.5-4,9.7-8.2c-0.6-3-4.1-5.4-6.2-7.5c-3.2-3.2-7.1-7.3-12.2-6.3
			c-0.6,0.1-1.2,0.6-1.9,0.7c-0.7,0.1-1.8,0.4-2.4,0.9c-1.5,1.1-2.8,2.5-4.1,3.8c-2.7,2.7-3.6,7.3-1.9,10.8"/>
		<path class="st10" d="M273.7,523.8c-1.6-2.4-4-4.2-6.2-6c-0.9-0.7-1.3-1.8-2.1-2.6c-1.1-1.1-2.7-1.8-3.8-3c-1.5-1.5-3.1-3.1-5-4.1
			"/>
		<path class="st10" d="M272.1,525.7c-0.9-1.4-2.5-2.3-3.7-3.4c-1.9-1.5-3.5-3.4-5.5-5c-1.1-0.9-1.9-2.1-2.9-3.1
			c-1.2-1.2-2.8-2.1-4.1-3.4c-0.5-0.5-0.9-1.2-1.6-1.6"/>
		<path class="st10" d="M269.9,527.4c-2.3-0.6-3.6-3.5-5.2-5c-4.3-3.9-8.6-9-13.8-11.6"/>
		<path class="st10" d="M266.2,528.9c-2.4-3.6-6.7-7.2-9.7-10.2c-1.7-1.7-4.7-5.6-6.8-6.3"/>
		<path class="st10" d="M264.2,529.4c-2.1-1-3-2.7-4.6-4.1c-4.2-3.5-7.9-7.8-12.4-10.8"/>
		<path class="st10" d="M259.8,529c-2.1-1.4-3.3-3-5-4.7c-0.9-0.9-2.3-1.4-3.1-2.5c-1.7-2.1-3.4-4-5.8-5.2"/>
		<path class="st10" d="M254.1,527.6c-2-1-2.9-3-4.6-4.2c-0.8-0.6-1.7-1.1-2.4-1.7c-0.5-0.5-0.7-1-1.4-1.4"/>
		<path class="st10" d="M274.1,520.3c-2,2-4.3,3-6.3,4.8c-0.6,0.6-1.2,1.5-2,2c-1,0.6-3.8,1.5-4.3,2.6"/>
		<path class="st10" d="M271.9,518.1c-3.3,2.8-7.4,4.8-10.7,7.7c-0.5,0.4-5.4,3.9-5.1,2.9"/>
		<path class="st10" d="M269.6,515c-5.9,3.7-11.1,8.5-16.9,12.3"/>
		<path class="st10" d="M266.3,513.1c-4.1,2.7-8.3,5.2-12.3,7.9c-1.4,1-2.9,2.2-4.3,3.1c-0.3,0.2-2.1,1.4-1.9,0.9"/>
		<path class="st10" d="M263.9,510.1c-4.5,2.3-8.1,5.2-12,8.2c-1.4,1-2.5,2.2-4,3.1c-0.3,0.2-2.1,1.5-1.9,1"/>
		<path class="st10" d="M260.3,508.8c0.4-0.8-3.6,1.8-4.1,2.2c-1.3,1.1-2.8,1.8-4.1,2.9c-1.2,0.9-2,2.2-3.2,3
			c-0.7,0.4-3.2,1.9-3.2,1.9"/>
		<path class="st10" d="M257.1,507.4c-1.1,1.1-2.6,1.6-3.9,2.6c-2.4,1.9-4.7,4.7-7.5,6.1"/>
		<path class="st8" d="M277.8,481.1c-3.6,0-7.1,0.1-10.7,0.1c-1,0-3.1,0-3.6,1.1c-0.3,0.8-0.1,1.6-0.2,2.4c-0.3,2-0.2,4.2-0.2,6.3
			c0,0.9,0.1,1.8,0.1,2.8c0,0.2,0,1.2-0.1,1"/>
		<path class="st8" d="M278.3,481.2c0,4.1-0.7,8.5,0,12.5c0.2,1.3,0.8,4.4,0.6,5.6c-0.2,1.1-5.2,2.1-6.1,2.2c-0.4,0.1-1.9,0.4-1.9,0
			"/>
		<path class="st8" d="M271,501.6c-0.6-0.3-0.9-1.5-1.5-1.8"/>
		<path class="st8" d="M277.3,482.7c-0.1,0.4-0.1,0.8-0.1,1.3"/>
		<path class="st8" d="M276.8,485.5c0,0.5,0,1.1,0,1.6"/>
		<path class="st8" d="M276.7,488.9c0,0.4,0,0.9,0,1.3"/>
		<path class="st8" d="M276.9,491.9c0.2,0.4,0.1,1.2,0.1,1.7"/>
		<path class="st8" d="M277.3,495.2c0.2,0.2,0.3,1.2,0.3,1.6"/>
		<path class="st8" d="M277.8,498l0.1,0.1v0.2l0.1,0.1l0.1,0.2l0.1,0.2l0,0"/>
		<path class="st8" d="M277.1,499.6h-0.3l-0.4,0.1l-0.3,0.1l-0.3,0.1l0,0"/>
		<path class="st8" d="M274.8,500c-0.3,0.3-0.9,0.3-1.2,0.4"/>
		<path class="st8" d="M272.1,500.7l-0.3,0.1h-0.3h-0.2l0,0"/>
		<path class="st8" d="M276.2,482.5c-0.5-0.1-0.9,0.1-1.4,0.1"/>
		<path class="st8" d="M273.4,482.5c-0.6,0-0.3,0-1,0.1"/>
		<path class="st8" d="M270.5,482.7c-0.5,0-1,0-1.5,0"/>
		<path class="st8" d="M267.8,482.6c-0.4,0-1.1,0.1-1.5-0.1"/>
		<path class="st8" d="M265.2,482.7c-0.2,0.1-0.1,0.1-0.3,0"/>
		<path class="st8" d="M264.5,483.7c0,0.6-0.2,1.2,0,1.8"/>
		<path class="st8" d="M264.1,487.4c0,0.7,0.1,1.2,0.3,1.9"/>
		<path class="st8" d="M264.3,490.4c0,0.5,0,1.1,0,1.6"/>
		<path class="st8" d="M264.3,493.2v0.2v0.3v0.2v0.2v0.2l0,0"/>
		<path class="st10" d="M286.1,499.2c0,1-2.6,2-3.5,2.4c-3.7,1.9-6.5,2-10.6,2"/>
		<path class="st10" d="M286,500.7c-0.7-0.3,0.9,0.8,1,0.9c0.8,0.8,1.3,2,2.3,2.6c1.7,1,2.9,2.4,4.5,3.7c0.9,0.8,2.2,0.9,3.1,1.8
			c1.8,1.8,3.9,2.4,6,3.8c3,2,5.8,4.4,8.5,6.8c2.7,2.4,5.1,6.6,8.3,8.2"/>
		<path class="st10" d="M284.5,501.2c1.5,1.8,3.8,4.8,5.8,6.3c0.6,0.4,1.4,0.8,1.9,1.3c0.9,0.9,1.4,2,2.4,2.8c2,1.6,4.4,2.8,6.5,4.1
			c2.2,1.4,4.4,3.4,6.4,5c1.4,1.1,2.4,2.7,3.7,4c0.7,0.7,1.7,1.2,2.3,2c0.7,1.1,1.7,2.9,2.9,3.5"/>
		<path class="st10" d="M283.4,502.2c3.5,3.5,6.4,8.3,10.4,11.4c1.9,1.5,3.8,3.4,5.8,4.9c1.2,0.9,2.8,1.6,3.8,2.7
			c0.8,0.9,1.3,1.9,2.2,2.7c1.5,1.5,7.2,5.6,7.2,7.6"/>
		<path class="st10" d="M281.9,502.9c1.7,3,4.5,6,6.8,8.7c1,1.2,2.5,2,3.6,3.2c0.8,0.9,1.2,2.1,2.2,2.9c1.1,1,2.6,1.8,3.6,2.9
			c0.8,1,1.4,2,2.4,2.8c1.1,0.9,2.3,1.4,3.2,2.6c0.6,0.8,1,1.8,1.8,2.4c1.5,1.2,3,2.1,3.8,3.8"/>
		<path class="st10" d="M279.5,503.5c1.5,1.5,2.4,3.5,3.7,5.1c2.8,3.6,6.2,6.8,9.1,10.3c1.4,1.6,2.2,3.7,4,5
			c2.4,1.8,4.3,4.7,6.3,6.9c0.5,0.6,2.7,3.6,2.1,3.2"/>
		<path class="st10" d="M277.2,504c2.1,3.1,4.5,6.1,6.5,9.2c1.5,2.3,4,4.1,5.3,6.7"/>
		<path class="st10" d="M297.2,528c0.6,2.4,3.1,4.5,4.2,6.8"/>
		<path class="st10" d="M319.5,526.7c0,1.1-2.8,1.9-3.7,2.3c-1.4,0.6-2.5,1.5-4,1.9c-3.3,1-6.8,1.2-10.3,1.5
			c-0.7,0.1-4.3,0.8-4.6,0.3"/>
		<path class="st10" d="M312.7,530.9v0.3l0.3,0.3v0.3v0.3v0.3v-0.4l0,0"/>
		<path class="st10" d="M309.3,531.8l0.1,0.3l0.3,0.6l0.1,0.3l0.1,0.3l0,0"/>
		<path class="st10" d="M304.9,533.6c0.1,0.3,0.3,0.5,0.4,0.8"/>
		<path class="st10" d="M316.5,529.9l0.3,0.3l0.3,0.3h0.3l0,0"/>
		<path class="st10" d="M317.9,525c0.6,0-1.4,1.1-1.7,1.3c-1.5,1-2.6,1.8-4.5,2.2c-4.2,0.8-8.2,1.6-12.4,2.2
			c-0.9,0.1-1.8,0.3-2.7-0.1"/>
		<path class="st10" d="M315.7,523.3c1.1-0.4-1.2,1.2-1.7,1.4c-1.4,0.7-2.9,1-4.4,1.7c-4.1,2.1-9.1,3.1-13.7,3.1"/>
		<path class="st10" d="M314.5,521.2c0.2-0.4-0.8,0.9-1.4,1.2c-0.9,0.4-1.9,0.8-2.8,1.2c-3.3,1.4-6.9,2-10.3,3.2
			c-0.6,0.2-2.6,1.1-2.9,0.4"/>
		<path class="st10" d="M312.5,519.5c-1.5,2-9.1,4.9-11.8,5.3c-0.6,0.1-4,0.9-4,0.5"/>
		<path class="st10" d="M310.2,518.4c0.4-0.7-0.9,0.6-1.3,0.8c-1.1,0.6-2.3,0.9-3.5,1.4c-3.2,1.5-7,3.5-10.5,3.5"/>
		<path class="st10" d="M308,515.8c0,1.1-2.8,1.6-3.7,2c-3.6,1.7-7.8,5.3-11.9,5.3"/>
		<path class="st10" d="M306.1,513.9c-4.3,1.7-8.2,5.2-12.8,6.2c-1.1,0.2-3,1.8-4.1,1.3"/>
		<path class="st10" d="M303.6,511.8c0.1,0.4-2.8,2.1-3.4,2.6c-3,2.1-6.5,3.3-10,4.2c-1,0.2-2,0.2-2.9,0.4"/>
		<path class="st10" d="M300.7,509.9c0.7,0.4-2.4,1.8-2.8,2.1c-2,1.5-4.2,2.3-6.4,3.3c-0.9,0.4-1.5,1-2.4,1.3
			c-0.5,0.2-3.3,1.4-3.5,0.7"/>
		<path class="st10" d="M297.7,508c-0.5,0.6-1.4,0.8-1.9,1.2c-2.4,1.8-4.9,3.1-7.4,4.7c-1,0.6-2.2,1-3.4,1.4c-0.3,0.1-1.8,0.2-1.4,0
			"/>
		<path class="st10" d="M295.4,506.7c-0.9,1-2.5,1.8-3.6,2.5c-3,1.9-5.5,3.4-9,4c-0.6,0.1-1.2,0.4-1.8,0.2"/>
		<path class="st10" d="M293.3,505.1c-0.8,0.6-1.7,0.8-2.6,1.3c-2.4,1.3-4.8,2.4-7.3,3.5c-0.5,0.2-4.7,1.9-5,1.4
			c-0.1-0.1,0.3-0.2,0.4-0.3"/>
		<path class="st10" d="M290.9,503.4c-3.8,1.4-7.2,3.9-11.2,5c-0.5,0.2-4.6,0.7-3.8-0.2"/>
		<path class="st10" d="M288.5,501.8c-0.3-0.3-2.1,1-2.3,1.2c-2,1.2-4.2,2.7-6.4,3.4c-1.1,0.4-2.2,0.8-3.3,0.9c-0.6,0-2.9,0-1.8-0.7
			"/>
		<path class="st10" d="M286.8,500.4c-0.4,0.3-0.9,0.4-1.4,0.7c-2.8,1.8-5.7,3.3-9,4c-0.6,0.1-3.1,1.1-3.4,0.1"/>
		<path class="st11" d="M288.4,530.3c-0.1-0.1,2.3,1.7,2.9,1.5c0.2-0.1,0.7-1.9,0.9-2.2c0.9-1.1,4.8-3,2.8-5c-1-1-5.7-3.6-7-2.3
			c-0.7,0.7-0.3,2.2-0.5,3.2c-0.1,0.6-1.8,2.2-1.8,2.2c0.2,0.6,1.4,1.4,1.8,2.1C287.7,530.1,288.6,530.5,288.4,530.3z"/>
		<path class="st11" d="M269.8,504.6c0-2.5-3.4-6.6-5.5-7.5c-0.5-0.2-2.1-1.1-2.6-0.8c-0.6,0.3-0.9,2.1-1.1,2.6
			c-0.7,2-1.7,3.9-2.4,5.9c-0.1,0.4-0.7,1-0.7,1.4c0,0.2,0.2,0.3,0.4,0.4c0.8,0.4,4.1,3.5,4.1,3.5c0.3,0,1.6-1.2,1.9-1.4
			c1-0.6,7-2.8,7.1-3.5c0.1-0.6-4.4-6.3-5.2-7.1"/>
		<path class="st12" d="M294,525.9c-0.1,0.3-0.3,0.6-0.6,0.8c-0.1,0.1-0.9-0.5-0.9-0.6c0-0.2,0.6-0.8,0.7-0.8
			C293.3,525.4,294,525.7,294,525.9z"/>
		<path class="st12" d="M292.1,524.7c-0.2,0.2-0.4,0.6-0.5,0.8c0,0-0.9-0.4-1-0.5c0-0.1,0.1-0.4,0.2-0.5c0.1-0.2,0.2-0.4,0.3-0.5
			C291.2,524.2,292.2,524.7,292.1,524.7z"/>
		<path class="st12" d="M290.1,523.8c0,0.3-0.2,0.8-0.5,1c0,0-1-0.2-1-0.4c0-0.1,0.1-0.4,0.2-0.5c0-0.1,0-0.4,0.2-0.5
			C289.2,523.3,290.1,523.6,290.1,523.8z"/>
		<path class="st12" d="M291.6,528.5c-0.3,0.1-0.4,0.7-0.6,0.9c-0.1,0-0.2-0.1-0.3-0.2c-0.1-0.1-0.4-0.1-0.5-0.3
			c-0.1-0.2,0.5-1.5,1.1-0.7C291.4,528.3,291.8,528.4,291.6,528.5z"/>
		<path class="st12" d="M290.3,527.5c-0.1,0.1-0.6,1-0.7,0.9c-1-0.3-0.9-1-0.1-1.5C289.5,526.9,290.3,527.4,290.3,527.5z"/>
		<path class="st12" d="M288.9,526.6c-0.3,0.3-0.3,0.5-0.5,0.8c-0.2,0.3-0.9-0.3-0.9-0.3c0.3-0.4,0.5-1.1,1-0.8
			C288.6,526.4,289,526.4,288.9,526.6z"/>
		<path class="st12" d="M268.4,504.5c-0.4,0.3-1.1,0.5-1.4,0.8c0,0-0.1,0.2-0.1,0.1c0,0-1.1-1.2-1.1-1.2c0-0.2,0.6-0.5,0.7-0.6
			c0.1-0.1,0.6-0.7,0.9-0.7C267.5,503,268.5,504.4,268.4,504.5z"/>
		<path class="st12" d="M266.5,502.2c-1.6,0.8-1,1.7-2.3,0.4c-0.1-0.1-0.6-0.4-0.5-0.5c0.1-0.3,1.1-1.2,1.3-1.3
			C265.2,500.7,266.6,502.1,266.5,502.2z"/>
		<path class="st12" d="M264.1,499.9c0.2,0.3-0.5,0.6-0.7,0.9c-0.6,0.8-0.8,0.5-1.5-0.2c-0.1-0.1-0.7-0.4-0.7-0.4
			c0-0.1,0.4-0.5,0.5-0.6C262.6,497.9,263.2,498.8,264.1,499.9z"/>
		<path class="st12" d="M265.1,506.2c-1,0.6-1.3,1.5-1.9,0.4c0-0.1-0.3-0.4-0.4-0.4c0-0.1,0.3-0.4,0.4-0.5c0.1-0.1,0.4-0.6,0.7-0.6
			c0,0,0.1,0.1,0.1,0.1C264.2,505.4,265.4,506,265.1,506.2z"/>
		<path class="st12" d="M263.2,504.6c-0.2,0.2-0.9,1.1-1.1,1.1c0,0-0.2-0.3-0.2-0.4c-0.8-0.6-0.7-0.8,0.2-1.7
			C262.3,503.3,263.5,504.3,263.2,504.6z"/>
		<path class="st12" d="M261.6,503c-0.2,0.2-0.5,0.3-0.7,0.6c0,0-0.2,0.5-0.3,0.4c-0.9-0.2-0.9-0.8-0.5-1.4c0.1-0.1,0.3-0.5,0.4-0.5
			C260.7,502.1,261.7,502.9,261.6,503z"/>
		<path class="st12" d="M262.9,508.1c-0.3,0-0.8,0.7-0.8,0.7c-0.3-0.3-1-1.4-0.1-1.6C262.1,507.1,263.1,508.1,262.9,508.1z"/>
		<path class="st12" d="M261.4,506.8c-1.2,0.1-0.2,0.8-1.2,0.3c0,0-0.4-0.2-0.4-0.2c0-0.1,0.3-0.4,0.3-0.4c0.1-0.1,0.4-0.5,0.5-0.4
			C260.9,506.2,261.9,506.7,261.4,506.8z"/>
		<path class="st13" d="M260,505.6c0,0.2-0.8,1-0.8,1c0,0-0.2-0.3-0.2-0.3c-0.1-0.1-0.4-0.3-0.5-0.4
			C258.5,505.9,259.8,504.3,260,505.6z"/>
		<path class="st14" d="M293.5,526.2c2.6,1.4,5.9-0.6,8.8-0.6c1.9,0,4.1-0.8,6-1.3c1.6-0.4,5.1-1,6.1-2.3c1.8-2.5-3-4.2-4.9-3.8
			c-3.6,0.7-7.1,3-10.7,3.8C297.3,522.2,291.3,524.9,293.5,526.2z"/>
		<path class="st14" d="M306.5,519c1.8-0.5,4.3-4.7,1.7-6c-0.5-0.3-1-0.6-1.6-0.4c-1.6,0.3-2.7,2.1-3.8,3.1c-1.8,1.8-4,3.4-6.1,5
			c-0.8,0.6-1.9,1.4-2.3,2.3c-0.1,0.1-0.3,0.3-0.2,0.4c0.3,0.3,2.3-1,2.7-1.1c2.5-0.8,5-1.2,7.3-2.3
			C304.8,519.7,305.7,519.2,306.5,519z"/>
		<path class="st14" d="M291.7,525.2c4.1-3.1,6.2-8.5,9.9-12.2c1.1-1.1,1.7-3.1,0.5-4.3c-1.1-1.1-3.2,0.6-3.8,1.4
			c-1.7,2.1-3.1,4.6-4.5,6.9c-0.9,1.5-2,2.5-2.6,4.2C290.9,522,289.9,526.5,291.7,525.2z"/>
		<path class="st14" d="M305.6,512.7c-1.1-0.3-3.4,0.2-4.4,0.7c-0.4,0.2-0.7,0.9-1,1.2c-0.4,0.4-1.6,1.4-1.3,2.1
			c0.1,0.3,4-0.6,4.2-1.1"/>
		<path class="st14" d="M302.7,515.9c0.8-0.8,1.5-1.8,2.4-2.6"/>
		<path class="st14" d="M295.6,514.3c-0.9,0-1.8,0.4-2.7,0.7c-1.8,0.5-3.6,0.9-5.4,1.5c-0.6,0.2-2,0.5-2.3,1.1
			c-0.6,1.2,1.9,1.6,2.3,1.7c1.7,0.6,4.7-1.2,6.2-2"/>
		<path class="st14" d="M289.1,524.3c1.3-1,1.4-2.8,2-4.2c1.4-3.5,3.7-6.6,4.8-10.2c0.2-0.9,1.8-4.4,0.5-4.9
			c-1.9-0.8-2.6,1.2-3.2,2.6c-1.7,3.4-2.5,6.9-3.5,10.5c-0.5,1.7-0.9,3.4-1.2,5.1C288.4,523.6,288.5,524.8,289.1,524.3z"/>
		<path class="st14" d="M299.3,508.9c0-0.5-1.2-0.1-1.7,0c-1.7,0.4-2.1,1.4-2.5,3c0,0.1-0.2,0.4-0.1,0.4c0.8,0.8,1.6-0.5,1.9-1
			c0.3-0.4,0.7-0.8,0.9-1.2C298.1,509.6,299.3,509.5,299.3,508.9z"/>
		<path class="st14" d="M291.8,509.8c-1.5-0.4-8.7,1.5-10.2,2.3c-0.8,0.4-2.4,1.1-2.4,2.2c0,0.7,2.4,0.6,2.9,0.7
			c2.7,0.7,4.7-1.1,7.2-1.8c0.8-0.2,1.5-0.2,2.2-0.6"/>
		<path class="st14" d="M288.5,509.7c0.2-0.4,1.3-1,1.7-1.3c1.2-0.9,4.2-5.4,1.3-6.1c-0.9-0.2-1.6,1.4-2.2,1.8
			c-2,1.6-3.8,3.6-5.6,5.4c-0.3,0.3-3.3,3.2-3.3,2.6"/>
		<path class="st14" d="M288.9,502.5c0.1,0,0.1,0,0.2,0.1"/>
		<path class="st14" d="M289.5,502.8c0.4,0.2-0.3-0.1-0.4-0.1c-0.5-0.2-1-0.4-1.5-0.5c-1.3-0.3-2.8-0.4-4.2-0.4
			c-4.4,0-8.8,0.1-13.2,0.1c-1.1,0-3.9,0.2-4.3,1.5c-0.5,1.9,4.1,1.5,5.1,1.5c4,0,8.2,0,12.1,1c1.6,0.4,3.3-0.6,4.7-0.6"/>
		<path class="st14" d="M278.6,511.4c-0.7-0.4-1.7-0.9-1.5-1.8c0.1-0.7,0.8-1.1,1.2-1.6c1.6-2.6,3.6-5.3,5.8-7.5
			c0.7-0.7,2.4-2.6,3.7-1.3c0.8,0.8,0.6,2.5-0.2,3.2c-1.5,1.5-3.2,3.1-4.9,4.4c-0.8,0.6-1.2,1.6-2,2.3
			C280,509.5,279.2,511.2,278.6,511.4c-0.8,0.2-1.7-1.1-1.9-1.7"/>
		<path class="st14" d="M292.2,509.9c-0.2,0.5-1.3,4.6-1.5,4.1"/>
		<path class="st15" d="M256.9,543.6c-0.1-0.2-0.1,0.4-0.2,0.6c-0.2,0.4-0.3,0.8-0.8,0.9c-1.4,0.3-3.5-0.7-5-0.9
			c-2.7-0.4-5.3-1.9-7.9-2.6c-0.8-0.2-2.7-0.5-3.3-1.1c-0.5-0.5-0.3-2.5,0-3.2c0.3-0.9,2.9,0.6,3.4,0.8c3.5,1.4,6.7,3.1,10.3,3.8
			c1.1,0.2,2.5,0.5,3.5,1C257.4,543.1,257,543.8,256.9,543.6z"/>
		<path class="st15" d="M271.5,485.4c0,2.2-0.2,5.9,1.2,7.8c1,1.3,1.8,2.9,3,4c0.1,0.1,0.3,0.3,0.2,0.4c0,0-0.7-0.1-0.8-0.1
			c-0.2,0.1-1.2,0.5-1.4,0.4c-1.1-0.7-2-3-2.3-4.2c0-0.1-0.2-0.8-0.3-0.8c-0.1,0-0.2,0.5-0.2,0.6c-0.4,0.7-0.9,5-2.5,4.6
			c-2.6-0.6,0.5-3.6,0.9-5c0.4-1.8,0.7-3.6,0.7-5.5c0-0.4-0.4-2.2-0.3-2.4c0-0.1,0.7,0.2,0.8,0.2C271,485.5,271.5,484.9,271.5,485.4
			z"/>
		<path class="st16" d="M262,510.3c-0.5-0.5-5.1-4.1-5.1-4.1c-1.5,0-3.3,1.8-4.4,2.6c-1.8,1.3-4.1,2.6-6,3.8
			c-2.9,1.7-5.3,4.8-7.7,7.1c-0.7,0.7-4.1,4.8-4.1,5.6c0,0.6,2.5,1.9,3,2.2c2.6,2,5.8,3.6,8.6,5.3c0.4,0.3,3.2,1.6,3.4,1.4
			c2.8-2.8,2.6-8.1,4.6-11.4c1.9-3.1,3.7-6.4,5.9-9.3C260.4,512.9,262.4,510.6,262,510.3z"/>
		<path class="st17" d="M252.7,514c-0.8,1.2-2.4,1.6-3.4,2.6c-1.8,1.8-3.7,3.5-5.7,5.1c-0.3,0.2-2.6,2-2.6,2.1c0,0.1,2,0.7,2.3,0.9
			c0.2,0.1,3.3,1.9,3.3,1.9c0.1,0,0.1-0.9,0.1-1c0.2-0.7,0.5-1.2,0.8-1.9c0.9-2.2,2.1-4.4,3.3-6.4c0.4-0.7,0.8-1.4,1.2-2.1
			C252.2,514.8,252.8,513.7,252.7,514z"/>
		<path class="st17" d="M249.8,535.1h-0.6L249,535l-0.4-0.2l-0.2-0.2l0,0"/>
		<path class="st17" d="M247.3,534.5l-0.2-0.1l-0.9-0.5l-0.2-0.2l0,0"/>
		<path class="st17" d="M244.9,532.8c-0.4-0.2-0.9-0.4-1.4-0.6"/>
		<path class="st17" d="M242.7,531.7c-0.4-0.4-0.9-0.7-1.3-1.1"/>
		<path class="st17" d="M240.2,530.1c-0.5-0.2-1-0.5-1.3-1"/>
		<path class="st17" d="M237.9,528.7c-0.5-0.3-1-0.5-1.5-0.9"/>
		<path class="st17" d="M235.8,527.4l-0.2-0.2l-0.2-0.2l-0.2-0.2l-0.2-0.3l-0.2-0.2l-0.1-0.2l0,0"/>
		<path class="st17" d="M233.9,525.7l-0.1-0.2l-0.1-0.2v-0.2v-0.2l0.1-0.2l0,0"/>
		<path class="st17" d="M249.8,536.1h-0.5L249,536l-0.3-0.1l0,0"/>
		<path class="st17" d="M247.1,535.3c-0.5-0.2-1-0.3-1.5-0.6"/>
		<path class="st17" d="M244.2,533.8c-0.6-0.3-1.1-0.5-1.7-1"/>
		<path class="st17" d="M241.9,532.2c-0.5,0-1.2-0.4-1.5-0.7"/>
		<path class="st17" d="M239.5,530.9l-0.3-0.2l-0.1-0.2l-0.3-0.2l-0.2-0.2l0,0"/>
		<path class="st17" d="M237.5,529.3l-0.2-0.2l-0.2-0.2l-0.3-0.2l-0.2-0.1l0,0"/>
		<path class="st17" d="M235.9,528.5l-0.2-0.3l-0.2-0.4l-0.1-0.2l0,0"/>
		<path class="st17" d="M234.5,526.9l-0.2-0.2l-0.2-0.2l-0.2-0.2l-0.1-0.2l-0.2-0.2l0,0"/>
		<path class="st17" d="M260.3,510.8c0.1-0.2-1,1.1-1.3,1.4"/>
		<path class="st17" d="M257.8,514.5c-0.6,0.5-0.9,1.3-1.2,2"/>
		<path class="st17" d="M255.8,518c-0.3,0.1-1.1,1.6-1.2,1.9"/>
		<path class="st17" d="M253.8,521.2c0,0.4-0.4,1-0.5,1.4"/>
		<path class="st17" d="M252.4,523.9c0,0.8-0.9,1.5-1.1,2.2"/>
		<path class="st17" d="M251,527.1c0,0.7-0.4,1.4-0.4,2.1"/>
		<path class="st17" d="M250.3,530.5c-0.4,0.4-0.6,1.1-1,1.6"/>
		<path class="st17" d="M248.1,532.5c0.1,0.3-1.4-0.6-1.6-0.7"/>
		<path class="st17" d="M245.3,530.7c-0.6-0.2-1.1-0.4-1.6-0.7"/>
		<path class="st17" d="M241.8,528.7c-0.5-0.4-0.9-0.6-1.4-0.9"/>
		<path class="st17" d="M238.9,526.8c-0.5-0.2-0.9-0.6-1.2-0.9"/>
		<path class="st17" d="M236.5,525.4l-0.3-0.2h-0.1l-0.4-0.2l-0.2-0.2l0,0"/>
		<path class="st17" d="M260,510.2c-0.4-0.5-1-0.7-1.3-1.3"/>
		<path class="st17" d="M257.7,508.2c0,0-1-0.7-1.3-1"/>
		<path class="st17" d="M255.7,507.9c-0.2-0.5-2.4,1.4-2.7,1.6"/>
		<path class="st17" d="M251.4,511.1c-0.7,0.2-1.3,0.8-2,1"/>
		<path class="st17" d="M248.1,512.9c-0.2,0.4-2,1.3-2.5,1.6"/>
		<path class="st17" d="M244.3,515.5c-0.2,0.4-1,1-1.4,1.4"/>
		<path class="st17" d="M241.7,518.3c-0.5,0.3-1.1,0.9-1.4,1.4"/>
		<path class="st17" d="M239.2,521.1c-0.7,0.3-1,0.8-1.5,1.3"/>
		<path class="st17" d="M236.9,523.3c-0.3,0.3-0.6,0.7-0.9,1"/>
		<path class="st17" d="M253.4,514.5c-0.4,0.4-0.5,1-0.8,1.4"/>
		<path class="st17" d="M251.8,518.1c-0.7,0.4-0.8,1.2-1.3,1.8"/>
		<path class="st17" d="M249.8,521.1c0,0.5-0.5,1.7-0.9,2.1"/>
		<path class="st17" d="M248.4,524.8c-0.3,0.6-0.6,1.1-0.8,1.8"/>
		<path class="st17" d="M247.3,527.6v0.1h-0.1l-0.2,0.1h-0.1h-0.1h-0.1l0,0"/>
		<path class="st17" d="M245.8,526.9c-0.5-0.3-1-0.5-1.5-0.8"/>
		<path class="st17" d="M243.1,525.7c-0.5-0.5-1.1-0.5-1.7-0.8"/>
		<path class="st17" d="M240.8,524.6l-0.2-0.1l-0.2-0.1l-0.1-0.1l0,0"/>
		<path class="st17" d="M252.7,513.1c-0.6,0.4-1.1,0.9-1.7,1.3"/>
		<path class="st17" d="M249.8,515.3c-0.5,0.5-1.4,1.1-2,1.4"/>
		<path class="st17" d="M246.7,517.8c-0.5,0.5-1.3,0.9-1.8,1.4"/>
		<path class="st17" d="M243.8,520.3c-0.5,0.5-1.2,1-1.7,1.5"/>
		<path class="st17" d="M241.3,522.3c0,0.3-0.9,0.8-1.2,1.1"/>
		<path class="st17" d="M253.6,513.9c-0.3-0.3-0.1-0.1-0.2-0.7"/>
		<path class="st17" d="M284,498.5c-0.2-0.2-0.3-0.3-0.5-0.5"/>
		<path class="st17" d="M282.8,496.4c-0.2-0.4-0.4-0.8-0.5-1.3"/>
		<path class="st17" d="M281.8,493.1l-0.1-0.5v-0.2l-0.2-0.5l0,0"/>
		<path class="st17" d="M281,489.5V489v-0.4v-0.5l0,0"/>
		<path class="st17" d="M280.8,485.8c0-0.6,0-1.1,0.1-1.7"/>
		<path class="st17" d="M280.5,481.5c-0.1-0.6-0.2-1-0.5-1.4"/>
		<path class="st17" d="M278.6,479.3c0,0-1.4-0.8-1.9-0.9"/>
		<path class="st17" d="M274.5,477.9c-0.7,0-1.4,0-2.1,0"/>
		<path class="st17" d="M270.3,477.6c-0.7,0-1.4,0-2.1,0"/>
		<path class="st17" d="M266.3,477.6c-0.6,0-1.3,0.1-1.9,0.1"/>
		<path class="st17" d="M262.3,477.9c-0.8,0-1.3,0.2-1.9,0.6"/>
		<path class="st17" d="M258.5,479.5c-0.6,0.3-1,0.8-1.4,1.3"/>
		<path class="st17" d="M256.3,481.5c-0.6,0.6-0.9,1.3-1.4,2"/>
		<path class="st17" d="M254.3,484.8c0,0.7-0.1,1.4-0.1,2.2"/>
		<path class="st17" d="M253.6,488.7c0,0.8,0.1,1.4,0.3,2.1"/>
		<path class="st17" d="M254.2,492.9c0.3,0.8,1,1.6,1.2,2.4"/>
		<path class="st17" d="M256.1,496.4c0,0.8,0.6,1,0.9,1.6"/>
	</g>
	<path class="st17" d="M-74,222.5c-0.2,0-0.4,0-0.5,0"/>
	<path class="st17" d="M-124.8,285.8c-1.7-0.4-3-1.7-4.6-2.2c-3.8-1.2-8.8,1.2-12,3"/>
</g>
</svg>
