<svg xmlns="http://www.w3.org/2000/svg" width="612" height="612" viewBox="0 0 612 612"><path fill="#8DD4F0" d="M184.487 462.498c.711 4.857 29.934 6.495 39.669-28.649 3.671-13.272 9.657-10.817 15.724-2.582 2.922-5.869 5.069-11.027 6.459-15.583-12.862-3.011-22.855-8.211-29.191-12.261-5.462 10.507-16.124 24.879-36.199 34.756-6.866 3.378-10.347 7.917-11.458 12.095-1.067 12.2 13.709 3.423 14.996 12.224z"/><path fill="#AED9F1" d="M260.677 474.64c.682.254 3.431-.376 0 0z"/><path fill="#6786C4" d="M171.105 459.116c2.175 2.501 5.61 1.016 7.817 2.753 2.59 2.026-.845 5.093 2.59 6.989 13.304 7.365 39.17-3.905 50.278-22.788 3.19-5.423 5.861-10.314 8.09-14.804-6.066-8.235-9.367-20.047-13.042-6.775-9.731 35.149-41.639 42.864-42.35 38.007-1.288-8.801-16.063-.024-14.995-12.225-.932 3.498-.213 6.746 1.612 8.843z"/><path fill="#8DD4F0" d="M217.697 557.058c-.294.393-.591.788-.881 1.188-.121.166-.241.326-.361.496-.212.293-.414.587-.623.88a53.43 53.43 0 0 1-1.083 1.536c-4.404 6.438-7.885 13.046-8.504 18.454-.318 2.791 4.355 2.409 5.83 4.376 1.486 1.981-.226 6.308 3.594 7.086 18.162 3.682 32.98-13.888 42.977-31.41 10.828-20.333-25.866-21.412-40.949-2.606zM260.574 516.377l-39.064-36.956s-22.056 18.586-5.826 39.577c13.078 15.887 37.872 4.055 44.89-2.621z"/><path fill="#AED9F1" d="M215.833 559.622c.208-.293.41-.587.623-.88-.092.134-.202.265-.29.399-.114.171-.22.312-.333.481zM217.697 557.058c-.308.386-.591.788-.881 1.188.29-.4.587-.796.881-1.188zM214.75 561.158c.35-.475.711-.994 1.083-1.536-.361.51-.729 1.023-1.083 1.536zM216.816 558.246c-.121.166-.241.329-.361.496.12-.17.24-.33.361-.496z"/><path fill="#6786C4" d="M272.792 527.935l-13.35-17.833c-7.019 6.675-30.681 24.783-43.759 8.896 4.174 5.395 10.835 10.952 21.108 16.393 0 0-10.407 10.057-19.095 21.667 7.945-9.908 21.886-14.288 31.716-13.247 14.062 2.341-2.402 38.346-22.579 46.909 25.593-7.251 39.853-45.311 44.879-59.676.705-1.953 1.08-3.109 1.08-3.109z"/><path fill="#8DD4F0" d="M337.736 389.352s6.42 31.022 41.469 48.265c9.399 4.623 12.693 10.924 10.782 16.413-1.836 5.275-9.568 4.652-11.546 6.679-3.147 3.233-.251 5.812-5.741 7.106-13.279 3.124-31.341-1.295-44.331-22.307-29.693-48.028-11.685-60.505-11.685-60.505"/><path fill="#6786C4" d="M356.523 421.337c-15.33-15.587-18.784-31.985-18.784-31.985l-21.051-4.349s-6.046 4.221-5.342 17.122l17.256 17.078c.001 0 11.278 3.107 27.921 2.134z"/><path fill="#6786C4" d="M340.92 415.684s19.916 26.875 22.24 52.995c0 0-15.367-.867-24.373-9.87-9.197-9.204-11.525-21.044-11.525-21.044l-9.47-15.2M294.558 462.757l4.447 58.165s44.979 27.179 109.396-14.325c-.001 0-69.622 14.956-113.843-43.84z"/><path fill="#AED9F1" d="M345.727 559.619c-.208-.294-.409-.588-.622-.881.096.138.198.262.29.399.117.171.223.316.332.482zM343.863 557.055c.307.386.59.789.881 1.188-.291-.399-.588-.793-.881-1.188z"/><path fill="#8DD4F0" d="M343.863 557.055c.293.396.59.789.881 1.188.12.166.244.326.36.496.213.293.414.587.622.881a51.21 51.21 0 0 0 1.083 1.535c2.405 3.513 4.542 7.075 6.078 10.475 3.728 8.256-2.668 6.435-2.905 9.516-.332 4.326 2.321 8.624-4.092 9.922-18.158 3.686-32.98-13.884-42.974-31.405-10.831-20.335 25.867-21.413 40.947-2.608zM300.986 516.373l39.067-36.959s22.054 18.593 5.822 39.581c-13.077 15.887-37.863 4.053-44.889-2.622z"/><path fill="#AED9F1" d="M346.81 561.154a52.53 52.53 0 0 1-1.083-1.535c.361.513.729 1.022 1.083 1.535z"/><path fill="#6786C4" d="M300.986 516.373c7.026 6.675 31.812 18.509 44.889 2.622-4.173 5.395-10.834 10.948-21.106 16.392 0 0 10.406 10.058 19.095 21.668-15.08-18.805-51.778-17.727-40.946 2.606-9.049-15.88-14.149-31.727-14.149-31.727l12.217-11.561z"/><path fill="#AED9F1" d="M344.744 558.242c.12.166.244.33.36.496-.116-.17-.24-.33-.36-.496z"/><path fill="#6786C4" d="M334.726 590.717c-25.589-7.252-39.849-45.312-44.875-59.673l12.968 4.438s27.549 8.197 10.853 8.197c-16.698.001.197 38.183 21.054 47.038M243.474 385.565l-21.051 4.349s-1.196 5.677-5.274 13.509c6.335 4.05 16.329 9.25 29.191 12.261 7.053-23.22-2.866-30.119-2.866-30.119z"/><path fill="#8DD4F0" d="M327.63 213.115S312.532 69.456 147.585 15.782c0 0 175.977 128.586 123.46 281.655"/><g fill="#A09F9F"><path d="M302.826 250.436l19.417 21.097c-8.422-10.803-15.293-21.663-16.665-24.818-1.829 2.316-2.752 3.721-2.752 3.721zM339.686 290.49l-17.443-18.957c5.522 7.075 11.7 14.125 17.443 18.957z"/></g><path fill="#8DD4F0" d="M278.495 261.596l62.033 4.57c40.03-84.159 95.068-84.931 95.068-84.931-104.483-28.737-157.101 80.361-157.101 80.361z"/><path fill="#A09F9F" d="M292.439 356.339c-6.986-.353-14.949-.594-24.093-.671a264.528 264.528 0 0 0-3.428 3.519c10.124-.314 20.11-.547 29.64-.66a224.87 224.87 0 0 0-2.119-2.188z"/><path fill="#6786C4" d="M264.918 359.187c-9.852 10.302-22.71 25.34-33.029 42.814 15.505 4.276 49.906 11.511 101.995 10.364-11.072-22.247-27.515-41.579-39.326-53.839"/><path fill="#8DD4F0" d="M385.517 269.916c-37.6-64.735-72.978-25.759-72.978-25.759l12.54-29.828c-13.888-5.784-29-9.148-45.021-9.148-26.548 0-48.75 7.856-68.803 22.102-61.173 43.447-86.682 135.296-27.822 155.987 18.101 6.363 48.169 12.787 96.625 12.787 13.435 0 25.937-.332 37.804-1.263 106.495-8.365 96.081-75.938 67.655-124.878z"/><circle fill="#5273B8" cx="337.734" cy="334.722" r="10.183"/><path fill="#FFF" d="M342.854 332.522a4.074 4.074 0 0 1-4.075 4.078 4.076 4.076 0 1 1 4.075-4.078z"/><circle fill="#5273B8" cx="222.405" cy="334.722" r="10.181"/><path fill="#6786C4" d="M246.583 360.221s11.37 14.839 31.579 3.477c0 0 13.892 10.1 30.941-3.477 0 0-3 22.101-30.351 11.801.001-.001-21.114 6.83-32.169-11.801z"/><path fill="#FFF" d="M228.037 332.522a4.08 4.08 0 0 1-8.158 0 4.08 4.08 0 0 1 8.158 0z"/><path fill="#8DD4F0" d="M307.711 412.231c-37.568-1.218-63.083-6.721-75.822-10.23a165.655 165.655 0 0 0-3.852 6.841c-8.073 15.229-13.817 31.943-13.817 48.775 0 42.109 18.309 62.255 40.839 69.928 49.21 13.46 70.385-44.2 52.652-115.314z"/><g><path fill="#6786C4" d="M345.891 457.617c0-12.548-3.191-25.046-8.154-36.903a142.728 142.728 0 0 0-3.853-8.349c-9.299.209-18.068-.134-26.173-.134 6.986 28.013 7.905 53.911 3.487 74.223-13.375 43.687-60.303 41.54-78.641 27.008 18.925 19.92 45.958 21.724 67.25 15.633 8.575-2.162 16.708-5.947 23.694-11.829.06-.051.116-.104.177-.156a49.989 49.989 0 0 0 1.573-1.369l.114-.1.003-.014c12.255-11.345 20.523-29.718 20.523-58.01z"/></g><path fill="#F1DDEC" d="M357.779 354.036c.248 1.667-3.784 3.634-9.003 4.404-5.225.771-9.649.042-9.897-1.623-.248-1.663 3.785-3.63 9.007-4.4 5.22-.769 9.65-.051 9.893 1.619zM221.715 356.46c-.18 1.677-4.577 2.567-9.823 1.995-5.246-.57-9.346-2.389-9.166-4.061.184-1.677 4.578-2.562 9.827-1.992 5.246.571 9.343 2.384 9.162 4.058z"/><path fill="#6786C4" d="M355.353 460.963s16.173 6.841 17.999.435c2.61-9.157 15.448-1.4 17.118-9.622 0 0 .703 6.227-7.648 7.766-8.345 1.539-1.691 8.037-13.287 9.176-11.589 1.14-19.428-2.957-19.428-2.957l1.729-2.606"/><path fill="#5273B8" d="M326.311 243.689s9.94-3.382 20.266-1.401c18.02-62.029 89.02-61.053 89.02-61.053s-77.404-13.813-109.286 62.454z"/><g><path fill="#6786C4" d="M300.296 243.689c10.06-162.23-152.711-227.907-152.711-227.907s108.193 131.508 32.994 163.246c0 .001 86.426-17.078 119.717 64.661z"/><path fill="#5273B8" d="M227.287 217.541c.552-.258 1.352-.559 1.899-.803.05-.021.1-.032.148-.053 39.106-12.459 60.756 11.702 68.078 22.332.962 1.5 1.921 3.056 2.883 4.673-32.983-83.643-119.717-64.661-119.717-64.661s32.658 11.065 46.709 38.512z"/></g><g><path fill="#5273B8" d="M383.373 195.305l-.665-1.019c-15.073 8.225-29.262 21.628-36.132 43.454 10.387-.541 21.837 3.456 26.651 21.388 0 0-3.304-15.335 3.838-32.987-14.861 3.912-23.832-10.797 6.308-30.836z"/><path fill="#6786C4" d="M435.596 181.236s-27.677-.714-52.888 13.05c-30.143 20.04-21.299 37.26-5.643 31.855 6.668-16.467 22.421-34.951 58.531-44.905z"/></g><path fill="#6786C4" d="M389.723 269.531c-18.264-27.189-35.313-42.191-63.412-25.841 0 0 32.555-13.93 55.559 28.94 1.504 2.798 2.982 5.861 4.433 9.197.103.241.206.453.311.69 23.62 55.1 5.343 82.143-21.485 94.443-.025.007-.046.021-.046.021-.117.061-.227.103-.319.146-17.645 8.567-43.425 13.778-79.503 13.778-62.259 0-92.561-5.607-107.106-10.817-8.618-3.085-11.426-6.513-11.426-6.513 23.672 23.672 89.989 24.872 113.014 24.975h.028c2.109.014 3.874.011 5.172.011 1.932 0 4.46-.054 7.443-.17 53.678-1.27 94.828-10.935 108.981-33.443 16.344-23.734 9.903-62.179-11.644-95.417z"/></svg>
