<?xml version="1.0" encoding="utf-8"?>
<!-- Generator: Adobe Illustrator 24.0.1, SVG Export Plug-In . SVG Version: 6.00 Build 0)  -->
<svg version="1.1" id="Layer_1" xmlns:vectornator="http://vectornator.io"
	 xmlns="http://www.w3.org/2000/svg" xmlns:xlink="http://www.w3.org/1999/xlink" x="0px" y="0px" viewBox="0 0 400 600"
	 style="enable-background:new 0 0 400 600;" xml:space="preserve">
<style type="text/css">
	.st0{fill-rule:evenodd;clip-rule:evenodd;fill:#A60202;stroke:#A60202;stroke-width:8.91;}
	.st1{fill-rule:evenodd;clip-rule:evenodd;fill:#FFAE00;stroke:#000000;stroke-width:5.38;}
	.st2{fill:none;stroke:#000000;stroke-width:3.77;stroke-linecap:round;stroke-linejoin:round;}
	.st3{fill:none;stroke:#000000;stroke-width:5.45;stroke-linecap:round;stroke-linejoin:round;}
	.st4{fill-rule:evenodd;clip-rule:evenodd;stroke:#000000;stroke-width:5.45;stroke-linecap:round;stroke-linejoin:round;}
	
		.st5{fill-rule:evenodd;clip-rule:evenodd;fill:#070707;stroke:#000000;stroke-width:5.45;stroke-linecap:round;stroke-linejoin:round;}
	
		.st6{fill-rule:evenodd;clip-rule:evenodd;fill:#FFFFFF;stroke:#000000;stroke-width:1.41;stroke-linecap:round;stroke-linejoin:round;}
	.st7{fill:none;stroke:#000000;stroke-width:1.41;stroke-linecap:round;stroke-linejoin:round;}
	.st8{fill:none;stroke:#000000;stroke-width:4.45;stroke-linecap:round;stroke-linejoin:round;}
	.st9{fill:none;stroke:#030303;stroke-width:4.43;stroke-linecap:round;stroke-linejoin:round;}
	.st10{fill-rule:evenodd;clip-rule:evenodd;fill:#FFD200;stroke:#000000;stroke-width:6.74;}
	.st11{fill-rule:evenodd;clip-rule:evenodd;fill:#FFAE00;stroke:#000000;stroke-width:0.98;}
	.st12{fill-rule:evenodd;clip-rule:evenodd;fill:#FFFFFF;stroke:#000000;stroke-width:0.98;}
	.st13{fill-rule:evenodd;clip-rule:evenodd;stroke:#000000;stroke-width:0.98;}
	.st14{fill:none;stroke:#000000;stroke-width:1.19;stroke-linecap:round;stroke-linejoin:round;}
	.st15{fill:none;stroke:#000000;stroke-width:0.91;stroke-linecap:round;stroke-linejoin:round;}
	.st16{fill-rule:evenodd;clip-rule:evenodd;stroke:#000000;stroke-width:0.91;stroke-linecap:round;stroke-linejoin:round;}
	
		.st17{fill-rule:evenodd;clip-rule:evenodd;fill:#FFAE00;stroke:#000000;stroke-width:0.91;stroke-linecap:round;stroke-linejoin:round;}
	.st18{fill-rule:evenodd;clip-rule:evenodd;fill:#FFE600;stroke:#000000;stroke-width:0.98;}
	
		.st19{fill-rule:evenodd;clip-rule:evenodd;fill:#FFE600;stroke:#000000;stroke-width:0.98;stroke-linecap:round;stroke-linejoin:round;}
	
		.st20{fill-rule:evenodd;clip-rule:evenodd;fill:#FFAE00;stroke:#000000;stroke-width:0.98;stroke-linecap:round;stroke-linejoin:round;}
	
		.st21{fill-rule:evenodd;clip-rule:evenodd;fill:#FFE600;stroke:#000000;stroke-width:0.37;stroke-linecap:round;stroke-linejoin:round;}
	.st22{fill:none;stroke:#000000;stroke-width:0.37;stroke-linecap:round;stroke-linejoin:round;}
	.st23{fill:none;stroke:#DA8F00;stroke-width:0.37;stroke-linecap:round;stroke-linejoin:round;}
	.st24{fill-rule:evenodd;clip-rule:evenodd;stroke:#000000;stroke-width:0.57;}
	.st25{fill-rule:evenodd;clip-rule:evenodd;fill:#A57205;stroke:#754C03;stroke-width:0.57;}
</style>
<g id="body" vectornator:layerName="body">
	<path class="st0" d="M433.8,424.5c-0.1,0.4-0.2,0.7-0.4,1.1"/>
	<path class="st0" d="M436,274.5c0.2,0,0.5,0,0.7,0"/>
	<path class="st0" d="M430.6,356.1c-2,1.2-3,4.1-2.9,6.5c0.1,1.1,2.4-0.1,3.2-0.7c0.4-0.3,1.2-2.2,2.2-2.2c0.3,0-0.5,0.4-0.7,0.7
		c-0.4,0.5-0.7,1-1.1,1.4c-0.7,1-4.5,5.1-2.2,3.6"/>
	<path class="st1" d="M110.3,360.4c-3.4-3.7-18.3,0-24.3-1.4c-3.2-0.8-6.5-1.4-9.7-2.2c-2.6-0.6-4.9-2.8-7.2-4c-1.4-0.7-4-1.5-5-2.5
		c-1.2-1.2-2.6-2-4-2.9c-0.9-0.6-1.6-2.2-2.5-2.9c-4.6-3.4-8.4-5.8-11.9-10.4c-2-2.7-5.5-3.3-6.5-7.2c-0.5-2,0.3-4,0.7-5.8
		c1.2-4.7,1.7-10.6,0.7-15.5c-1.3-6.4-4.9-12.1-6.5-18.3c-2.2-8.8-4.2-17.6-5.8-26.6c-1.7-10.2,2.3-23.4,4.7-33.1
		c1.4-5.6,5.4-10.5,6.8-16.2c0.8-3.2,1.9-6.5,2.5-9.7c0.6-3,0.1-6.3,0.7-9.4c0.9-4.4,0-10.1-0.7-14.4c-0.6-3.8-0.3-7.7-1.1-11.5
		c-0.5-2.3,0.1-4.9-0.4-7.2c-3-15.1-0.6-30.3,5-44.2c1.1-2.7,1.4-5.7,2.9-8.3c2.5-4.1,5.4-8.1,7.9-12.2c1.8-3.1,3.2-7.2,5.8-9.7
		c1.8-1.8,3.2-4.3,5-6.1c1.3-1.3,3.2-2.2,4.3-3.6c2.9-3.6,5.4-8.6,9-11.5c1.7-1.4,4-2.2,5.8-3.2c3.4-2,6.3-4.4,9.7-6.5
		c1.9-1.1,4.3-1.6,6.1-2.5c11.6-5.8,23.3-12.3,36-15.5c6.5-1.6,13.2-3.4,19.8-4.7c4-0.8,8.6-0.1,12.6-1.1c3.1-0.8,6.2-1.7,9.4-2.5
		c4.5-1.1,9.7,0.2,14.4-0.4c7.3-0.8,15.6-4,23-2.5c4.5,0.9,10,2.3,14,4.3c0.9,0.4,1.5,1.4,2.5,1.8c1.9,0.7,4.2,1,6.1,1.4
		c4.7,1.2,9.2,3.4,14,4.3c6.2,1.2,12.4,5.2,18.3,7.2c5.3,1.8,10.3,4.4,15.5,6.5c2.2,0.9,4.5,2.7,6.8,3.2c6.9,1.7,13.3,5.7,19.4,9.4
		c1,0.6,2.3,0.7,3.2,1.4c2.8,2.1,5.1,5.1,7.9,7.2c3.2,2.4,6.5,4,9.4,6.8c3.1,3.1,5.3,7.3,7.9,10.8c3.5,4.7,8.9,8.1,10.4,14.4
		c1.2,4.7,1.4,9.7,2.5,14.4c1,3.8-1,8.4,0,12.2c1.1,4.4,1.3,12.4,0.4,16.9c-1.8,9-0.4,20,1.1,28.8c0.4,2.1,0.2,4.3,0.7,6.5
		c1.2,4.8,2.4,10.5,4.7,15.1c1.5,3.1,3.5,7,4.3,10.4c0.8,3.3,0.6,6.8,1.4,10.1c2.9,11.5,3.7,25.3,0.7,37.1
		c-1.2,4.8-1.7,10.7-4.3,15.1c-2.9,4.8-6.4,9.6-9.7,14c-2.7,3.6-6.1,14.2-7.2,18.7c-1.6,6.5-2.7,13.3-4,19.8
		c-0.5,2.7-1.9,4.9-2.5,7.6c-1,4.1-1.1,10.1-4.3,13.3c-2.2,2.2-7,2.5-9.7,3.2c-2,0.5-4.1,1.3-6.1,1.8c-2.8,0.7-6.3-0.5-9-1.1
		c-2-0.4-4.2,0.4-6.1,0c-3.8-0.8-7.9-0.7-11.9-0.7c-3.2,0-6.5,0-9.7,0c-1.1,0-2.2,0-3.2,0c-0.2,0-0.7,0.2-0.7,0
		c0-0.5,1.9-0.4,2.2-0.4c2.4,0,7.9-1.1,10.1,0c3.4,1.7,7.5,1.5,10.8,4c4,3,5,10.4,6.1,14.7c3.1,12.4,8.7,24.2,11.9,36.7
		c1.9,7.7,4.2,15.8,2.5,24.1c-1,4.8-0.6,8.9-2.5,13.7c-2,4.9-5.9,8-9,11.9c-1.2,1.5-2,3-3.2,4.3c-1.8,1.8-4.3,5.3-6.8,6.1
		c-2.7,0.9-5.5,2.7-8.3,3.6c-1.3,0.4-2.7,0.3-4,1.1c-1.3,0.8-2.3,2.1-3.6,2.9c-2,1.2-5,0.3-7.2,1.4c-3.6,1.8-6.5,3.7-10.8,4.3
		c-1.9,0.3-4.2-0.5-6.1,0c-4.4,1.1-8.5,1.4-12.9,2.2c-1.4,0.2-2.8,1.2-4.3,1.4c-3.5,0.6-7.3-0.2-10.8,0.4
		c-13.9,2.3-28.8,1.1-43.2,1.1c-2,0-3.9,0.3-5.8,0.7c-3.8,0.9-8.5-0.4-12.2-0.4c-1.6,0-3.4,0.8-5,0.4c-4.2-1-8.1-1.8-12.2-2.9
		c-5.7-1.4-12-0.4-17.6-1.8c-2.6-0.7-5.2-2-7.9-2.5c-6.3-1.3-12.7-2.3-18.7-4.7c-1.9-0.8-3.4-3.1-5.4-3.6c-2.8-0.7-5.8-0.9-8.6-1.4
		c-6.1-1.2-12.1-7.3-15.5-11.9c-0.8-1.1-2.7-1.2-3.6-2.2c-2.7-2.7-5-6-6.5-9.7c-3.3-8.3-5.4-18.5-3.2-27.3c1-3.9,0.2-9.1,1.1-13.3
		c0.7-3.4-0.3-7.1,0.4-10.4c0.7-3.6,1.6-7.2,2.5-10.8c1.5-6.1,0.8-11.2,4.3-16.5c1.1-1.7-1.4,0.3,0.4-1.4c2.8-2.8,8.4-1.2,11.9-0.4
		c3.7,0.9,10.8,0.5,14.4-0.4C105.6,359.3,110.9,361.1,110.3,360.4z"/>
	<path class="st1" d="M323,349.3c3.1,6.1,7.4,11.1,11.5,16.5c2.2,2.9,3.4,6.5,5,9.7c3.2,6.4,8.7,12.5,10.4,19.4
		c0.8,3.3,1.1,6.7,1.8,10.1c2,10.2-7.1,13.6-14.7,15.5c-2.3,0.6-6.9,1-8.6-0.7c-0.9-0.9-1.2-3.1-1.8-4.3c-3.2-6.4-4.8-12.9-6.5-19.8
		c-0.8-3.4-2.8-7-4.3-10.1c-0.5-1-1.6-1.7-1.8-2.9c-0.5-2.5-1.8-5-2.9-7.2c-0.9-1.8-0.7-4.2-1.1-6.1c-1.4-7-2.9-14.8-6.1-21.2"/>
	<path class="st1" d="M59,347.8c-2,1-2.4,4.5-4,6.1c-5.4,5.4-8.4,11.1-11.9,18c-1.8,3.6-4.6,6.7-6.1,10.4
		c-2.4,5.9-3.9,11.6-5.4,17.6c-0.9,3.5-3.7,15-0.7,18c2.3,2.3,7.8,2.8,10.8,3.6c6,1.5,11.5,4.5,17.6,5.8c1.6,0.3,7.1,4.1,8.6,1.8
		c1.6-2.3-0.1-10.9,0.7-14c0.9-3.6-0.2-7.6,0.7-11.2c1.2-4.7,1.2-9.7,2.2-14.4c1.5-7.7,3.9-15.1,5.4-22.7c0.2-0.8,1.8-8.2,1.8-8.3
		c0-0.1-1.8,0-2.2-0.4c-1.9-1.9-5.2-2.5-7.6-4.3c-5.4-4.1-12-6.8-15.8-12.6"/>
	<path class="st2" d="M214.7,338.8c13.2-6.6,29-7.6,43.2-11.9c4.4-1.3,9.2-2.1,13.7-2.9c1.9-0.3,3.9-0.3,5.8-1.1
		c0.2-0.1,0.7-0.4,0.7-0.4s-1.8,1.6-2.9,2.2c-1.8,0.9-3.5,2-5.4,2.9c-4.5,1.9-15.4,6.7-17.6,11.2"/>
	<path class="st3" d="M171.2,334.5c-1.7,0-3.1-1.1-4.7-1.4c-2.9-0.6-6.1-0.2-9-0.7c-2.8-0.5-5.4-1.8-8.3-2.2
		c-5.5-0.8-11.1-0.5-16.5-1.4c-3.7-0.6-7.6-2.3-11.2-3.2c-0.4-0.1-3.6-0.3-3.6,0c0,0.2,0.5-0.1,0.7,0c1,0.3,1.9,0.7,2.9,1.1
		c4,1.6,8.4,1.8,12.6,2.9c8.1,2,14.3,7.5,21.6,11.2"/>
	<path class="st4" d="M353.8,410.1c2.3,3.9,5.9,6.9,5.9,11.9c0,4.8-0.6,7.8-4,11.2c-1.7,1.7-2.7,4.7-5.4,5.4
		c-2.5,0.6-5.1,0.5-7.6,1.1c-3,0.7-7.6,1.5-10.8,0.7c-0.9-0.2-1.4-1-2.2-1.4c-6.1-3.1-5.8-7.5-5.8-13.7c0-1.4-0.4-3.9,0.4-5
		c0.7-1,4.8-0.2,5.8,0c5.3,1.3,10.7,0.2,15.8-1.1c2.4-0.6,5.1-3.3,6.1-5.4C352.4,413.1,353.6,409.8,353.8,410.1z"/>
	<path class="st4" d="M29.9,419c-3,0.2-5,14-4.1,16.6c3.5,10.3,9.7,16.8,20.6,18.6c6.5,1.1,13.4-2.6,18.7-5.8
		c1.3-0.8,2.6-3.4,3.6-4.6c2.7-3.1,2.4-10,0.3-13.5c-0.3-0.6-0.3-1.6-1.1-1.2c-1.3,0.5,0.8,1.4-1,1.5"/>
	<path class="st4" d="M132.2,476.3c0,2.6-0.6,14,0,16.5c1.5,6-0.8,13,2.5,19.6c0.7,1.4,1.8,3,3.2,3.9c3.3,2,3.1,3.3,6.6,4.1
		c1.9,0.4,9.3,0.5,11.4,0c4.5-1.1,7.4-16.7,8.4-21.8c0.4-1.9-0.5-7.6,0-9.5c0.6-2.2,0-1.2,0-4.5c0-3.3,3.3-4.5,3.3-2.8"/>
	<path class="st5" d="M240.2,479.4c0,14-1.2,40.7,18.4,40.7c2.1,0,3.9,0.5,5.9,0c10.7-2.7,7.2-25.9,9.4-34.8c0.7-2.6-0.8-6.3-0.8-9
		c0-0.9-0.2-3.9-0.2-2.4"/>
	<path class="st6" d="M225.5,355c0,13.5,0.5,27.2,0.5,40.6c0,2.3-0.8,12.7,3.7,11.6c2.1-0.5,1-10.6,1-12.6c0-1.9-0.1-4-0.5-5.9
		c-0.7-3.5,0-7.9,0-11.5c0-7.3-0.2-14.9-0.2-22.2"/>
	<path class="st6" d="M156,353.3c0,1.6,0.4,2.9,0.7,4.4c0.6,3.2,0.5,6.7,1,9.9c0.6,3.4-0.2,7.3,0.7,10.6c0.3,1.3-0.3,2.8,0,4
		c0.9,4.6-0.6,9.8,0.5,14.3c0.2,1-0.2,2.1,0,3c0.8,3.3,0.5,7,2,10.1c0.4,0.7,1.5,2.8,2.7,2c1.4-0.9,0.7-8.2,0.7-9.8
		c0-4.5-0.1-9.2-0.6-13.7c-0.2-2.2-0.5-4.4-1-6.5c-0.7-3.3-0.4-6.8-1.2-10.1c-0.9-3.4-1.2-9.1-1.2-12.6c0-0.9-0.6-6.8-1-6.1"/>
	<path class="st7" d="M161.9,411.4c0.3,1-0.4,6.2,1,5.9c1-0.3-0.2-8.1-0.2-4.9c0,0.4,0.1,0.9,0,1.3c-0.1,0.6-0.2,1-0.2,1.5"/>
	<path class="st7" d="M228.4,408.2c0.5,1.1,0.2,2.9,0.2,4c0,0.7,0,0.8,0.2,1.5c0.7,2.6,1.7-5.4,0.5-5.4c-0.8,0-0.2,3.2,0,3.5"/>
	<path class="st4" d="M192,315.8c-0.3,0.3-0.8,0.4-1.2,0.3c-0.7-0.2,0.1-1.5-0.3-2c-1.9-2.5-3.9-5.6-6.1-7.7
		c-3.1-3.1-8.8-3.1-12.8-4c-5-1.3-9.7-4.5-14.5-6.4c-1.8-0.7-4.5-0.4-6.4-0.7c-2.5-0.4-5-1.5-7.4-2c-3.1-0.6-6.6,0.1-9.8-0.3
		c-6-0.9-11.8-3-17.8-4c-5.9-1-12-1.2-17.8-2.4c-3.8-0.8-7.3-3-10.8-4.4c-4.6-1.8-9.8-4.2-13.8-7.4c-2.6-2.1-4.8-5.4-6.4-8.1
		c-2.7-4.5-6.3-8.9-7.4-14.1c-1.5-7.6,3-13.4,5.7-19.8c3.2-7.4,6.2-14.8,8.4-22.5c0.7-2.3,2.3-4.4,2.7-6.7c2.2-13.2-0.3-27,1.3-40.4
		c1.1-8.5,5-18,8.7-25.6c1.1-2.3,3.4-4.2,5-6.1c3.7-4,7-8.3,10.8-12.1c3.7-3.7,7-8.2,11.1-11.4c2.2-1.8,4.7-2.6,7.1-4
		c6.6-3.9,12.8-7.9,20.2-9.8c3.9-1,8.5,0.3,12.4-0.7c3.3-0.8,6.7-1,10.1-1.7c2.3-0.5,4.8,0.2,7.1-0.3c4.7-1.2,9.7-0.9,14.5-1.7
		c12.7-2.1,25.2-1.9,38-0.3c4.7,0.6,9.1,2.8,13.8,3.7c11.9,2.4,23.3,4.9,33.6,11.8c4.7,3.1,9.3,7.2,13.1,11.1
		c1.7,1.7,2.6,4.3,4.4,6.1c1.3,1.3,3.4,2.1,4.7,3.4c2.4,2.4,5.5,5.7,7.4,8.7c3.7,6.2,6.8,13.7,9.1,20.5c0.8,2.3,0.3,5.3,0.7,7.7
		c1.2,7.4,1.6,15,2.7,22.5c0.6,4.5,0,9.6,0,14.1c0,2.9,0.6,6.6,0,9.4c-0.6,2.8-0.8,6.5-0.3,9.4c1.5,8.8,3.7,17.1,7.7,25.2
		c2.8,5.6,9.1,13,6.4,19.8c-2.3,5.7-7.5,11.7-12.8,14.8c-3.7,2.2-8.2,3.1-12.1,5c-12.3,6.2-25.3,8.2-38.7,10.1
		c-2.9,0.4-5.6,1.9-8.4,2.4c-8.8,1.5-17.2,3-25.9,4.7c-3.3,0.7-6.8,0.7-10.1,1.7c-3.1,0.9-5.7,2.7-8.7,3.7
		c-4.5,1.5-10.6,2.5-14.1,6.1C194,312.6,193.4,314.6,192,315.8z"/>
	<path class="st8" d="M30.4,408.3c1.8,0.9,3.7,0.8,5.6,1.1c2.5,0.4,4.9,1.8,7.4,2.2c7.5,1.3,14.6,6.3,22.2,6.3"/>
	<path class="st8" d="M33.4,399c5.5,2.8,10.7,4.4,16.7,5.6c3,0.6,5.9,2.4,8.9,3c2.8,0.5,6.4,0.2,8.9,1.5"/>
	<path class="st8" d="M326.5,412c8.8,0,18-3.5,26.3-6.3"/>
	<path class="st8" d="M325,404.5c7.2,0,16.2-2.7,22.6-5.9"/>
	<path class="st9" d="M70.6,432.1c2.5,2.5,5,1,8.2,1.8c1.8,0.5,11.7,4.1,13.5,4.5c5,1,10,2.6,15,4.2c3.8,1.2,7.7,2.3,11.6,3.1
		c3.3,0.7,5.9,3.6,9.4,4.2c7.6,1.3,15.3,2.6,22.9,3.6c4.5,0.6,9.1,0.2,13.5,1c4.2,0.8,8.7,0.2,13.2-0.2c3.9-0.4,7.7-0.7,11.3,0.2
		c4.6,1.1,10.9,2.6,15.6,2.6c2.4,0,5.6-1.6,7.8-1c1.6,0.4,3.5,0.7,5.5,0.9c6,0.5,13,0.1,17.9-0.9c3-0.6,6.3,0.4,9.4,0
		c3.1-0.4,6.2-0.9,9.3-1.3c3.7-0.5,7.4-1.1,11-1.8c3.4-0.7,6.6-2.5,9.9-3.1c5.8-1.2,11.9-2.2,17.7-3.6c4.2-1,7.8-4.4,12-5.2
		c2.7-0.5,3.5-1.9,6.2-2.6c2.9-0.7,8.2-6.2,11.2-6.2"/>
	<path class="st9" d="M74.8,442.5c2.5,2.5,5.2,2.9,8.3,3.6c1.8,0.5,3.4,2.2,5.2,2.6c8.9,1.8,17.5,5.5,26.6,7.3
		c3.3,0.7,5.9,3.6,9.4,4.2c7.6,1.3,15.3,2.6,22.9,3.6c4.5,0.6,9.1,0.2,13.5,1c7.8,1.6,16.8-1.9,24.5,0c4.6,1.1,10.9,1.6,15.6,1.6
		c2.4,0,5.6-0.6,7.8,0c3.3,0.8,7.5,1.2,11.7,1.1c4.2,0,8.4-0.5,11.7-1.1c3-0.6,6.3,0.4,9.4,0c3.6-0.5,7.2-1,10.8-1.5
		c3.2-0.5,6.3-1,9.5-1.6c3.4-0.7,6.6-2.5,9.9-3.1c5.8-1.2,11.9-2.2,17.7-3.6c4.2-1,7.8-4.4,12-5.2c2.7-0.5,3.5-1.9,6.2-2.6
		c2.9-0.7,8.2-6.2,11.2-6.2"/>
</g>
<g id="head" vectornator:layerName="head">
	<path class="st10" d="M230.9,209.8c1.7,0.7,11.3-3.5,14.1-4.2c4.5-1.1,11.2-3.5,15.3-5.6c2.8-1.4,5.6-3.7,8.7-4.5
		c6.7-1.7,13.1-4.8,19.5-8c4.7-2.4,9.1-5.7,14.2-7c0.9-0.2,3.2-2.1,4.2-0.7c1.8,2.7-0.3,15.3-1,18.4c-0.8,3-0.9,6.4-2.1,9.4
		c-2.6,6.6-7.2,11.8-10.8,17.7c-3.2,5.3-7.2,11.2-12.2,14.9c-2.2,1.7-3.6,4.2-5.9,5.9c-4.8,3.6-11.6,4.9-17.4,3.5
		c-3-0.8-6.8-2.7-9-4.9c-1-1-1.3-2.6-2.4-3.5c-5.7-4.3-9.1-9.8-12.2-16c-2.4-4.8-3.2-7.4-4.5-12.5C228.9,211.5,229,209,230.9,209.8z
		"/>
	<path class="st10" d="M84.9,180.4c0.3,2.6,3.8,2.4,6.1,3c5.2,1.3,10.1,3.6,15.3,4.9c2.4,0.6,4.5,2,6.9,2.4c9.4,1.6,18.9,4.4,27.8,8
		c2.9,1.2,5.7,3.6,8.3,5.2c3.2,1.9,7,1.8,9.7,4.5c0.9,0.9,0.9,2.7,1,3.8c0.9,5.6,0.3,9.8-1,15.3c-1,4.2-1.6,9.2-4.9,12.5
		c-10.6,10.6-30.2,11.3-42.1,2.4c-4.4-3.3-8.2-8.9-11.5-13.2c-1.1-1.5-1.3-3.8-2.4-5.2c-1.9-2.5-4.1-5.1-5.6-8
		c-3.5-7-7.3-15.8-7.3-24c0-3.2-1-6.5-1-9.7c0-0.2-0.1-2.9,0.3-2.8C85,179.7,84.9,180.1,84.9,180.4z"/>
</g>
<g id="shoes" vectornator:layerName="shoes">
	<g>
		<path class="st11" d="M41.7,559.3c-0.5,0.8,0.8-1.5,1-1.9c0.7-1.5,1-3.2,2.1-4.6c2.4-3.2,8.9-7.8,12.8-9.4
			c7.9-3.2,15.2-7.8,21.8-12.8c1.2-0.9,3.1-1.4,4.2-2.5c1.1-1.1,2.4-2.5,3.6-3.4c1.1-0.9,2.8-1.3,3.8-2.3c2.6-2.6,4.9-5.5,8-7.8
			c4.2-3.1,7-7.4,10.7-11.1c2.9-2.9,6.3-5.6,9.2-8.4c2.2-2.2,1-0.3,4.2-4.4c0.9-1.1,2.2-6.6,2.2-6.6s1.1-2.8,3.9-4.9
			c2.6-1.9,4.3-3.1,5.6-2.9c2.4,0.3,5.2-0.1,8.5,1.9c0.9,0.5,3.7,2.4,4.9,3.4c1.6,1.4,2.2,2.2,2.7,3.3c0.5,1.2,1.6,1.8,1.6,3
			c0,1.8,0.8,3.3,0.6,4.5c-0.2,1,0-1.3,0,3c0,1.5-0.6,4.8-0.6,6.3c0,1,1.8,4.1,1.8,4.1s3.3,1.7,3.7,1.6c2.7-0.9,4.2-4.3,5.1-5.8
			c1.1-1.7,1.4-1.4,1.4-2.6c0-2.7,0-0.8,0-1.4c0-0.2,0.8-1.4,0.8-4.2c0-2.2,0.2-2.1,1.2-3.6c0.8-1.4,1.4,0.6,2.4,1.1
			c0.1,0.1,0.2,2.1,0.4,3.6c0.1,1.4,0.7,3.4,0.7,3.8c0.4,5-0.1,4.7-1.1,9.4c-0.3,1.7,0.6,4.5,0.6,6.2c0.1,3.4-0.5,2.7,0,5.1
			c0.2,1-2.1,8.9-2.6,9.1c-0.3,0.1,0.2,0.2,0,0c-0.3-0.3-3.5,3.2-3.9,3.5c-2.1,1.6-2.5,1.8-4.9,3.3c-1.6,1-6.1,1.1-8.2,2.7
			c-1.5,1.1-0.4-1-1.6,0.2c-2.1,2.1-4.6,1.7-7,3.5c-2.4,1.8-6.3,0.7-8.4,2.8c-1,1-2.6,1.3-3.8,1.8c-2.7,1.1-5,1.9-6.9,3.9
			c-1.6,1.6-4.2,3.5-5.7,5c-5.4,5.4-9.2,11.1-16.9,14.2c-2.6,1-5.7,2.3-8.4,2.9c-1,0.2-2.1-0.2-3.1,0c-3.4,0.7-6.8,2.3-10.3,2.9
			c-3.2,0.5-7.6,0.1-10.7-0.4c-2.5-0.4-5.7,0.7-7.8-0.4c-3.2-1.6-3.7-5.1-5.9-7.3c-2.6-2.6-5.8-4.8-9.6-5.5
			c-0.6-0.1-2.2-1.1-1.9-1.7C42,559,42,559,41.7,559.3z"/>
		<path class="st12" d="M113,558c-0.8,0.8,1.4-1.4,1.6-1.9c0.9-1.8,3-2.3,4.3-3.6c3-3,9.8-7.5,14.1-8.4c1-0.2,3.7-1.7,4.5-1.3
			c1.3,0.6-0.1,8.1,1.5,8.4c4.1,0.8,7.5-1.9,11.2-2.7c3-0.6,5.7-1.8,8.7-2.4c0.9-0.2,1.5-1.2,2.3-1.3c1.4-0.3,3-0.9,4.1-1.7
			c2-1.5,5.2-2.7,5.7-5.5c0.7-3.4-3-6.2-3.5-9.3c-0.3-1.7,1-2.8,1.3-4.4c0.2-0.7,0-4.5,0.4-4.9c0.2-0.2,1.2,1.1,1.2,1.3
			c0.4,2,0.9,4.1,1.3,6.1c0.2,1,1,2,1.2,3.1c0.5,2.5,0.8,5.1,1.3,7.6c0.3,1.4,0.8,3.2,0.5,4.7c-0.8,4.2-5.4,3.9-7.9,5.7
			c-2.8,2.1-6.4,2.4-9.6,3.1c-1.2,0.2-2.2,1.2-3.3,1.5c-4.4,0.9-8.7,2.3-13.1,3.2c-1.7,0.3-3.2,1.4-4.9,1.7
			c-5.7,1.1-15.3,4.5-19.6,8.8c-1.8,1.8-4,3.2-6.1,4.8c-3,2.3-5.7,5.6-9.3,7.1c-2.4,1-5,1.2-7.5,1.7c-8.7,1.7-17.9,1.7-26.6,0
			c-1.6-0.3-3.2-0.1-4.8-0.4c-2.5-0.5-4.2-1.3-6.3-2.5c-1.5-0.9-3.3-1.1-4.8-2.3c-0.7-0.5-2-0.8-2.8-0.9c-1.2-0.2-1.9-1.3-2.7-2.1
			c-1.5-1.5-4.2-2.7-4.7-5.1c-0.2-0.8,0.2-5.8,0.9-6.1c1.3-0.6,4.3,1.7,5.2,2.4c0.8,0.6,1.8,0.5,2.7,0.9c1.6,0.8,3.6,2.4,4.9,3.7
			c0.9,0.9,0.6,2.1,1.1,3.1c0.5,1,1.4,2.4,2.1,3.2c1.3,1.3,3.7,0.7,5.3,1.1c3.9,0.8,9.4,1.2,13.3,0.4c4.2-0.8,9-1.6,12.9-3.2
			c0.9-0.4,2.1-1.1,3.1-1.3c3.3-0.7,7.4-0.8,10.3-2.9c2.6-2,4.8-4.1,7.1-6.4C110.8,560,113.1,557.9,113,558z"/>
		<path class="st13" d="M137.4,542.8c-0.2-0.1,2.4-0.7,2.7-0.8c2.6-0.9,4.8-2.6,7.3-3.6c5.3-2.1,12-3.7,16.7-7.2
			c1.2-0.9,2.2-2.4,3.2-3.1c0.2-0.2,0.5,0.6,0.5,0.7c0.9,1.8,2.7,3.5,3.1,5.6c0.3,1.5,0.6,3.9-0.7,5.2c-5.8,5.8-15.5,8-23.4,9.6
			c-2.6,0.5-5.9,2.4-8.5,1.3C137.8,550.3,138.8,543.9,137.4,542.8z"/>
		<path class="st14" d="M117,553.4c0.4-0.8,1.5-0.8,2.1-1.4c1.1-1.1,2-1.8,3.3-2.8c0.5-0.4,0.9-0.9,1.3-1.4c1.2-1.2,3.1-2.1,4.6-3.2
			c1-0.8,2.3-1,3.4-1.7c2.9-1.7,6.4-3.8,8.5-6.6c2.1-2.8,4.5-5.4,6.6-8.2c1-1.3,1.5-2.5,3.1-2.9c1.7-0.4,3.7,0.2,5.3,0.5
			c2.5,0.4,5,0.6,7.4,1.4c0.8,0.3,3.5,0.2,3.9,1"/>
		<path class="st15" d="M152.6,525l-7.2,5.7"/>
		<path class="st15" d="M154.6,526c-0.4,0.5-1,0.9-1.5,1.3c-2.9,2.8-5.7,5.5-9.2,7.6c-1.4,0.8-2.6,1.9-4,2.8
			c-0.3,0.2-1.8,1.3-1.4,1.2"/>
		<path class="st15" d="M157.3,526.4c-2.8,2.8-5.5,5.6-8.8,7.8c-1.3,0.8-2.4,2.1-3.7,2.9c-1.6,0.9-3.3,2-4.7,3.3
			c-0.4,0.4-0.9,0.8-1.4,1.2c-0.1,0.1-0.8,0.4-0.5,0.3"/>
		<path class="st15" d="M159.9,526.9c0.1-0.1-0.7,0.8-0.9,1c-0.6,0.6-1.2,1.2-1.8,1.8c-0.6,0.5-0.9,1.2-1.4,1.7
			c-1.5,1.5-3.4,2.6-5,4c-0.2,0.1-4,2.8-3.2,2.7"/>
		<path class="st15" d="M162.2,527.4c-0.5,0.3-0.6,0.9-0.9,1.4c-0.7,1.2-2.2,2.7-3.1,3.7c-0.6,0.6-1.1,1.1-1.6,1.8
			c-0.1,0.2-0.7,0.9-0.5,0.7"/>
		<path class="st15" d="M149,527c3.5,0.3,7.1,1.2,10.6,1.7c1.2,0.2,2.4,0.5,3.6,0.6c0.3,0,1.5,0.3,1.3,0.2"/>
		<path class="st15" d="M146.5,529.6c0,0.2,3.5,0.6,4,0.7c1.7,0.3,3.5,0.2,5.2,0.4c2.2,0.4,4.9,1.2,7.1,0.9"/>
		<path class="st15" d="M144.7,531.8c0.3,0.4,1.9,0.5,2.4,0.6c2.5,0.5,5.2,1.3,7.7,1.7c1,0.1,2,0.5,3,0.6c0.3,0,1.3,0.1,1.2,0.1"/>
		<path class="st15" d="M142.3,534.3c3.3,1.7,7.4,1.5,10.8,2.7"/>
		<path class="st15" d="M139.8,536.8c1.9,0.5,3.9,0.9,5.8,1.2c0.8,0.1,1.9,0,2.7,0.3"/>
		<path class="st15" d="M138,539.2c-0.1,0,1.6,0.4,2.2,0.5c1.3,0.2,3,0,4.2,0.5"/>
		<path class="st15" d="M134.6,541.2c0.9,0.3,2.4,0.8,3.5,0.8c0.7,0,1.5-0.2,2.1,0.1"/>
		<path class="st16" d="M50.7,551.2c2.2,3.3,6,5.2,9.1,7.6c0.9,0.7,1.4,1.9,2.5,2.4c0.4,0.2,4.3-2.3,4.4-2.6
			c0.1-0.5-1.2-1.4-1.6-1.8c-0.6-0.7-3.9-3.8-4-4.3c-0.2-0.7,1.4-1.8,1.9-2.1c1.9-0.9,5.7,4.5,8,5c0.4,0.1,2-1.5,2.4-1.7
			c0.2-0.1,1.5-0.5,1.5-0.8c-0.2-0.7-2.3-1.9-2.9-2.5c-1.5-1.9-7.1-6.7-9.6-6.7c-0.6,0-3,1.8-4.1,2.1c-0.2,0-0.4,0-0.5,0.2
			c-0.1,0.2,0.4,0.3,0.4,0.3c0.4,0.2,2.9,1.7,2.9,2.2c0,0.4-1.4,1.2-1.6,1.5c-1.7,1.7-3.3-0.9-5.1-1.4
			C53.6,548.4,50.2,550.5,50.7,551.2z"/>
		<path class="st16" d="M67,542.4c-0.3-0.7,2.6-2.4,3.5-2.2c0.6,0.2,1.1,0.8,1.6,1.1c1.2,0.9,4.9,2.9,6.4,3.2c1,0.2,3.1,1.3,4.1,0.3
			c1.7-1.7-3.2-5.2-4.5-5.7c-0.5-0.2-3.3-1.2-3.1-1.5c0.6-0.8,1.3-1.9,2.3-2.2c0.8-0.2,2,0.8,2.6,1.2c2,1.3,4.8,2.4,6.4,4.2
			c1.2,1.4,1.5,3.5,0.1,4.9c-0.7,0.7-2.1,0.9-2.9,1.3c-4.5,2.3-9.9-0.8-13.8-3.4C69.1,543.3,67.3,543.1,67,542.4z"/>
		<path class="st16" d="M99,538.9c0.1,0.2-3.7,2.6-3.8,2.6c-0.1,0-0.1,0-0.2,0c-0.8-0.5-1.5-2.2-2.1-2.9c-1.6-2.1-3.4-3.9-5.2-5.7
			c-0.3-0.3-2-2.2-1.6-2.8c0.8-1.2,2.5-2.2,3.5-3.2c0.4-0.4,0.8-1.4,1.4-1.6c1.5-0.8,7.8,0.9,9.4,1.5c1,0.3,1.8,1.1,2.8,1.4
			c1.1,0.4,3.3,1.1,3.9,2.2c0.1,0.2-0.4,0.4-0.5,0.5c-0.3,0.3-3.9,3-4,2.9c-0.5-0.2-2.8-2.1-3.4-1.6c-0.6,0.6-0.9,1.4-1.5,2
			c-0.3,0.3-1.2,0.8-1.2,1.3C96.5,536.6,98.7,537.8,99,538.9z"/>
		<path class="st17" d="M95.1,529.7c-0.3,1.1-1.3,2.1-2.1,2.6c-0.1,0.1-0.5-0.1-0.6-0.2c-0.3-0.2-3.5-3.5-3.5-3.5
			c0-0.3,1.2-0.2,1.5-0.3C91.3,528.1,95.4,528.5,95.1,529.7z"/>
		<path class="st16" d="M108.3,519.3c1.8,0.9,3.2,2.1,4.6,3.5c0.4,0.4,1.3,0.5,1.6,1c0.3,0.5-2.6,3.5-3.3,3.3
			c-1.3-0.4-2.9-2.5-3.8-3.4c-0.9-0.9-3.1-2.2-4.2-2.9c-1.1-0.6-2-1.4-3.1-2c-0.2-0.1-1.9-0.6-1.7-0.8c1.1-1.1,3.3-2.8,4.9-3.2
			c1.5-0.4,3.6,0.2,5.2,0.2c1.2,0,2.5,0,3.7,0c0.5,0,1.1,0,1.6,0c0.1,0,0.2,0.1,0.2,0c0-0.1-1.4-0.7-1.6-0.8c-0.3-0.2-1-0.7-1.9-1.3
			c-1.5-1-3.3-2.2-3.3-2.5c0-0.3,0.9-0.8,1.1-1c0.2-0.3,1-1.8,1.3-1.7c2.2,0.5,4.3,3.2,6,4.5c1,0.8,2.4,1.3,3.2,2.3
			c0.4,0.5,2,1,2.2,1.6c0.1,0.2-0.8,0.8-1,1c-0.5,0.5-0.8,1.4-1.3,1.9c-0.1,0.1-6.2-0.1-6.9-0.1c-0.9,0-1.7,0.1-2.6,0.1
			c-0.3,0-0.5-0.1-0.8-0.1c-0.2,0-0.7-0.2-0.5-0.1C108,519.1,108.2,519.3,108.3,519.3z"/>
		<path class="st18" d="M169.4,514.7c-0.2,0.8,0.2-1,0.2-1.3c0-1,0.2-2,0.2-3c0-1.8,0-3.7,0.1-5.5c0.1-1.4,0.6-2.9,0.4-4.3
			c-0.1-0.7,0.2-2.9-1.1-3c-0.7-0.1-1,1.5-1.3,2c-0.7,1.2-0.8,2.6-1.4,3.7c-0.6,1.1-1.2,2.2-1.9,3.3c-0.7,1.2-3.5,3.4-4.8,3.8
			c-0.9,0.3-2.7,0.4-3.2,1.3c-0.4,0.8,0.5,2.8,0.8,3.5c1.1,3.3,5.9,0.9,7.5-0.6c0.4-0.4,1.7-1.4,2.3-1.4c1.2,0.1,1.2,3.3,1.9,3.5
			C169.2,516.9,169.6,513.9,169.4,514.7z"/>
		<path class="st19" d="M167.3,489.2c0.4-1.6,2.7-7.5,4.5-8c0.8-0.3,5.6,1.9,5.6,3.5c0,1.1-1.9,0.6-2.4,1.5
			c-0.7,1.6-2.4,6.7-3.4,7.9c0,0,0,0.1,0,0.1c-0.4,1.2-0.8,2.5-1.2,3.7c0,0.1-0.3,0.6-0.3,0.6c-0.2-0.2-0.3-4-0.5-4.6
			c-0.4-1.2-0.4-1.8-0.8-3C168.7,490.4,167.3,489.5,167.3,489.2z"/>
		<path class="st20" d="M170.1,497.7c0.3-0.8,2.5-6.8,4.2-10.2c0.9-1.7,1.7-2.2,1.9-2.1c0.5,0.1,1.3,0.5,1.1,1.4
			c-0.5,1.9-2.1,3.4-3.3,4.9c-0.5,0.6-0.7,1.6-1.1,2.3c-1,1.7-2,3.8-2.6,5.5"/>
		<path class="st21" d="M168.7,488.9l0.1-0.1l0.1-0.2l0-0.1l0-0.1l0,0"/>
		<path class="st21" d="M169.3,487.3c0.3-0.2,0.3-0.6,0.5-1"/>
		<path class="st21" d="M170.2,485.2l0.1-0.1l0.2-0.3l0-0.1l0.1-0.1l0.1-0.1l0,0"/>
		<path class="st21" d="M171.3,483.6l0.1-0.2l0-0.2l0.1-0.2l0,0"/>
		<path class="st21" d="M172.1,482.4c0.3-0.2,0.2-0.1,0.4-0.3"/>
		<path class="st21" d="M170.3,493.8l0,0.1L170.3,493.8l0.1-0.1l0-0.1l0.1-0.1l0-0.1l0.1-0.1l0.1-0.2l0,0"/>
		<path class="st21" d="M171,491.8l0.1-0.2l0.1-0.2l0.1-0.1l0-0.1l0,0"/>
		<path class="st21" d="M171.8,489.8l0.1-0.2l0.1-0.2l0.1-0.2l0.1-0.2l0,0"/>
		<path class="st21" d="M172.7,487.9l0.1-0.2l0-0.1l0-0.1l0.1-0.2l0,0"/>
		<path class="st21" d="M173.6,486.2l0.1-0.1l0.2-0.2l0.1-0.1l0.1-0.1l0.1-0.1l0,0"/>
		<path class="st21" d="M174.7,484.8l0.1-0.1l0.1-0.1l0.2-0.1l0.1-0.1l0.1-0.1l0,0"/>
		<path class="st21" d="M176.1,484.1c0.1-0.1,0.1-0.1,0.2-0.1"/>
		<path class="st21" d="M158,512.9l0.1,0.3l0.1,0.1l0.1,0.1l0,0"/>
		<path class="st21" d="M158.5,514.5l0.1,0.3l0.1,0.1l0.2,0.4l0,0"/>
		<path class="st21" d="M159.4,515.9l0.1,0l0.2,0.1l0.2,0l0.2,0l0,0"/>
		<path class="st21" d="M161.3,515.7L161.3,515.7l0.2-0.2l0.2-0.1l0,0"/>
		<path class="st21" d="M162.7,514.8l0.2-0.1l0.2,0l0.1-0.1l0.2-0.1l0,0"/>
		<path class="st21" d="M164.3,513.7l0.2-0.1l0.2-0.1l0.2-0.1l0.1-0.1l0,0"/>
		<path class="st21" d="M158.3,512.2l0.2,0l0.3-0.1l0.1-0.1l0.2,0l0,0"/>
		<path class="st21" d="M160,511.8L160,511.8l0.3-0.1l0.2,0l0.1-0.1l0,0"/>
		<path class="st21" d="M161.8,511l0.2,0l0.2-0.1l0.1-0.1l0.1-0.2l0,0"/>
		<path class="st21" d="M163.4,509.7l0.2,0l0.1-0.1l0.1-0.1l0,0"/>
		<path class="st21" d="M164.4,509l0.1,0.2l0.1,0.1l0,0.2l0,0"/>
		<path class="st21" d="M165,510.2l0,0.2l0,0.2l0.1,0.2l0,0.2l0,0"/>
		<path class="st22" d="M165.5,511.8l0.1,0.2l0.1,0.2l0.1,0.2l0,0"/>
		<path class="st23" d="M136.3,478.3l0.3,0l0.3,0l0.3,0l0.2,0l0,0"/>
		<path class="st23" d="M139,478.4l0.6,0l0.4,0l0.2,0.1l0.3,0.1l0,0"/>
		<path class="st23" d="M142,479.3l0.2,0.1l0.9,0.3l0.3,0.1l0,0"/>
		<path class="st23" d="M145.1,481.1l0.3,0.1l0.3,0.2l0.1,0.2l0,0"/>
		<path class="st23" d="M148.1,483.2l0.4,0.3l0.1,0.2l0.1,0.2l0.2,0.3l0,0"/>
		<path class="st23" d="M150.1,485.6c0.3,0.5,0.6,0.8,0.9,1.5"/>
		<path class="st23" d="M152.1,489.5l0,0.3l-0.1,0.3l0,0.2l-0.1,0.2l0,0.3l0,0"/>
		<path class="st23" d="M152,493.6l0,0.2l-0.1,0.2l0,0.6l-0.1,0.3l-0.1,0.2l0,0"/>
		<path class="st23" d="M151.4,497.6l0,0.6l-0.1,0.3l0,0.4l0,0.2l0,0"/>
		<path class="st23" d="M151.1,502c0.1,0.7,0.4,1.4,0.4,2.1"/>
		<path class="st23" d="M152.3,505.7c0.4,0.5,0.8,1,1.3,1.3"/>
		<path class="st23" d="M154.8,508.1c0.6,0.2,1.1,0.6,1.7,0.5"/>
		<path class="st23" d="M158.5,508.4l0.5,0l0.2-0.1l0.2-0.1l0.2-0.2l0,0"/>
		<path class="st23" d="M161,507c0.4-0.6,0.3-0.3,0.3-1"/>
		<path class="st23" d="M162.6,504.6l0.1-0.3l0.1-0.2l0.1-0.2l0.1-0.3l0.1-0.2l0,0"/>
		<path class="st23" d="M164.1,502l0.1-0.2l0.1-0.3l0.1-0.2l0.1-0.3l0.1-0.2l0,0"/>
		<path class="st23" d="M165.2,499.6l0.2-0.1l0.1-0.3l0-0.3l0.1-0.2l0-0.2l0,0"/>
		<path class="st23" d="M166,496.8l0-0.4l0.1-0.3l0-0.5l0.1-0.2l0,0"/>
		<path class="st23" d="M166.7,493.6c0-0.6,0.1-1.1,0.1-1.6"/>
		<path class="st23" d="M167,491.2c0.2-0.3,0.1-0.2,0.3-0.4"/>
		<path class="st23" d="M133.8,479.7l0.2-0.1l0.2,0l0.4-0.1l0.3,0l0.2-0.1l0,0"/>
		<path class="st23" d="M136.7,479.5c0.7-0.1,1.1,0,1.7-0.1"/>
		<path class="st23" d="M140.1,479.7c0.5,0.2,1.2,0.3,1.7,0.4"/>
		<path class="st23" d="M142.9,481.2c0.6,0.2,1.1,0.7,1.7,1"/>
		<path class="st23" d="M146.1,483.6c0.4,0.6,1,0.4,1.3,1.3"/>
		<path class="st23" d="M148.6,485.9l0.1,0.2l0.1,0.2l0.2,0.3l0.1,0.4l0.1,0.4l0,0"/>
		<path class="st23" d="M149.9,489.2l0.1,0.2l0.1,0.2l0,0.3l0,0.3l0,0.2l-0.1,0.2l0,0"/>
		<path class="st23" d="M150.3,492.8c0.1,0.7,0.1,1.4-0.1,2"/>
		<path class="st23" d="M150.2,496.3c0.1,0.6-0.1,1.2,0,1.9"/>
		<path class="st23" d="M149.8,500.5l0,0.5l0,0.2l0,0.4l0,0.3l0,0"/>
		<path class="st23" d="M150.2,504.8l0,0.2l0.2,0.1l0.3,0.5l0.1,0.2l0.1,0.2l0,0"/>
		<path class="st23" d="M151.9,507.8c0.7,0.4,1.3,0.7,2.1,0.9"/>
		<path class="st23" d="M156,509.6c0.7,0.1,1.4,0.2,2-0.2"/>
		<path class="st23" d="M160.1,509l0.3,0l0.2-0.3l0.2-0.2l0.1-0.2l0.1-0.2l0.1-0.2l0,0"/>
		<path class="st23" d="M162.7,506.9l0.2-0.1l0.3-0.3l0.1-0.2l0.1-0.2l0.1-0.2l0.1-0.2l0,0"/>
		<path class="st23" d="M164.2,504l0.1-0.3l0.1-0.2l0.1-0.2l0-0.2l0.1-0.3l0-0.2l0,0"/>
		<path class="st23" d="M165.1,500.9l0.1-0.2l0.1-0.3l0.1-0.3l0-0.4l0.1-0.2l0,0"/>
		<path class="st23" d="M166.4,498c0.1-0.6,0.3-1.3,0.5-1.8"/>
		<path class="st23" d="M167.2,493.5l0-0.2l0.1-0.2l0.1-0.2l0-0.3l0,0"/>
		<path class="st23" d="M167.8,491.7c0.2-0.4,0.1-0.2,0.2-0.7"/>
		<path class="st23" d="M43.8,558c0.7,0.4,1.2,0.6,2,0.8"/>
		<path class="st23" d="M47.7,560.1l0.6,0.3l0.6,0.4l0.2,0.1l0,0"/>
		<path class="st23" d="M52.4,562.4l0.2-0.1l0.6,0.4l0.1,0.2l0.2,0.2l0.4,0.3l0.2,0.1l0,0"/>
		<path class="st23" d="M55.9,565.2l0.2,0.3l0.5,0.5l0.2,0.4l0,0"/>
		<path class="st23" d="M57.4,568.2l0,0.3l0.1,0.8l0.2,0.5l0.1,0.2l0.2,0.2l0,0"/>
		<path class="st23" d="M59,571.5l0.1,0.3l0.2,0.3l0.4,0.1l0.6,0.2l0.3,0.1l0,0"/>
		<path class="st23" d="M63.5,572.9c0.9-0.1,2.4-0.4,3.2-0.1"/>
		<path class="st23" d="M69.9,573.1c0.9,0.2,1.7,0.3,2.6,0.4"/>
		<path class="st23" d="M75.2,573.3c0.8-0.1,1.5-0.2,2.3-0.2"/>
		<path class="st23" d="M81.2,572.3l0.5-0.3l0.4,0l0.5-0.1l0,0"/>
		<path class="st23" d="M86,570.9l0.4-0.3l0.6-0.3l0.3-0.2l0,0"/>
		<path class="st23" d="M91,569.4c0.4,0.6,2.1-0.5,2.6-0.7"/>
		<path class="st23" d="M96.8,568l0.2-0.1l0.5-0.2l0.7-0.4l0.4-0.2l0,0"/>
		<path class="st23" d="M100.5,566.3c0.6-0.3,1.4-0.9,2-1.3"/>
		<path class="st23" d="M104.6,563.4c0.7-1.1,1.4-1.9,2.5-2.5"/>
		<path class="st23" d="M108.5,559.6c0.7-0.3,1.5-1.5,2.1-2.1"/>
		<path class="st23" d="M112.5,556l0.2-0.1l0.6-0.7l0.4-0.5l0,0"/>
		<path class="st23" d="M115.6,552.7l0.1-0.2l0.5-0.3l0.3-0.2l0.5-0.4l0,0"/>
		<path class="st23" d="M119.1,549.4c0.8-0.5,1.3-1.1,2-1.7"/>
		<path class="st23" d="M122.5,545.8c0.8-0.4,1.6-1,2.3-1.5"/>
		<path class="st23" d="M127.2,543c0.7-0.3,1.6-0.9,2.4-1"/>
		<path class="st23" d="M168.3,517.9c0,0.3,0.1,0.7,0.1,1"/>
		<path class="st23" d="M167.6,520.3l0,0.5l-0.1,0.3l-0.2,0.4l0,0"/>
		<path class="st23" d="M166.8,523.5l0.1,0.2l-0.1,0.4l-0.1,0.2l-0.1,0.2l0,0"/>
		<path class="st23" d="M166.5,526c0,0.5,0.1,0.2-0.1,0.8"/>
		<path class="st24" d="M124.5,501.6c0.2,0.5,0.8-0.8,1.1-1.2c0.3-0.4,1.2-0.6,1.3-1.2c0.1-0.3-1.5-1.6-1.8-1.7
			c-3.3-1.4-8.2,1.2-9.6,4.4c-0.7,1.6,0.7,2.8,1.2,4.1c1.5,3.5,6.6,7.7,10.6,6.1c1-0.4,2.9-1.6,3.2-2.7c0.2-0.6-0.1-1.9-0.1-1.9
			s0.9,1.2,1.4,1c0.6-0.3,2.7-2.2,2.4-2.8c-0.3-0.7-4-3.9-4.5-3.8c-0.2,0-2.8,2.4-3,2.6c-0.3,0.5,0.5,1.8-0.1,2.9
			c-0.5,0.8-2.2,0.6-3,0.4c-1.9-0.6-4.3-3.8-2.7-5.7C121.5,501.6,123.8,500,124.5,501.6z"/>
		<path class="st24" d="M124.7,501.4c0.1,0.2,0.8-0.5,1-0.6c0.4-0.4,1.4-1,1.5-1.5"/>
		<path class="st25" d="M150,529c0.1-0.1,0.3-0.3,0.4-0.3c0.1-0.1-0.1,0.5-0.2,0.5c-0.4,0,0-0.8,0-1.2c0-0.7-0.1-1.3-0.3-2
			c-0.5-2-2.3-3.4-3.3-5c-1.2-2-3.7-4-5.2-6c-2.5-3.4-5-7.2-8.4-9.9c-2-1.6-4-3-6-4.6c-2.2-1.8-5-2.4-7.2-4.1
			c-0.4-0.3-2.3-1.3-2.9-0.8c-0.3,0.3-1.4,1.8-1.1,2.2c1.2,1.2,3.4,1.6,4.7,2.6c4.4,3.3,9.2,5.9,13,9.7c2.7,2.7,5,6.1,7.4,9.2
			c1.4,1.9,3.4,3.6,4.8,5.6c0.7,0.9,2.3,3.8,3.1,4.3c0.2,0.1,0.4,0.6,0.6,0.5C149.7,529.4,149.9,529.2,150,529z"/>
		<path class="st25" d="M117.5,499.5c0.1,1.7,2.2,3.1,3.1,4.4c2.1,3.2,4.6,6,7.3,8.7c0.8,0.8,1.9,1.4,2.6,2.3
			c1.5,1.9,3.2,3.7,4.9,5.3c2.5,2.5,4.3,5.5,6.8,8c0.3,0.3,2.3,3,2.6,1.7c0.7-2.6-2.6-5.6-4-7.4c-2.4-3.2-4.8-7-7.7-9.9
			c-1.8-1.8-3.7-3.4-5.4-5.1c-1.7-1.7-3.7-3.2-5.4-5c-0.8-0.8-1.2-1.8-2.1-2.4C119.8,500,117.5,498.9,117.5,499.5z"/>
		<path class="st25" d="M147.2,534c0-0.8-0.9-1.9-1.3-2.6c-1.2-2.1-2.1-4-3.6-5.9c-2.8-3.4-5.6-6.7-8.7-9.8
			c-0.7-0.7-1.3-1.7-2.1-2.3c-1.9-1.4-4.2-2.7-5.9-4.4c-0.9-0.8-2.4-0.9-3.3-1.8c-2.2-2.2-5.2-3.4-8-4.8c-1.2-0.6-2.8-1.6-4.1-0.3
			c-0.7,0.7-0.2,1.5,0.5,1.9c0.4,0.2,1.1,0.1,1.6,0.2c1.4,0.3,2.6,1.5,3.8,2.1c0.9,0.5,2.2,0.7,3,1.4c1.5,1.2,3.7,2,5.1,3.4
			c1.3,1.3,2.5,2.4,3.9,3.5c1.6,1.3,3,3.6,4.8,4.9c0.4,0.3,1,0.4,1.4,0.8c3.5,3.5,6.3,7.5,9.3,11.5c0.5,0.7,2.2,4,3,2.9
			C146.8,534.4,147.2,534,147.2,534z"/>
		<path class="st25" d="M112.4,499.8c0.1-0.5,0.2-0.9,0.6-1.3c2.4-2.4,6.1,5.7,7.2,7.2c0.7,1,0.9,2.3,1.7,3.2
			c2.7,3.6,5.6,6.7,8.3,10.3c2.1,2.8,3.5,6,5.3,9c1.6,2.7,5.1,7.3,4.4,10.7c-0.1,0.4-0.5,0.2-0.7,0.2c-1.4,0-2.3-1.8-3.1-2.8
			c-1.2-1.5-1.7-4-2.4-5.9c-0.9-2.3-2.9-4.1-4-6.4c-0.6-1.3-2-2.9-2.9-3.9c-0.9-0.9-1.3-2.5-2.1-3.6c-0.7-1-1.6-1.8-2.4-2.6
			c-0.8-0.8-1-2-1.7-2.8c-1.4-1.8-2.6-3.8-4-5.6C115.9,504.7,112.2,500.5,112.4,499.8z"/>
		<path class="st25" d="M117.4,496.3c0.9,0.9,0.6,2,1.1,3"/>
		<path class="st25" d="M119.5,496.7c0.3,1.1,1.2,2,1.2,3.2"/>
		<path class="st25" d="M122.7,498.5c0.5,1.2,0.4,2.8,1,3.9"/>
		<path class="st25" d="M125.1,500.3c0.5,0.9,0.6,2.1,0.6,3.1"/>
		<path class="st25" d="M127.7,501.6c0.5,1.1,0.1,2.3,0.5,3.4"/>
		<path class="st25" d="M129.9,502.9c0.7,1.3,0.5,2.7,0.8,4.1"/>
		<path class="st25" d="M132.7,505.9c0.5,1,0,2.4,0.5,3.3"/>
		<path class="st25" d="M134.8,507.6c0.4,1.2-0.1,2.8,0.4,3.8"/>
		<path class="st25" d="M136.5,510.5c0,0.5,0.1,2.9,0.5,3.1"/>
		<path class="st25" d="M138.7,512.3c0.2,0.6,0.2,3.1,0.7,3.4"/>
		<path class="st25" d="M140.8,514.9c0.3,1.2,0.1,2.9,0.6,4"/>
		<path class="st25" d="M143,518c0,0.9-0.2,2.6,0.2,3.5"/>
		<path class="st25" d="M145,519.8c0.4,1.1,0.3,2.2,0.3,3.4"/>
		<path class="st25" d="M146.9,522c0.5,0.9-0.1,4.2,0.1,4.3"/>
		<path class="st25" d="M148.9,525.2c0.5,1-0.5,1.7-0.5,2.7"/>
		<path class="st25" d="M149.6,527.7c-0.2,0.7,0,1.6-0.9,1.6"/>
		<path class="st25" d="M118.6,500.6c0.6,0.3,1.6,0.1,2.2-0.2"/>
		<path class="st25" d="M119.2,502.1c0.8,0.2,1.4-0.1,2.1-0.1"/>
		<path class="st25" d="M120,503.6c1,0.7,2.3-0.3,3.1-0.7"/>
		<path class="st25" d="M122.2,505.2c0.2,0.4,2-0.3,2.5-0.3"/>
		<path class="st25" d="M123.1,506.6c0.7,0.4,2.2-0.9,2.9-1.2"/>
		<path class="st25" d="M125,508c-0.2,0.5,2.2-0.6,2.5-0.6"/>
		<path class="st25" d="M126.3,509c0.7,0.7,2.1-0.1,2.9,0.3"/>
		<path class="st25" d="M128.7,510.7c0,0.6,1.9,0.3,2.4,0.3"/>
		<path class="st25" d="M130.2,512.3c0.6,0.3,1.6,0,2.3,0"/>
		<path class="st25" d="M132.4,513.8c0,0.6,1.1,0.4,1.5,0.6"/>
		<path class="st25" d="M133.7,515.6l0.2,0.2h0.6h0.2h0.3l0,0"/>
		<path class="st25" d="M134.9,516.5l0.2,0.2h0.4h0.2h0.2l0,0"/>
		<path class="st25" d="M136.1,518l0.1,0.2h0.2l0.2,0.1l0.3,0.1l0.4,0.1l0,0"/>
		<path class="st25" d="M137.8,519.4l0.2,0.2l0.3,0.1l0.2,0.1h0.2l0,0"/>
		<path class="st25" d="M138.6,520.6l0.2,0.2h0.3l0.2-0.1l0.2-0.1l0,0"/>
		<path class="st25" d="M113.6,499.1c0.3,0.8,1.2,2.3,0,2.9"/>
		<path class="st25" d="M115.2,499.3c0,1.2,0.3,2.5,0.3,3.8"/>
		<path class="st25" d="M116.6,501.5c0,1.2,0.2,2.3,0,3.5c-0.1,0.3-0.4,1.6-0.2,1.3"/>
		<path class="st25" d="M118.9,504.5c0.3,1.2-0.2,2.2-0.2,3.3"/>
		<path class="st25" d="M120.9,507.4c0,0.8-0.7,2.2-0.4,2.9"/>
		<path class="st25" d="M122.9,510.6c0.3,1-0.5,1.7-0.5,2.7"/>
		<path class="st25" d="M124.8,513.2c0,0.6-0.7,2.1-1,2.7"/>
		<path class="st25" d="M126.7,515.6c0,1-0.4,1.8-0.6,2.8"/>
		<path class="st25" d="M128.9,518.1c0,1.2-0.5,2.3-0.5,3.5"/>
		<path class="st25" d="M130.9,521.1c0,1.1-0.7,2.1-0.7,3.1"/>
		<path class="st25" d="M132.5,523.6c0,1.4-0.6,2.7-0.6,4.1"/>
		<path class="st25" d="M134.2,528.1c0,0.9-0.3,1.6-0.3,2.4"/>
		<path class="st25" d="M136.5,530.7c0,1.4-1.5,2.5-1.5,3.9"/>
		<path class="st25" d="M137.3,533.6c0,1.1-0.8,2-0.8,3.1"/>
		<path class="st25" d="M139.4,536c-0.4,0.7,0,1.8-0.9,2.3"/>
		<path class="st25" d="M110.8,502.1c0.3,0.6,0.6,1.9,1.1,2.2"/>
		<path class="st25" d="M112.1,502c0.2,0.4,0.9,2.2,1.3,2"/>
		<path class="st25" d="M113.7,502.8c0.2,0.9,1.2,1.6,1.6,2.5"/>
		<path class="st25" d="M122.5,508c0.3,0.7,0.6,1.3,1.2,1.8"/>
		<path class="st25" d="M125,508.9c0.2,0.7,1,3.6,1.9,3.1"/>
		<path class="st25" d="M128.2,511c0.7,1.3,0.7,3,1.4,4.4"/>
		<path class="st25" d="M131.2,513.6c0,0.9,0.1,3.8,1,4.4"/>
		<path class="st25" d="M133.8,516.7c0,1-0.4,3.1,0.3,3.9"/>
		<path class="st25" d="M136.1,519.3c0.3,0.9,0.1,2.6,1.1,3.1"/>
		<path class="st25" d="M138.9,522.4c0,0.7,0.2,3.1,0.6,3.5"/>
		<path class="st25" d="M141.4,525.1c0,1.3-0.2,2.5,0.4,3.6"/>
		<path class="st25" d="M143.1,528.6c0,0.6-0.2,2.3,0.3,2.6"/>
		<path class="st25" d="M145,530.9c0.3,0.7,0.1,1.6,0.8,2"/>
		<path class="st25" d="M146.6,532.8v0.2l-0.1,0.2v0.2l0.1,0.2l0,0"/>
	</g>
</g>
<g id="shoes_copy" vectornator:layerName="shoes copy">
	<g>
		<path class="st11" d="M364,559.3c0.5,0.8-0.8-1.5-1-1.9c-0.7-1.5-1-3.2-2.1-4.6c-2.4-3.2-8.9-7.8-12.8-9.4
			c-7.9-3.2-15.2-7.8-21.8-12.8c-1.2-0.9-3.1-1.4-4.2-2.5c-1.1-1.1-2.4-2.5-3.6-3.4c-1.1-0.9-2.8-1.3-3.8-2.3
			c-2.6-2.6-4.9-5.5-8-7.8c-4.2-3.1-7-7.4-10.7-11.1c-2.9-2.9-6.3-5.6-9.2-8.4c-2.2-2.2-1-0.3-4.2-4.4c-0.9-1.1-2.2-6.6-2.2-6.6
			s-1.1-2.8-3.9-4.9c-2.6-1.9-4.3-3.1-5.6-2.9c-2.4,0.3-5.2-0.1-8.5,1.9c-0.9,0.5-3.7,2.4-4.9,3.4c-1.6,1.4-2.2,2.2-2.7,3.3
			c-0.5,1.2-1.6,1.8-1.6,3c0,1.8-0.8,3.3-0.6,4.5c0.2,1,0-1.3,0,3c0,1.5,0.6,4.8,0.6,6.3c0,1-1.8,4.1-1.8,4.1s-3.3,1.7-3.7,1.6
			c-2.7-0.9-4.2-4.3-5.1-5.8c-1.1-1.7-1.4-1.4-1.4-2.6c0-2.7,0-0.8,0-1.4c0-0.2-0.8-1.4-0.8-4.2c0-2.2-0.2-2.1-1.2-3.6
			c-0.8-1.4-1.4,0.6-2.4,1.1c-0.1,0.1-0.2,2.1-0.4,3.6c-0.1,1.4-0.7,3.4-0.7,3.8c-0.4,5,0.1,4.7,1.1,9.4c0.3,1.7-0.6,4.5-0.6,6.2
			c-0.1,3.4,0.5,2.7,0,5.1c-0.2,1,2.1,8.9,2.6,9.1c0.3,0.1-0.2,0.2,0,0c0.3-0.3,3.5,3.2,3.9,3.5c2.1,1.6,2.5,1.8,4.9,3.3
			c1.6,1,6.1,1.1,8.2,2.7c1.5,1.1,0.4-1,1.6,0.2c2.1,2.1,4.6,1.7,7,3.5c2.4,1.8,6.3,0.7,8.4,2.8c1,1,2.6,1.3,3.8,1.8
			c2.7,1.1,5,1.9,6.9,3.9c1.6,1.6,4.2,3.5,5.7,5c5.4,5.4,9.2,11.1,16.9,14.2c2.6,1,5.7,2.3,8.4,2.9c1,0.2,2.1-0.2,3.1,0
			c3.4,0.7,6.8,2.3,10.3,2.9c3.2,0.5,7.6,0.1,10.7-0.4c2.5-0.4,5.7,0.7,7.8-0.4c3.2-1.6,3.7-5.1,5.9-7.3c2.6-2.6,5.8-4.8,9.6-5.5
			c0.6-0.1,2.2-1.1,1.9-1.7C363.7,559,363.7,559,364,559.3z"/>
		<path class="st12" d="M292.7,558c0.8,0.8-1.4-1.4-1.6-1.9c-0.9-1.8-3-2.3-4.3-3.6c-3-3-9.8-7.5-14.1-8.4c-1-0.2-3.7-1.7-4.5-1.3
			c-1.3,0.6,0.1,8.1-1.5,8.4c-4.1,0.8-7.5-1.9-11.2-2.7c-3-0.6-5.7-1.8-8.7-2.4c-0.9-0.2-1.5-1.2-2.3-1.3c-1.4-0.3-3-0.9-4.1-1.7
			c-2-1.5-5.2-2.7-5.7-5.5c-0.7-3.4,3-6.2,3.5-9.3c0.3-1.7-1-2.8-1.3-4.4c-0.1-0.7,0-4.5-0.4-4.9c-0.2-0.2-1.2,1.1-1.2,1.3
			c-0.4,2-0.9,4.1-1.3,6.1c-0.2,1-1,2-1.2,3.1c-0.5,2.5-0.8,5.1-1.3,7.6c-0.3,1.4-0.8,3.2-0.5,4.7c0.8,4.2,5.4,3.9,7.9,5.7
			c2.8,2.1,6.4,2.4,9.6,3.1c1.2,0.2,2.2,1.2,3.3,1.5c4.4,0.9,8.7,2.3,13.1,3.2c1.7,0.3,3.2,1.4,4.9,1.7c5.7,1.1,15.3,4.5,19.6,8.8
			c1.8,1.8,4,3.2,6.1,4.8c3,2.3,5.7,5.6,9.3,7.1c2.4,1,5,1.2,7.5,1.7c8.7,1.7,17.9,1.7,26.6,0c1.6-0.3,3.2-0.1,4.8-0.4
			c2.5-0.5,4.2-1.3,6.3-2.5c1.5-0.9,3.3-1.1,4.8-2.3c0.7-0.5,2-0.8,2.8-0.9c1.2-0.2,1.9-1.3,2.7-2.1c1.5-1.5,4.2-2.7,4.7-5.1
			c0.2-0.8-0.2-5.8-0.9-6.1c-1.3-0.6-4.3,1.7-5.2,2.4c-0.8,0.6-1.8,0.5-2.7,0.9c-1.6,0.8-3.6,2.4-4.9,3.7c-0.9,0.9-0.6,2.1-1.1,3.1
			c-0.5,1-1.4,2.4-2.1,3.2c-1.3,1.3-3.7,0.7-5.3,1.1c-3.9,0.8-9.4,1.2-13.3,0.4c-4.2-0.8-9-1.6-12.9-3.2c-0.9-0.4-2.1-1.1-3.1-1.3
			c-3.3-0.7-7.4-0.8-10.3-2.9c-2.6-2-4.8-4.1-7.1-6.4C294.9,560,292.6,557.9,292.7,558z"/>
		<path class="st13" d="M268.2,542.8c0.2-0.1-2.4-0.7-2.7-0.8c-2.6-0.9-4.8-2.6-7.3-3.6c-5.3-2.1-12-3.7-16.7-7.2
			c-1.2-0.9-2.2-2.4-3.2-3.1c-0.2-0.2-0.5,0.6-0.5,0.7c-0.9,1.8-2.7,3.5-3.1,5.6c-0.3,1.5-0.6,3.9,0.7,5.2c5.8,5.8,15.5,8,23.4,9.6
			c2.6,0.5,5.9,2.4,8.5,1.3C267.9,550.3,266.9,543.9,268.2,542.8z"/>
		<path class="st14" d="M288.7,553.4c-0.4-0.8-1.5-0.8-2.1-1.4c-1.1-1.1-2-1.8-3.3-2.8c-0.5-0.4-0.9-0.9-1.3-1.4
			c-1.2-1.2-3.1-2.1-4.6-3.2c-1-0.8-2.3-1-3.4-1.7c-2.9-1.7-6.4-3.8-8.5-6.6c-2.1-2.8-4.5-5.4-6.6-8.2c-1-1.3-1.5-2.5-3.1-2.9
			c-1.7-0.4-3.7,0.2-5.3,0.5c-2.5,0.4-5,0.6-7.4,1.4c-0.8,0.3-3.5,0.2-3.9,1"/>
		<path class="st15" d="M253.1,525l7.2,5.7"/>
		<path class="st15" d="M251,526c0.4,0.5,1,0.9,1.5,1.3c2.9,2.8,5.7,5.5,9.2,7.6c1.4,0.8,2.6,1.9,4,2.8c0.3,0.2,1.8,1.3,1.4,1.2"/>
		<path class="st15" d="M248.4,526.4c2.8,2.8,5.5,5.6,8.8,7.8c1.3,0.8,2.4,2.1,3.7,2.9c1.6,0.9,3.3,2,4.7,3.3
			c0.4,0.4,0.9,0.8,1.4,1.2c0.1,0.1,0.8,0.4,0.5,0.3"/>
		<path class="st15" d="M245.8,526.9c-0.1-0.1,0.7,0.8,0.9,1c0.6,0.6,1.2,1.2,1.8,1.8c0.6,0.5,0.9,1.2,1.4,1.7c1.5,1.5,3.4,2.6,5,4
			c0.2,0.1,4,2.8,3.2,2.7"/>
		<path class="st15" d="M243.5,527.4c0.5,0.3,0.6,0.9,0.9,1.4c0.7,1.2,2.2,2.7,3.1,3.7c0.6,0.6,1.1,1.1,1.6,1.8
			c0.1,0.2,0.7,0.9,0.5,0.7"/>
		<path class="st15" d="M256.7,527c-3.5,0.3-7.1,1.2-10.6,1.7c-1.2,0.2-2.4,0.5-3.6,0.6c-0.3,0-1.5,0.3-1.3,0.2"/>
		<path class="st15" d="M259.2,529.6c0,0.2-3.5,0.6-4,0.7c-1.7,0.3-3.5,0.2-5.2,0.4c-2.2,0.4-4.9,1.2-7.1,0.9"/>
		<path class="st15" d="M261,531.8c-0.3,0.4-1.9,0.5-2.4,0.6c-2.5,0.5-5.2,1.3-7.7,1.7c-1,0.1-2,0.5-3,0.6c-0.3,0-1.3,0.1-1.2,0.1"
			/>
		<path class="st15" d="M263.4,534.3c-3.3,1.7-7.4,1.5-10.8,2.7"/>
		<path class="st15" d="M265.8,536.8c-1.9,0.5-3.9,0.9-5.8,1.2c-0.8,0.1-1.9,0-2.7,0.3"/>
		<path class="st15" d="M267.7,539.2c0.1,0-1.6,0.4-2.2,0.5c-1.3,0.2-3,0-4.2,0.5"/>
		<path class="st15" d="M271.1,541.2c-0.9,0.3-2.4,0.8-3.5,0.8c-0.7,0-1.5-0.2-2.1,0.1"/>
		<path class="st16" d="M355,551.2c-2.2,3.3-6,5.2-9.1,7.6c-0.9,0.7-1.4,1.9-2.5,2.4c-0.4,0.2-4.3-2.3-4.4-2.6
			c-0.1-0.5,1.2-1.4,1.6-1.8c0.6-0.7,3.9-3.8,4-4.3c0.2-0.7-1.4-1.8-1.9-2.1c-1.9-0.9-5.7,4.5-8,5c-0.4,0.1-2-1.5-2.4-1.7
			c-0.2-0.1-1.5-0.5-1.5-0.8c0.2-0.7,2.3-1.9,2.9-2.5c1.5-1.9,7.1-6.7,9.6-6.7c0.6,0,3,1.8,4.1,2.1c0.2,0,0.4,0,0.5,0.2
			c0.1,0.2-0.4,0.3-0.4,0.3c-0.4,0.2-2.9,1.7-2.9,2.2c0,0.4,1.4,1.2,1.6,1.5c1.7,1.7,3.3-0.9,5.1-1.4
			C352,548.4,355.4,550.5,355,551.2z"/>
		<path class="st16" d="M338.7,542.4c0.3-0.7-2.6-2.4-3.5-2.2c-0.6,0.2-1.1,0.8-1.6,1.1c-1.2,0.9-4.9,2.9-6.4,3.2
			c-1,0.2-3.1,1.3-4.1,0.3c-1.7-1.7,3.2-5.2,4.5-5.7c0.5-0.2,3.3-1.2,3.1-1.5c-0.6-0.8-1.3-1.9-2.3-2.2c-0.8-0.2-2,0.8-2.6,1.2
			c-2,1.3-4.8,2.4-6.4,4.2c-1.2,1.4-1.5,3.5-0.1,4.9c0.7,0.7,2.1,0.9,2.9,1.3c4.5,2.3,9.9-0.8,13.8-3.4
			C336.6,543.3,338.4,543.1,338.7,542.4z"/>
		<path class="st16" d="M306.7,538.9c-0.1,0.2,3.7,2.6,3.8,2.6c0.1,0,0.1,0,0.2,0c0.8-0.5,1.5-2.2,2.1-2.9c1.6-2.1,3.4-3.9,5.2-5.7
			c0.3-0.3,2-2.2,1.6-2.8c-0.8-1.2-2.5-2.2-3.5-3.2c-0.4-0.4-0.8-1.4-1.4-1.6c-1.5-0.8-7.8,0.9-9.4,1.5c-1,0.3-1.8,1.1-2.8,1.4
			c-1.1,0.4-3.3,1.1-3.9,2.2c-0.1,0.2,0.4,0.4,0.5,0.5c0.3,0.3,3.9,3,4,2.9c0.5-0.2,2.8-2.1,3.4-1.6c0.6,0.6,0.9,1.4,1.5,2
			c0.3,0.3,1.2,0.8,1.2,1.3C309.2,536.6,307,537.8,306.7,538.9z"/>
		<path class="st17" d="M310.6,529.7c0.3,1.1,1.3,2.1,2.1,2.6c0.1,0.1,0.5-0.1,0.6-0.2c0.3-0.2,3.5-3.5,3.5-3.5
			c0-0.3-1.2-0.2-1.5-0.3C314.3,528.1,310.3,528.5,310.6,529.7z"/>
		<path class="st16" d="M297.4,519.3c-1.8,0.9-3.2,2.1-4.6,3.5c-0.4,0.4-1.3,0.5-1.6,1c-0.3,0.5,2.6,3.5,3.3,3.3
			c1.3-0.4,2.9-2.5,3.8-3.4c0.9-0.9,3.1-2.2,4.2-2.9c1.1-0.6,2-1.4,3.1-2c0.2-0.1,1.9-0.6,1.7-0.8c-1.1-1.1-3.3-2.8-4.9-3.2
			c-1.5-0.4-3.6,0.2-5.2,0.2c-1.2,0-2.5,0-3.7,0c-0.5,0-1.1,0-1.6,0c-0.1,0-0.2,0.1-0.2,0c0-0.1,1.4-0.7,1.6-0.8
			c0.3-0.2,1-0.7,1.9-1.3c1.5-1,3.3-2.2,3.3-2.5c0-0.3-0.9-0.8-1.1-1c-0.2-0.3-1-1.8-1.3-1.7c-2.2,0.5-4.3,3.2-6,4.5
			c-1,0.8-2.4,1.3-3.2,2.3c-0.4,0.5-2,1-2.2,1.6c-0.1,0.2,0.8,0.8,1,1c0.5,0.5,0.8,1.4,1.3,1.9c0.1,0.1,6.2-0.1,6.9-0.1
			c0.9,0,1.7,0.1,2.6,0.1c0.3,0,0.5-0.1,0.8-0.1c0.2,0,0.7-0.2,0.5-0.1C297.7,519.1,297.5,519.3,297.4,519.3z"/>
		<path class="st18" d="M236.3,514.7c0.2,0.8-0.2-1-0.2-1.3c0-1-0.2-2-0.2-3c0-1.8,0-3.7-0.1-5.5c-0.1-1.4-0.6-2.9-0.4-4.3
			c0.1-0.7-0.2-2.9,1.1-3c0.7-0.1,1,1.5,1.3,2c0.7,1.2,0.8,2.6,1.4,3.7c0.6,1.1,1.2,2.2,1.9,3.3c0.7,1.2,3.5,3.4,4.8,3.8
			c0.9,0.3,2.7,0.4,3.2,1.3c0.4,0.8-0.5,2.8-0.8,3.5c-1.1,3.3-5.9,0.9-7.5-0.6c-0.4-0.4-1.7-1.4-2.3-1.4c-1.2,0.1-1.2,3.3-1.9,3.5
			C236.4,516.9,236.1,513.9,236.3,514.7z"/>
		<path class="st19" d="M238.3,489.2c-0.4-1.6-2.7-7.5-4.5-8c-0.8-0.3-5.6,1.9-5.6,3.5c0,1.1,1.9,0.6,2.4,1.5
			c0.7,1.6,2.4,6.7,3.4,7.9c0,0,0,0.1,0,0.1c0.4,1.2,0.8,2.5,1.2,3.7c0,0.1,0.3,0.6,0.3,0.6c0.2-0.2,0.3-4,0.5-4.6
			c0.4-1.2,0.4-1.8,0.8-3C237,490.4,238.4,489.5,238.3,489.2z"/>
		<path class="st20" d="M235.5,497.7c-0.3-0.8-2.5-6.8-4.2-10.2c-0.9-1.7-1.7-2.2-1.9-2.1c-0.5,0.1-1.3,0.5-1.1,1.4
			c0.5,1.9,2.1,3.4,3.3,4.9c0.5,0.6,0.7,1.6,1.1,2.3c1,1.7,2,3.8,2.6,5.5"/>
		<path class="st21" d="M236.9,488.9l-0.1-0.1l-0.1-0.2l0-0.1l0-0.1l0,0"/>
		<path class="st21" d="M236.4,487.3c-0.3-0.2-0.3-0.6-0.5-1"/>
		<path class="st21" d="M235.5,485.2l-0.1-0.1l-0.2-0.3l0-0.1l-0.1-0.1l-0.1-0.1l0,0"/>
		<path class="st21" d="M234.3,483.6l-0.1-0.2l0-0.2l-0.1-0.2l0,0"/>
		<path class="st21" d="M233.6,482.4c-0.3-0.2-0.2-0.1-0.4-0.3"/>
		<path class="st21" d="M235.4,493.8l0,0.1L235.4,493.8l-0.1-0.1l0-0.1l-0.1-0.1l0-0.1l-0.1-0.1l-0.1-0.2l0,0"/>
		<path class="st21" d="M234.7,491.8l-0.1-0.2l-0.1-0.2l-0.1-0.1l0-0.1l0,0"/>
		<path class="st21" d="M233.9,489.8l-0.1-0.2l-0.1-0.2l-0.1-0.2l-0.1-0.2l0,0"/>
		<path class="st21" d="M233,487.9l-0.1-0.2l0-0.1l0-0.1l-0.1-0.2l0,0"/>
		<path class="st21" d="M232.1,486.2l-0.1-0.1l-0.2-0.2l-0.1-0.1l-0.1-0.1l-0.1-0.1l0,0"/>
		<path class="st21" d="M231,484.8l-0.1-0.1l-0.1-0.1l-0.2-0.1l-0.1-0.1l-0.1-0.1l0,0"/>
		<path class="st21" d="M229.6,484.1c-0.1-0.1-0.1-0.1-0.2-0.1"/>
		<path class="st21" d="M247.7,512.9l-0.1,0.3l-0.1,0.1l-0.1,0.1l0,0"/>
		<path class="st21" d="M247.2,514.5l-0.1,0.3l-0.1,0.1l-0.2,0.4l0,0"/>
		<path class="st21" d="M246.3,515.9l-0.1,0L246,516l-0.2,0l-0.2,0l0,0"/>
		<path class="st21" d="M244.4,515.7L244.4,515.7l-0.2-0.2l-0.2-0.1l0,0"/>
		<path class="st21" d="M243,514.8l-0.2-0.1l-0.2,0l-0.1-0.1l-0.2-0.1l0,0"/>
		<path class="st21" d="M241.4,513.7l-0.2-0.1l-0.2-0.1l-0.2-0.1l-0.1-0.1l0,0"/>
		<path class="st21" d="M247.4,512.2l-0.2,0l-0.3-0.1l-0.1-0.1l-0.2,0l0,0"/>
		<path class="st21" d="M245.7,511.8L245.7,511.8l-0.3-0.1l-0.2,0l-0.1-0.1l0,0"/>
		<path class="st21" d="M243.9,511l-0.2,0l-0.2-0.1l-0.1-0.1l-0.1-0.2l0,0"/>
		<path class="st21" d="M242.3,509.7l-0.2,0l-0.1-0.1l-0.1-0.1l0,0"/>
		<path class="st21" d="M241.3,509l-0.1,0.2l-0.1,0.1l0,0.2l0,0"/>
		<path class="st21" d="M240.7,510.2l0,0.2l0,0.2l-0.1,0.2l0,0.2l0,0"/>
		<path class="st22" d="M240.2,511.8l-0.1,0.2l-0.1,0.2l-0.1,0.2l0,0"/>
		<path class="st23" d="M269.4,478.3l-0.3,0l-0.3,0l-0.3,0l-0.2,0l0,0"/>
		<path class="st23" d="M266.6,478.4l-0.6,0l-0.4,0l-0.2,0.1l-0.3,0.1l0,0"/>
		<path class="st23" d="M263.6,479.3l-0.2,0.1l-0.9,0.3l-0.3,0.1l0,0"/>
		<path class="st23" d="M260.6,481.1l-0.3,0.1l-0.3,0.2l-0.1,0.2l0,0"/>
		<path class="st23" d="M257.5,483.2l-0.4,0.3l-0.1,0.2l-0.1,0.2l-0.2,0.3l0,0"/>
		<path class="st23" d="M255.6,485.6c-0.3,0.5-0.6,0.8-0.9,1.5"/>
		<path class="st23" d="M253.6,489.5l0,0.3l0.1,0.3l0,0.2l0.1,0.2l0,0.3l0,0"/>
		<path class="st23" d="M253.7,493.6l0,0.2l0.1,0.2l-0.1,0.6l0.1,0.3l0.1,0.2l0,0"/>
		<path class="st23" d="M254.3,497.6l0,0.6l0.1,0.3l0,0.4l0,0.2l0,0"/>
		<path class="st23" d="M254.6,502c-0.1,0.7-0.4,1.4-0.4,2.1"/>
		<path class="st23" d="M253.4,505.7c-0.4,0.5-0.8,1-1.3,1.3"/>
		<path class="st23" d="M250.9,508.1c-0.6,0.2-1.1,0.6-1.7,0.5"/>
		<path class="st23" d="M247.2,508.4l-0.5,0l-0.2-0.1l-0.2-0.1L246,508l0,0"/>
		<path class="st23" d="M244.7,507c-0.4-0.6-0.3-0.3-0.3-1"/>
		<path class="st23" d="M243.1,504.6l-0.1-0.3l-0.1-0.2l-0.1-0.2l-0.1-0.3l-0.1-0.2l0,0"/>
		<path class="st23" d="M241.6,502l-0.1-0.2l-0.1-0.3l-0.1-0.2l-0.1-0.3l-0.1-0.2l0,0"/>
		<path class="st23" d="M240.5,499.6l-0.2-0.1l-0.1-0.3l0-0.3l-0.1-0.2l0-0.2l0,0"/>
		<path class="st23" d="M239.7,496.8l0-0.4l-0.1-0.3l0-0.5l-0.1-0.2l0,0"/>
		<path class="st23" d="M239,493.6c0-0.6-0.1-1.1-0.1-1.6"/>
		<path class="st23" d="M238.7,491.2c-0.2-0.3-0.1-0.2-0.3-0.4"/>
		<path class="st23" d="M271.9,479.7l-0.2-0.1l-0.2,0l-0.4-0.1l-0.3,0l-0.2-0.1l0,0"/>
		<path class="st23" d="M269,479.5c-0.7-0.1-1.1,0-1.7-0.1"/>
		<path class="st23" d="M265.6,479.7c-0.5,0.2-1.2,0.3-1.7,0.4"/>
		<path class="st23" d="M262.8,481.2c-0.6,0.2-1.1,0.7-1.7,1"/>
		<path class="st23" d="M259.6,483.6c-0.4,0.6-1,0.4-1.3,1.3"/>
		<path class="st23" d="M257.1,485.9L257,486l-0.1,0.2l-0.2,0.3l-0.1,0.4l-0.1,0.4l0,0"/>
		<path class="st23" d="M255.8,489.2l-0.1,0.2l-0.1,0.2l0,0.3l0,0.3l0,0.2l0.1,0.2l0,0"/>
		<path class="st23" d="M255.4,492.8c-0.1,0.7-0.1,1.4,0.1,2"/>
		<path class="st23" d="M255.5,496.3c-0.1,0.6,0.1,1.2,0,1.9"/>
		<path class="st23" d="M255.9,500.5l0,0.5l0,0.2l0,0.4l0,0.3l0,0"/>
		<path class="st23" d="M255.5,504.8l0,0.2l-0.2,0.1l-0.3,0.5l-0.1,0.2l-0.1,0.2l0,0"/>
		<path class="st23" d="M253.8,507.8c-0.7,0.4-1.3,0.7-2.1,0.9"/>
		<path class="st23" d="M249.7,509.6c-0.7,0.1-1.4,0.2-2-0.2"/>
		<path class="st23" d="M245.5,509l-0.3,0l-0.2-0.3l-0.2-0.2l-0.1-0.2l-0.1-0.2l-0.1-0.2l0,0"/>
		<path class="st23" d="M243,506.9l-0.2-0.1l-0.3-0.3l-0.1-0.2l-0.1-0.2l-0.1-0.2l-0.1-0.2l0,0"/>
		<path class="st23" d="M241.5,504l-0.1-0.3l-0.1-0.2l-0.1-0.2l0-0.2l-0.1-0.3l0-0.2l0,0"/>
		<path class="st23" d="M240.6,500.9l-0.1-0.2l-0.1-0.3l-0.1-0.3l0-0.4l-0.1-0.2l0,0"/>
		<path class="st23" d="M239.3,498c-0.1-0.6-0.3-1.3-0.5-1.8"/>
		<path class="st23" d="M238.5,493.5l0-0.2l-0.1-0.2l-0.1-0.2l0-0.3l0,0"/>
		<path class="st23" d="M237.9,491.7c-0.2-0.4-0.1-0.2-0.2-0.7"/>
		<path class="st23" d="M361.9,558c-0.7,0.4-1.2,0.6-2,0.8"/>
		<path class="st23" d="M358,560.1l-0.6,0.3l-0.6,0.4l-0.2,0.1l0,0"/>
		<path class="st23" d="M353.3,562.4l-0.2-0.1l-0.6,0.4l-0.1,0.2l-0.2,0.2l-0.4,0.3l-0.2,0.1l0,0"/>
		<path class="st23" d="M349.8,565.2l-0.2,0.3L349,566l-0.2,0.4l0,0"/>
		<path class="st23" d="M348.3,568.2l0,0.3l-0.1,0.8l-0.2,0.5l-0.1,0.2l-0.2,0.2l0,0"/>
		<path class="st23" d="M346.7,571.5l-0.1,0.3l-0.2,0.3l-0.4,0.1l-0.6,0.2l-0.3,0.1l0,0"/>
		<path class="st23" d="M342.2,572.9c-0.9-0.1-2.4-0.4-3.2-0.1"/>
		<path class="st23" d="M335.8,573.1c-0.9,0.2-1.7,0.3-2.6,0.4"/>
		<path class="st23" d="M330.4,573.3c-0.8-0.1-1.5-0.2-2.3-0.2"/>
		<path class="st23" d="M324.5,572.3L324,572l-0.4,0l-0.5-0.1l0,0"/>
		<path class="st23" d="M319.7,570.9l-0.4-0.3l-0.6-0.3l-0.3-0.2l0,0"/>
		<path class="st23" d="M314.7,569.4c-0.4,0.6-2.1-0.5-2.6-0.7"/>
		<path class="st23" d="M308.9,568l-0.2-0.1l-0.5-0.2l-0.7-0.4l-0.4-0.2l0,0"/>
		<path class="st23" d="M305.2,566.3c-0.6-0.3-1.4-0.9-2-1.3"/>
		<path class="st23" d="M301,563.4c-0.7-1.1-1.4-1.9-2.5-2.5"/>
		<path class="st23" d="M297.2,559.6c-0.7-0.3-1.5-1.5-2.1-2.1"/>
		<path class="st23" d="M293.2,556l-0.2-0.1l-0.6-0.7l-0.4-0.5l0,0"/>
		<path class="st23" d="M290.1,552.7l-0.1-0.2l-0.5-0.3l-0.3-0.2l-0.5-0.4l0,0"/>
		<path class="st23" d="M286.6,549.4c-0.8-0.5-1.3-1.1-2-1.7"/>
		<path class="st23" d="M283.2,545.8c-0.8-0.4-1.6-1-2.3-1.5"/>
		<path class="st23" d="M278.5,543c-0.7-0.3-1.6-0.9-2.4-1"/>
		<path class="st23" d="M237.4,517.9c0,0.3-0.1,0.7-0.1,1"/>
		<path class="st23" d="M238.1,520.3l0,0.5l0.1,0.3l0.2,0.4l0,0"/>
		<path class="st23" d="M238.9,523.5l-0.1,0.2l0.1,0.4l0.1,0.2l0.1,0.2l0,0"/>
		<path class="st23" d="M239.2,526c0,0.5-0.1,0.2,0.1,0.8"/>
		<path class="st24" d="M281.2,501.6c-0.2,0.5-0.8-0.8-1.1-1.2c-0.3-0.4-1.2-0.6-1.3-1.2c-0.1-0.3,1.5-1.6,1.8-1.7
			c3.3-1.4,8.2,1.2,9.6,4.4c0.7,1.6-0.7,2.8-1.2,4.1c-1.5,3.5-6.6,7.7-10.6,6.1c-1-0.4-2.9-1.6-3.2-2.7c-0.2-0.6,0.1-1.9,0.1-1.9
			s-0.9,1.2-1.4,1c-0.6-0.3-2.7-2.2-2.4-2.8c0.3-0.7,4-3.9,4.5-3.8c0.2,0,2.8,2.4,3,2.6c0.3,0.5-0.5,1.8,0.1,2.9
			c0.5,0.8,2.2,0.6,3,0.4c1.9-0.6,4.3-3.8,2.7-5.7C284.2,501.6,281.9,500,281.2,501.6z"/>
		<path class="st24" d="M281,501.4c-0.1,0.2-0.8-0.5-1-0.6c-0.4-0.4-1.4-1-1.5-1.5"/>
		<path class="st25" d="M255.7,529c-0.1-0.1-0.3-0.3-0.4-0.3c-0.1-0.1,0.1,0.5,0.2,0.5c0.4,0,0-0.8,0-1.2c0-0.7,0.1-1.3,0.3-2
			c0.5-2,2.3-3.4,3.3-5c1.2-2,3.7-4,5.2-6c2.5-3.4,5-7.2,8.4-9.9c2-1.6,4-3,6-4.6c2.2-1.8,5-2.4,7.2-4.1c0.4-0.3,2.3-1.3,2.9-0.8
			c0.3,0.3,1.4,1.8,1.1,2.2c-1.2,1.2-3.4,1.6-4.7,2.6c-4.4,3.3-9.2,5.9-13,9.7c-2.7,2.7-5,6.1-7.4,9.2c-1.4,1.9-3.4,3.6-4.8,5.6
			c-0.7,0.9-2.3,3.8-3.1,4.3c-0.2,0.1-0.4,0.6-0.6,0.5C256,529.4,255.8,529.2,255.7,529z"/>
		<path class="st25" d="M288.2,499.5c-0.1,1.7-2.2,3.1-3.1,4.4c-2.1,3.2-4.6,6-7.3,8.7c-0.8,0.8-1.9,1.4-2.6,2.3
			c-1.5,1.9-3.2,3.7-4.9,5.3c-2.5,2.5-4.3,5.5-6.8,8c-0.3,0.3-2.3,3-2.6,1.7c-0.7-2.6,2.6-5.6,4-7.4c2.4-3.2,4.8-7,7.7-9.9
			c1.8-1.8,3.7-3.4,5.4-5.1c1.7-1.7,3.7-3.2,5.4-5c0.8-0.8,1.2-1.8,2.1-2.4C285.9,500,288.2,498.9,288.2,499.5z"/>
		<path class="st25" d="M258.5,534c0-0.8,0.9-1.9,1.3-2.6c1.2-2.1,2.1-4,3.6-5.9c2.8-3.4,5.6-6.7,8.7-9.8c0.7-0.7,1.3-1.7,2.1-2.3
			c1.9-1.4,4.2-2.7,5.9-4.4c0.9-0.8,2.4-0.9,3.3-1.8c2.2-2.2,5.2-3.4,8-4.8c1.2-0.6,2.8-1.6,4.1-0.3c0.7,0.7,0.2,1.5-0.5,1.9
			c-0.4,0.2-1.1,0.1-1.6,0.2c-1.4,0.3-2.6,1.5-3.8,2.1c-0.9,0.5-2.2,0.7-3,1.4c-1.5,1.2-3.7,2-5.1,3.4c-1.3,1.3-2.5,2.4-3.9,3.5
			c-1.6,1.3-3,3.6-4.8,4.9c-0.4,0.3-1,0.4-1.4,0.8c-3.5,3.5-6.3,7.5-9.3,11.5c-0.5,0.7-2.2,4-3,2.9C258.9,534.4,258.5,534,258.5,534
			z"/>
		<path class="st25" d="M293.3,499.8c-0.1-0.5-0.2-0.9-0.6-1.3c-2.4-2.4-6.1,5.7-7.2,7.2c-0.7,1-0.9,2.3-1.7,3.2
			c-2.7,3.6-5.6,6.7-8.3,10.3c-2.1,2.8-3.5,6-5.3,9c-1.6,2.7-5.1,7.3-4.4,10.7c0.1,0.4,0.5,0.2,0.7,0.2c1.4,0,2.3-1.8,3.1-2.8
			c1.2-1.5,1.7-4,2.4-5.9c0.9-2.3,2.9-4.1,4-6.4c0.6-1.3,2-2.9,2.9-3.9c0.9-0.9,1.3-2.5,2.1-3.6c0.7-1,1.6-1.8,2.4-2.6
			c0.8-0.8,1-2,1.7-2.8c1.4-1.8,2.6-3.8,4-5.6C289.7,504.7,293.5,500.5,293.3,499.8z"/>
		<path class="st25" d="M288.3,496.3c-0.9,0.9-0.6,2-1.1,3"/>
		<path class="st25" d="M286.2,496.7c-0.3,1.1-1.2,2-1.2,3.2"/>
		<path class="st25" d="M283,498.5c-0.5,1.2-0.4,2.8-1,3.9"/>
		<path class="st25" d="M280.6,500.3c-0.5,0.9-0.6,2.1-0.6,3.1"/>
		<path class="st25" d="M278,501.6c-0.5,1.1-0.1,2.3-0.5,3.4"/>
		<path class="st25" d="M275.8,502.9c-0.7,1.3-0.5,2.7-0.8,4.1"/>
		<path class="st25" d="M273,505.9c-0.5,1,0,2.4-0.5,3.3"/>
		<path class="st25" d="M270.8,507.6c-0.4,1.2,0.1,2.8-0.4,3.8"/>
		<path class="st25" d="M269.2,510.5c0,0.5-0.1,2.9-0.5,3.1"/>
		<path class="st25" d="M267,512.3c-0.2,0.6-0.2,3.1-0.7,3.4"/>
		<path class="st25" d="M264.9,514.9c-0.3,1.2-0.1,2.9-0.6,4"/>
		<path class="st25" d="M262.7,518c0,0.9,0.2,2.6-0.2,3.5"/>
		<path class="st25" d="M260.7,519.8c-0.4,1.1-0.3,2.2-0.3,3.4"/>
		<path class="st25" d="M258.8,522c-0.5,0.9,0.1,4.2-0.1,4.3"/>
		<path class="st25" d="M256.8,525.2c-0.5,1,0.5,1.7,0.5,2.7"/>
		<path class="st25" d="M256.1,527.7c0.2,0.7,0,1.6,0.9,1.6"/>
		<path class="st25" d="M287.1,500.6c-0.6,0.3-1.6,0.1-2.2-0.2"/>
		<path class="st25" d="M286.5,502.1c-0.8,0.2-1.4-0.1-2.1-0.1"/>
		<path class="st25" d="M285.7,503.6c-1,0.7-2.3-0.3-3.1-0.7"/>
		<path class="st25" d="M283.5,505.2c-0.2,0.4-2-0.3-2.5-0.3"/>
		<path class="st25" d="M282.6,506.6c-0.7,0.4-2.2-0.9-2.9-1.2"/>
		<path class="st25" d="M280.7,508c0.2,0.5-2.2-0.6-2.5-0.6"/>
		<path class="st25" d="M279.4,509c-0.7,0.7-2.1-0.1-2.9,0.3"/>
		<path class="st25" d="M277,510.7c0,0.6-1.9,0.3-2.4,0.3"/>
		<path class="st25" d="M275.5,512.3c-0.6,0.3-1.6,0-2.3,0"/>
		<path class="st25" d="M273.3,513.8c0,0.6-1.1,0.4-1.5,0.6"/>
		<path class="st25" d="M272,515.6l-0.2,0.2h-0.6h-0.2h-0.3l0,0"/>
		<path class="st25" d="M270.8,516.5l-0.2,0.2h-0.4H270h-0.2l0,0"/>
		<path class="st25" d="M269.6,518l-0.1,0.2h-0.2l-0.2,0.1l-0.3,0.1l-0.4,0.1l0,0"/>
		<path class="st25" d="M267.9,519.4l-0.2,0.2l-0.3,0.1l-0.2,0.1h-0.2l0,0"/>
		<path class="st25" d="M267.1,520.6l-0.2,0.2h-0.3l-0.2-0.1l-0.2-0.1l0,0"/>
		<path class="st25" d="M292.1,499.1c-0.3,0.8-1.2,2.3,0,2.9"/>
		<path class="st25" d="M290.5,499.3c0,1.2-0.3,2.5-0.3,3.8"/>
		<path class="st25" d="M289.1,501.5c0,1.2-0.2,2.3,0,3.5c0.1,0.3,0.4,1.6,0.2,1.3"/>
		<path class="st25" d="M286.8,504.5c-0.3,1.2,0.2,2.2,0.2,3.3"/>
		<path class="st25" d="M284.8,507.4c0,0.8,0.7,2.2,0.4,2.9"/>
		<path class="st25" d="M282.8,510.6c-0.3,1,0.5,1.7,0.5,2.7"/>
		<path class="st25" d="M280.9,513.2c0,0.6,0.7,2.1,1,2.7"/>
		<path class="st25" d="M279,515.6c0,1,0.4,1.8,0.6,2.8"/>
		<path class="st25" d="M276.8,518.1c0,1.2,0.5,2.3,0.5,3.5"/>
		<path class="st25" d="M274.8,521.1c0,1.1,0.7,2.1,0.7,3.1"/>
		<path class="st25" d="M273.2,523.6c0,1.4,0.6,2.7,0.6,4.1"/>
		<path class="st25" d="M271.5,528.1c0,0.9,0.3,1.6,0.3,2.4"/>
		<path class="st25" d="M269.2,530.7c0,1.4,1.5,2.5,1.5,3.9"/>
		<path class="st25" d="M268.3,533.6c0,1.1,0.8,2,0.8,3.1"/>
		<path class="st25" d="M266.3,536c0.4,0.7,0,1.8,0.9,2.3"/>
		<path class="st25" d="M294.9,502.1c-0.3,0.6-0.6,1.9-1.1,2.2"/>
		<path class="st25" d="M293.6,502c-0.2,0.4-0.9,2.2-1.3,2"/>
		<path class="st25" d="M292,502.8c-0.2,0.9-1.2,1.6-1.6,2.5"/>
		<path class="st25" d="M283.2,508c-0.3,0.7-0.6,1.3-1.2,1.8"/>
		<path class="st25" d="M280.7,508.9c-0.2,0.7-1,3.6-1.9,3.1"/>
		<path class="st25" d="M277.5,511c-0.7,1.3-0.7,3-1.4,4.4"/>
		<path class="st25" d="M274.5,513.6c0,0.9-0.1,3.8-1,4.4"/>
		<path class="st25" d="M271.9,516.7c0,1,0.4,3.1-0.3,3.9"/>
		<path class="st25" d="M269.6,519.3c-0.3,0.9-0.1,2.6-1.1,3.1"/>
		<path class="st25" d="M266.8,522.4c0,0.7-0.2,3.1-0.6,3.5"/>
		<path class="st25" d="M264.3,525.1c0,1.3,0.2,2.5-0.4,3.6"/>
		<path class="st25" d="M262.6,528.6c0,0.6,0.2,2.3-0.3,2.6"/>
		<path class="st25" d="M260.7,530.9c-0.3,0.7-0.1,1.6-0.8,2"/>
		<path class="st25" d="M259.1,532.8v0.2l0.1,0.2v0.2l-0.1,0.2l0,0"/>
	</g>
</g>
</svg>
